NUM_Light_01.ufo
<glyph name="exclam" format="1">
  <advance width="128"/>
  <unicode hex="0021"/>
  <outline>
    <contour>
      <point x="32" y="407" type="line"/>
      <point x="42" y="111" type="line"/>
      <point x="85" y="111" type="line"/>
      <point x="103" y="407" type="line"/>
    </contour>
    <contour>
      <point x="64" y="-5" type="curve"/>
      <point x="88" y="-5"/>
      <point x="105" y="11"/>
      <point x="105" y="33" type="curve"/>
      <point x="105" y="56"/>
      <point x="88" y="72"/>
      <point x="64" y="72" type="curve"/>
      <point x="40" y="72"/>
      <point x="23" y="56"/>
      <point x="23" y="33" type="curve"/>
      <point x="23" y="11"/>
      <point x="40" y="-5"/>
    </contour>
  </outline>
</glyph>
<glyph name="numbersign" format="1">
  <advance width="330"/>
  <unicode hex="0023"/>
  <outline>
    <contour>
      <point x="240" y="391" type="line"/>
      <point x="157" y="0" type="line"/>
      <point x="210" y="0" type="line"/>
      <point x="293" y="391" type="line"/>
    </contour>
    <contour>
      <point x="18" y="155" type="line"/>
      <point x="8" y="107" type="line"/>
      <point x="285" y="107" type="line"/>
      <point x="296" y="155" type="line"/>
    </contour>
    <contour>
      <point x="120" y="391" type="line"/>
      <point x="37" y="0" type="line"/>
      <point x="90" y="0" type="line"/>
      <point x="173" y="391" type="line"/>
    </contour>
    <contour>
      <point x="45" y="283" type="line"/>
      <point x="34" y="235" type="line"/>
      <point x="312" y="235" type="line"/>
      <point x="322" y="283" type="line"/>
    </contour>
  </outline>
</glyph>
<glyph name="dollar" format="1">
  <advance width="330"/>
  <unicode hex="0024"/>
  <outline>
    <contour>
      <point x="168" y="-5" type="curve"/>
      <point x="248" y="-5"/>
      <point x="306" y="42"/>
      <point x="306" y="109" type="curve"/>
      <point x="306" y="253"/>
      <point x="107" y="185"/>
      <point x="107" y="282" type="curve"/>
      <point x="107" y="318"/>
      <point x="134" y="342"/>
      <point x="169" y="342" type="curve"/>
      <point x="207" y="342"/>
      <point x="228" y="322"/>
      <point x="236" y="280" type="curve"/>
      <point x="295" y="290" type="line"/>
      <point x="287" y="356"/>
      <point x="238" y="396"/>
      <point x="172" y="396" type="curve"/>
      <point x="97" y="396"/>
      <point x="40" y="347"/>
      <point x="40" y="278" type="curve"/>
      <point x="40" y="129"/>
      <point x="240" y="194"/>
      <point x="240" y="105" type="curve"/>
      <point x="240" y="71"/>
      <point x="212" y="50"/>
      <point x="172" y="50" type="curve"/>
      <point x="119" y="50"/>
      <point x="94" y="73"/>
      <point x="86" y="125" type="curve"/>
      <point x="24" y="116" type="line"/>
      <point x="32" y="37"/>
      <point x="83" y="-5"/>
    </contour>
    <contour>
      <point x="187" y="-66" type="line"/>
      <point x="187" y="22" type="line"/>
      <point x="143" y="22" type="line"/>
      <point x="143" y="-66" type="line"/>
    </contour>
    <contour>
      <point x="187" y="369" type="line"/>
      <point x="187" y="457" type="line"/>
      <point x="143" y="457" type="line"/>
      <point x="143" y="369" type="line"/>
    </contour>
  </outline>
</glyph>
<glyph name="percent" format="1">
  <advance width="431"/>
  <unicode hex="0025"/>
  <outline>
    <contour>
      <point x="317" y="391" type="line"/>
      <point x="58" y="0" type="line"/>
      <point x="113" y="0" type="line"/>
      <point x="372" y="391" type="line"/>
    </contour>
    <contour>
      <point x="113" y="222" type="curve"/>
      <point x="169" y="222"/>
      <point x="210" y="261"/>
      <point x="210" y="314" type="curve"/>
      <point x="210" y="364"/>
      <point x="174" y="396"/>
      <point x="120" y="396" type="curve"/>
      <point x="64" y="396"/>
      <point x="23" y="358"/>
      <point x="23" y="304" type="curve"/>
      <point x="23" y="255"/>
      <point x="59" y="222"/>
    </contour>
    <contour>
      <point x="115" y="260" type="curve"/>
      <point x="86" y="260"/>
      <point x="69" y="277"/>
      <point x="69" y="305" type="curve"/>
      <point x="69" y="336"/>
      <point x="89" y="358"/>
      <point x="119" y="358" type="curve"/>
      <point x="147" y="358"/>
      <point x="164" y="340"/>
      <point x="164" y="313" type="curve"/>
      <point x="164" y="282"/>
      <point x="144" y="260"/>
    </contour>
    <contour>
      <point x="311" y="-4" type="curve"/>
      <point x="366" y="-4"/>
      <point x="407" y="35"/>
      <point x="407" y="88" type="curve"/>
      <point x="407" y="137"/>
      <point x="372" y="170"/>
      <point x="318" y="170" type="curve"/>
      <point x="261" y="170"/>
      <point x="221" y="132"/>
      <point x="221" y="79" type="curve"/>
      <point x="221" y="29"/>
      <point x="256" y="-4"/>
    </contour>
    <contour>
      <point x="312" y="34" type="curve"/>
      <point x="284" y="34"/>
      <point x="266" y="51"/>
      <point x="266" y="79" type="curve"/>
      <point x="266" y="110"/>
      <point x="287" y="132"/>
      <point x="317" y="132" type="curve"/>
      <point x="344" y="132"/>
      <point x="362" y="115"/>
      <point x="362" y="87" type="curve"/>
      <point x="362" y="56"/>
      <point x="342" y="34"/>
    </contour>
  </outline>
</glyph>
<glyph name="ampersand" format="1">
  <advance width="439"/>
  <unicode hex="0026"/>
  <outline>
    <contour>
      <point x="171" y="-4" type="curve"/>
      <point x="284" y="-4"/>
      <point x="366" y="75"/>
      <point x="371" y="201" type="curve"/>
      <point x="319" y="201" type="line"/>
      <point x="314" y="102"/>
      <point x="260" y="45"/>
      <point x="182" y="45" type="curve"/>
      <point x="128" y="45"/>
      <point x="92" y="73"/>
      <point x="92" y="117" type="curve"/>
      <point x="92" y="225"/>
      <point x="257" y="197"/>
      <point x="257" y="316" type="curve"/>
      <point x="257" y="365"/>
      <point x="219" y="397"/>
      <point x="161" y="397" type="curve"/>
      <point x="100" y="397"/>
      <point x="56" y="359"/>
      <point x="56" y="305" type="curve"/>
      <point x="56" y="274"/>
      <point x="69" y="249"/>
      <point x="98" y="218" type="curve"/>
      <point x="267" y="44" type="line" smooth="yes"/>
      <point x="299" y="10"/>
      <point x="330" y="-4"/>
      <point x="369" y="-4" type="curve"/>
      <point x="394" y="-5"/>
      <point x="413" y="1"/>
      <point x="430" y="13" type="curve"/>
      <point x="415" y="56" type="line"/>
      <point x="403" y="49"/>
      <point x="392" y="46"/>
      <point x="380" y="46" type="curve"/>
      <point x="354" y="46"/>
      <point x="335" y="56"/>
      <point x="309" y="82" type="curve"/>
      <point x="157" y="241" type="line" smooth="yes"/>
      <point x="125" y="274"/>
      <point x="116" y="288"/>
      <point x="116" y="307" type="curve"/>
      <point x="116" y="334"/>
      <point x="135" y="352"/>
      <point x="162" y="352" type="curve"/>
      <point x="187" y="352"/>
      <point x="203" y="339"/>
      <point x="203" y="314" type="curve"/>
      <point x="203" y="236"/>
      <point x="28" y="243"/>
      <point x="28" y="111" type="curve"/>
      <point x="28" y="42"/>
      <point x="87" y="-4"/>
    </contour>
    <contour>
      <point x="265" y="233" type="line"/>
      <point x="265" y="183" type="line"/>
      <point x="420" y="183" type="line"/>
      <point x="420" y="233" type="line"/>
    </contour>
  </outline>
</glyph>
<glyph name="quotesingle" format="1">
  <advance width="134"/>
  <unicode hex="0027"/>
  <outline>
    <contour>
      <point x="34" y="391" type="line"/>
      <point x="46" y="230" type="line"/>
      <point x="88" y="230" type="line"/>
      <point x="100" y="391" type="line"/>
    </contour>
  </outline>
</glyph>
<glyph name="parenleft" format="1">
  <advance width="176"/>
  <unicode hex="0028"/>
  <outline>
    <contour>
      <point x="162" y="-117" type="curve"/>
      <point x="188" y="-87" type="line"/>
      <point x="129" y="-35"/>
      <point x="95" y="46"/>
      <point x="95" y="148" type="curve"/>
      <point x="95" y="249"/>
      <point x="129" y="331"/>
      <point x="188" y="382" type="curve"/>
      <point x="162" y="412" type="line"/>
      <point x="73" y="347"/>
      <point x="31" y="254"/>
      <point x="31" y="148" type="curve"/>
      <point x="31" y="42"/>
      <point x="73" y="-51"/>
    </contour>
  </outline>
</glyph>
<glyph name="parenright" format="1">
  <advance width="176"/>
  <unicode hex="0029"/>
  <outline>
    <contour>
      <point x="-11" y="-87" type="curve"/>
      <point x="14" y="-117" type="line"/>
      <point x="104" y="-51"/>
      <point x="146" y="42"/>
      <point x="146" y="148" type="curve"/>
      <point x="146" y="254"/>
      <point x="104" y="347"/>
      <point x="14" y="412" type="curve"/>
      <point x="-11" y="382" type="line"/>
      <point x="47" y="331"/>
      <point x="81" y="249"/>
      <point x="81" y="148" type="curve"/>
      <point x="81" y="46"/>
      <point x="47" y="-35"/>
    </contour>
  </outline>
</glyph>
<glyph name="asterisk" format="1">
  <advance width="265"/>
  <unicode hex="002A"/>
  <outline>
    <contour>
      <point x="225" y="273" type="curve"/>
      <point x="210" y="282"/>
      <point x="192" y="281"/>
      <point x="159" y="293" type="curve"/>
      <point x="192" y="305"/>
      <point x="210" y="305"/>
      <point x="225" y="314" type="curve"/>
      <point x="241" y="323"/>
      <point x="245" y="338"/>
      <point x="237" y="353" type="curve"/>
      <point x="228" y="367"/>
      <point x="212" y="371"/>
      <point x="196" y="362" type="curve"/>
      <point x="181" y="353"/>
      <point x="172" y="337"/>
      <point x="146" y="315" type="curve"/>
      <point x="152" y="349"/>
      <point x="161" y="365"/>
      <point x="161" y="382" type="curve"/>
      <point x="161" y="400"/>
      <point x="150" y="412"/>
      <point x="133" y="412" type="curve"/>
      <point x="115" y="412"/>
      <point x="104" y="400"/>
      <point x="104" y="382" type="curve"/>
      <point x="104" y="365"/>
      <point x="114" y="349"/>
      <point x="119" y="316" type="curve"/>
      <point x="93" y="337"/>
      <point x="85" y="353"/>
      <point x="69" y="362" type="curve"/>
      <point x="53" y="371"/>
      <point x="37" y="367"/>
      <point x="29" y="353" type="curve"/>
      <point x="20" y="338"/>
      <point x="24" y="323"/>
      <point x="40" y="314" type="curve"/>
      <point x="56" y="305"/>
      <point x="74" y="305"/>
      <point x="107" y="293" type="curve"/>
      <point x="74" y="281"/>
      <point x="56" y="282"/>
      <point x="40" y="273" type="curve"/>
      <point x="24" y="264"/>
      <point x="20" y="249"/>
      <point x="29" y="234" type="curve"/>
      <point x="37" y="219"/>
      <point x="53" y="216"/>
      <point x="69" y="225" type="curve"/>
      <point x="85" y="234"/>
      <point x="93" y="249"/>
      <point x="119" y="271" type="curve"/>
      <point x="114" y="237"/>
      <point x="104" y="222"/>
      <point x="104" y="204" type="curve"/>
      <point x="104" y="186"/>
      <point x="115" y="175"/>
      <point x="133" y="175" type="curve"/>
      <point x="150" y="175"/>
      <point x="161" y="186"/>
      <point x="161" y="204" type="curve"/>
      <point x="161" y="222"/>
      <point x="152" y="237"/>
      <point x="146" y="271" type="curve"/>
      <point x="172" y="249"/>
      <point x="181" y="234"/>
      <point x="196" y="225" type="curve"/>
      <point x="212" y="216"/>
      <point x="228" y="219"/>
      <point x="237" y="234" type="curve"/>
      <point x="245" y="249"/>
      <point x="241" y="264"/>
    </contour>
  </outline>
</glyph>
<glyph name="plus" format="1">
  <advance width="330"/>
  <unicode hex="002B"/>
  <outline>
    <contour>
      <point x="302" y="111" type="line"/>
      <point x="302" y="166" type="line"/>
      <point x="28" y="166" type="line"/>
      <point x="28" y="111" type="line"/>
    </contour>
    <contour>
      <point x="195" y="276" type="line"/>
      <point x="135" y="276" type="line"/>
      <point x="135" y="0" type="line"/>
      <point x="195" y="0" type="line"/>
    </contour>
  </outline>
</glyph>
<glyph name="comma" format="1">
  <advance width="125"/>
  <unicode hex="002C"/>
  <outline>
    <contour>
      <point x="20" y="-78" type="curve"/>
      <point x="52" y="-78" type="line"/>
      <point x="82" y="-47"/>
      <point x="105" y="1"/>
      <point x="105" y="33" type="curve"/>
      <point x="105" y="61"/>
      <point x="90" y="78"/>
      <point x="63" y="78" type="curve"/>
      <point x="38" y="78"/>
      <point x="21" y="62"/>
      <point x="21" y="41" type="curve"/>
      <point x="21" y="17"/>
      <point x="35" y="5"/>
      <point x="35" y="-22" type="curve"/>
      <point x="35" y="-37"/>
      <point x="30" y="-56"/>
    </contour>
  </outline>
</glyph>
<glyph name="hyphen" format="1">
  <advance width="228"/>
  <unicode hex="002D"/>
  <outline>
    <contour>
      <point x="33" y="167" type="line"/>
      <point x="33" y="114" type="line"/>
      <point x="195" y="114" type="line"/>
      <point x="195" y="167" type="line"/>
    </contour>
  </outline>
</glyph>
<glyph name="period" format="1">
  <advance width="125"/>
  <unicode hex="002E"/>
  <outline>
    <contour>
      <point x="62" y="-5" type="curve"/>
      <point x="89" y="-5"/>
      <point x="106" y="13"/>
      <point x="106" y="37" type="curve"/>
      <point x="106" y="60"/>
      <point x="89" y="78"/>
      <point x="62" y="78" type="curve"/>
      <point x="36" y="78"/>
      <point x="19" y="60"/>
      <point x="19" y="37" type="curve"/>
      <point x="19" y="13"/>
      <point x="36" y="-5"/>
    </contour>
  </outline>
</glyph>
<glyph name="slash" format="1">
  <advance width="193"/>
  <unicode hex="002F"/>
  <outline>
    <contour>
      <point x="138" y="407" type="line"/>
      <point x="0" y="-110" type="line"/>
      <point x="59" y="-110" type="line"/>
      <point x="197" y="407" type="line"/>
    </contour>
  </outline>
</glyph>
<glyph name="zero" format="1">
  <advance width="330"/>
  <unicode hex="0030"/>
  <outline>
    <contour>
      <point x="165" y="-5" type="curve"/>
      <point x="251" y="-4"/>
      <point x="306" y="77"/>
      <point x="306" y="203" type="curve"/>
      <point x="306" y="328"/>
      <point x="256" y="396"/>
      <point x="171" y="396" type="curve"/>
      <point x="81" y="396"/>
      <point x="24" y="312"/>
      <point x="24" y="188" type="curve"/>
      <point x="24" y="57"/>
      <point x="74" y="-5"/>
    </contour>
    <contour>
      <point x="164" y="50" type="curve"/>
      <point x="114" y="50"/>
      <point x="89" y="95"/>
      <point x="89" y="189" type="curve"/>
      <point x="89" y="285"/>
      <point x="120" y="341"/>
      <point x="170" y="341" type="curve"/>
      <point x="216" y="341"/>
      <point x="242" y="293"/>
      <point x="242" y="203" type="curve"/>
      <point x="242" y="102"/>
      <point x="213" y="50"/>
    </contour>
  </outline>
</glyph>
<glyph name="one" format="1">
  <advance width="330"/>
  <unicode hex="0031"/>
  <outline>
    <contour>
      <point x="148" y="334" type="line"/>
      <point x="148" y="30" type="line"/>
      <point x="212" y="30" type="line"/>
      <point x="212" y="391" type="line"/>
      <point x="176" y="391" type="line"/>
      <point x="48" y="304" type="line"/>
      <point x="78" y="260" type="line"/>
      <point x="186" y="334" type="line"/>
    </contour>
    <contour>
      <point x="60" y="50" type="line"/>
      <point x="60" y="0" type="line"/>
      <point x="296" y="0" type="line"/>
      <point x="296" y="50" type="line"/>
    </contour>
  </outline>
</glyph>
<glyph name="two" format="1">
  <advance width="330"/>
  <unicode hex="0032"/>
  <outline>
    <contour>
      <point x="45" y="42" type="curve"/>
      <point x="45" y="0" type="line"/>
      <point x="295" y="0" type="line"/>
      <point x="295" y="50" type="line"/>
      <point x="98" y="50" type="line"/>
      <point x="103" y="33" type="line"/>
      <point x="235" y="129"/>
      <point x="285" y="207"/>
      <point x="285" y="284" type="curve"/>
      <point x="285" y="354"/>
      <point x="236" y="396"/>
      <point x="166" y="396" type="curve"/>
      <point x="99" y="396"/>
      <point x="49" y="356"/>
      <point x="31" y="298" type="curve"/>
      <point x="79" y="275" type="line"/>
      <point x="93" y="317"/>
      <point x="119" y="341"/>
      <point x="160" y="341" type="curve"/>
      <point x="197" y="341"/>
      <point x="220" y="317"/>
      <point x="220" y="278" type="curve"/>
      <point x="220" y="221"/>
      <point x="177" y="146"/>
    </contour>
  </outline>
</glyph>
<glyph name="three" format="1">
  <advance width="330"/>
  <unicode hex="0033"/>
  <outline>
    <contour>
      <point x="143" y="-5" type="curve"/>
      <point x="235" y="-5"/>
      <point x="293" y="41"/>
      <point x="293" y="110" type="curve"/>
      <point x="293" y="161"/>
      <point x="264" y="193"/>
      <point x="213" y="204" type="curve"/>
      <point x="214" y="199" type="line"/>
      <point x="259" y="212"/>
      <point x="285" y="249"/>
      <point x="285" y="293" type="curve"/>
      <point x="285" y="353"/>
      <point x="240" y="396"/>
      <point x="166" y="396" type="curve"/>
      <point x="99" y="396"/>
      <point x="49" y="356"/>
      <point x="31" y="298" type="curve"/>
      <point x="79" y="275" type="line"/>
      <point x="93" y="317"/>
      <point x="119" y="341"/>
      <point x="160" y="341" type="curve"/>
      <point x="199" y="341"/>
      <point x="221" y="319"/>
      <point x="221" y="287" type="curve"/>
      <point x="221" y="248"/>
      <point x="196" y="223"/>
      <point x="143" y="223" type="curve"/>
      <point x="126" y="223" type="line"/>
      <point x="126" y="173" type="line"/>
      <point x="150" y="173" type="line" smooth="yes"/>
      <point x="198" y="173"/>
      <point x="229" y="153"/>
      <point x="229" y="113" type="curve"/>
      <point x="229" y="72"/>
      <point x="198" y="50"/>
      <point x="147" y="50" type="curve"/>
      <point x="108" y="50"/>
      <point x="76" y="60"/>
      <point x="52" y="75" type="curve"/>
      <point x="35" y="22" type="line"/>
      <point x="60" y="5"/>
      <point x="104" y="-5"/>
    </contour>
  </outline>
</glyph>
<glyph name="four" format="1">
  <advance width="330"/>
  <unicode hex="0034"/>
  <outline>
    <contour>
      <point x="198" y="312" type="line"/>
      <point x="198" y="0" type="line"/>
      <point x="260" y="0" type="line"/>
      <point x="260" y="392" type="line"/>
      <point x="216" y="392" type="line"/>
      <point x="22" y="147" type="line"/>
      <point x="22" y="104" type="line"/>
      <point x="315" y="104" type="line"/>
      <point x="315" y="154" type="line"/>
      <point x="71" y="154" type="line"/>
      <point x="76" y="138" type="line"/>
      <point x="212" y="313" type="line"/>
    </contour>
  </outline>
</glyph>
<glyph name="five" format="1">
  <advance width="330"/>
  <unicode hex="0035"/>
  <outline>
    <contour>
      <point x="143" y="-5" type="curve"/>
      <point x="235" y="-5"/>
      <point x="293" y="42"/>
      <point x="293" y="114" type="curve"/>
      <point x="293" y="182"/>
      <point x="241" y="224"/>
      <point x="132" y="227" type="curve"/>
      <point x="98" y="229" type="line"/>
      <point x="124" y="211" type="line"/>
      <point x="134" y="359" type="line"/>
      <point x="103" y="341" type="line"/>
      <point x="274" y="341" type="line"/>
      <point x="274" y="392" type="line"/>
      <point x="74" y="392" type="line"/>
      <point x="59" y="178" type="line"/>
      <point x="118" y="176" type="line" smooth="yes"/>
      <point x="203" y="173"/>
      <point x="229" y="150"/>
      <point x="229" y="112" type="curve"/>
      <point x="229" y="72"/>
      <point x="199" y="50"/>
      <point x="147" y="50" type="curve"/>
      <point x="108" y="50"/>
      <point x="76" y="60"/>
      <point x="52" y="75" type="curve"/>
      <point x="35" y="22" type="line"/>
      <point x="60" y="5"/>
      <point x="104" y="-5"/>
    </contour>
  </outline>
</glyph>
<glyph name="six" format="1">
  <advance width="330"/>
  <unicode hex="0036"/>
  <outline>
    <contour>
      <point x="177" y="-5" type="curve"/>
      <point x="257" y="-5"/>
      <point x="312" y="52"/>
      <point x="312" y="128" type="curve"/>
      <point x="312" y="202"/>
      <point x="260" y="247"/>
      <point x="194" y="247" type="curve"/>
      <point x="140" y="247"/>
      <point x="98" y="215"/>
      <point x="84" y="164" type="curve"/>
      <point x="97" y="152" type="line"/>
      <point x="97" y="194" type="line" smooth="yes"/>
      <point x="97" y="292"/>
      <point x="136" y="341"/>
      <point x="189" y="341" type="curve"/>
      <point x="224" y="341"/>
      <point x="246" y="325"/>
      <point x="260" y="286" type="curve"/>
      <point x="313" y="310" type="line"/>
      <point x="292" y="367"/>
      <point x="251" y="396"/>
      <point x="192" y="396" type="curve"/>
      <point x="98" y="396"/>
      <point x="34" y="313"/>
      <point x="34" y="183" type="curve"/>
      <point x="34" y="58"/>
      <point x="85" y="-5"/>
    </contour>
    <contour>
      <point x="177" y="46" type="curve"/>
      <point x="135" y="46"/>
      <point x="106" y="73"/>
      <point x="106" y="119" type="curve"/>
      <point x="106" y="164"/>
      <point x="137" y="196"/>
      <point x="180" y="196" type="curve"/>
      <point x="222" y="196"/>
      <point x="248" y="167"/>
      <point x="248" y="123" type="curve"/>
      <point x="248" y="79"/>
      <point x="220" y="46"/>
    </contour>
  </outline>
</glyph>
<glyph name="seven" format="1">
  <advance width="330"/>
  <unicode hex="0037"/>
  <outline>
    <contour>
      <point x="65" y="0" type="line"/>
      <point x="133" y="0" type="line"/>
      <point x="296" y="342" type="line"/>
      <point x="296" y="391" type="line"/>
      <point x="41" y="391" type="line"/>
      <point x="41" y="340" type="line"/>
      <point x="248" y="340" type="line"/>
      <point x="239" y="359" type="line"/>
    </contour>
  </outline>
</glyph>
<glyph name="eight" format="1">
  <advance width="330"/>
  <unicode hex="0038"/>
  <outline>
    <contour>
      <point x="165" y="-5" type="curve"/>
      <point x="252" y="-5"/>
      <point x="307" y="37"/>
      <point x="307" y="102" type="curve"/>
      <point x="307" y="154"/>
      <point x="267" y="196"/>
      <point x="211" y="204" type="curve"/>
      <point x="214" y="193" type="line"/>
      <point x="265" y="204"/>
      <point x="297" y="240"/>
      <point x="297" y="288" type="curve"/>
      <point x="297" y="350"/>
      <point x="242" y="396"/>
      <point x="165" y="396" type="curve"/>
      <point x="88" y="396"/>
      <point x="33" y="350"/>
      <point x="33" y="288" type="curve"/>
      <point x="33" y="240"/>
      <point x="65" y="204"/>
      <point x="116" y="193" type="curve"/>
      <point x="119" y="204" type="line"/>
      <point x="63" y="196"/>
      <point x="23" y="154"/>
      <point x="23" y="102" type="curve"/>
      <point x="23" y="37"/>
      <point x="78" y="-5"/>
    </contour>
    <contour>
      <point x="165" y="46" type="curve"/>
      <point x="117" y="46"/>
      <point x="88" y="70"/>
      <point x="88" y="108" type="curve"/>
      <point x="88" y="147"/>
      <point x="119" y="173"/>
      <point x="165" y="173" type="curve"/>
      <point x="211" y="173"/>
      <point x="242" y="147"/>
      <point x="242" y="108" type="curve"/>
      <point x="242" y="70"/>
      <point x="213" y="46"/>
    </contour>
    <contour>
      <point x="165" y="222" type="curve"/>
      <point x="124" y="222"/>
      <point x="97" y="245"/>
      <point x="97" y="282" type="curve"/>
      <point x="97" y="320"/>
      <point x="125" y="345"/>
      <point x="165" y="345" type="curve"/>
      <point x="205" y="345"/>
      <point x="233" y="320"/>
      <point x="233" y="282" type="curve"/>
      <point x="233" y="245"/>
      <point x="206" y="222"/>
    </contour>
  </outline>
</glyph>
<glyph name="less" format="1">
  <advance width="330"/>
  <unicode hex="003C"/>
  <outline>
    <contour>
      <point x="31" y="160" type="line"/>
      <point x="31" y="116" type="line"/>
      <point x="299" y="-4" type="line"/>
      <point x="299" y="52" type="line"/>
      <point x="72" y="153" type="line"/>
      <point x="72" y="123" type="line"/>
      <point x="299" y="224" type="line"/>
      <point x="299" y="280" type="line"/>
    </contour>
  </outline>
</glyph>
<glyph name="equal" format="1">
  <advance width="330"/>
  <unicode hex="003D"/>
  <outline>
    <contour>
      <point x="302" y="54" type="line"/>
      <point x="302" y="104" type="line"/>
      <point x="28" y="104" type="line"/>
      <point x="28" y="54" type="line"/>
    </contour>
    <contour>
      <point x="302" y="173" type="line"/>
      <point x="302" y="223" type="line"/>
      <point x="28" y="223" type="line"/>
      <point x="28" y="173" type="line"/>
    </contour>
  </outline>
</glyph>
<glyph name="greater" format="1">
  <advance width="330"/>
  <unicode hex="003E"/>
  <outline>
    <contour>
      <point x="31" y="-4" type="line"/>
      <point x="299" y="116" type="line"/>
      <point x="299" y="160" type="line"/>
      <point x="31" y="280" type="line"/>
      <point x="31" y="224" type="line"/>
      <point x="258" y="123" type="line"/>
      <point x="258" y="153" type="line"/>
      <point x="31" y="52" type="line"/>
    </contour>
  </outline>
</glyph>
<glyph name="question" format="1">
  <advance width="281"/>
  <unicode hex="003F"/>
  <outline>
    <contour>
      <point x="119" y="-5" type="curve"/>
      <point x="143" y="-5"/>
      <point x="160" y="11"/>
      <point x="160" y="33" type="curve"/>
      <point x="160" y="56"/>
      <point x="143" y="72"/>
      <point x="119" y="72" type="curve"/>
      <point x="95" y="72"/>
      <point x="78" y="56"/>
      <point x="78" y="33" type="curve"/>
      <point x="78" y="11"/>
      <point x="95" y="-5"/>
    </contour>
    <contour>
      <point x="96" y="112" type="curve"/>
      <point x="143" y="110" type="line"/>
      <point x="145" y="145"/>
      <point x="157" y="167"/>
      <point x="192" y="195" type="curve"/>
      <point x="234" y="230"/>
      <point x="252" y="258"/>
      <point x="252" y="300" type="curve"/>
      <point x="252" y="357"/>
      <point x="204" y="396"/>
      <point x="137" y="396" type="curve"/>
      <point x="73" y="396"/>
      <point x="20" y="358"/>
      <point x="2" y="298" type="curve"/>
      <point x="50" y="275" type="line"/>
      <point x="64" y="318"/>
      <point x="92" y="341"/>
      <point x="131" y="341" type="curve"/>
      <point x="167" y="341"/>
      <point x="188" y="324"/>
      <point x="188" y="296" type="curve"/>
      <point x="188" y="273"/>
      <point x="177" y="258"/>
      <point x="145" y="229" type="curve"/>
      <point x="106" y="198"/>
      <point x="92" y="165"/>
    </contour>
  </outline>
</glyph>
<glyph name="at" format="1">
  <advance width="543"/>
  <unicode hex="0040"/>
  <outline>
    <contour>
      <point x="281" y="-117" type="curve"/>
      <point x="346" y="-117"/>
      <point x="404" y="-99"/>
      <point x="443" y="-68" type="curve"/>
      <point x="412" y="-26" type="line"/>
      <point x="380" y="-52"/>
      <point x="331" y="-68"/>
      <point x="282" y="-68" type="curve"/>
      <point x="156" y="-68"/>
      <point x="83" y="7"/>
      <point x="83" y="137" type="curve"/>
      <point x="83" y="265"/>
      <point x="163" y="351"/>
      <point x="284" y="351" type="curve"/>
      <point x="395" y="351"/>
      <point x="465" y="289"/>
      <point x="465" y="191" type="curve"/>
      <point x="465" y="118"/>
      <point x="440" y="64"/>
      <point x="407" y="64" type="curve"/>
      <point x="387" y="64"/>
      <point x="378" y="81"/>
      <point x="384" y="111" type="curve"/>
      <point x="412" y="271" type="line"/>
      <point x="374" y="276" type="line"/>
      <point x="357" y="237" type="line"/>
      <point x="371" y="253" type="line"/>
      <point x="356" y="270"/>
      <point x="325" y="281"/>
      <point x="293" y="281" type="curve"/>
      <point x="209" y="281"/>
      <point x="142" y="207"/>
      <point x="142" y="114" type="curve"/>
      <point x="142" y="53"/>
      <point x="176" y="17"/>
      <point x="233" y="17" type="curve"/>
      <point x="286" y="17"/>
      <point x="331" y="54"/>
      <point x="350" y="114" type="curve"/>
      <point x="331" y="108" type="line"/>
      <point x="319" y="52"/>
      <point x="344" y="17"/>
      <point x="397" y="17" type="curve"/>
      <point x="466" y="17"/>
      <point x="517" y="90"/>
      <point x="517" y="191" type="curve"/>
      <point x="517" y="319"/>
      <point x="428" y="399"/>
      <point x="284" y="399" type="curve"/>
      <point x="131" y="399"/>
      <point x="26" y="292"/>
      <point x="26" y="137" type="curve"/>
      <point x="26" y="-20"/>
      <point x="124" y="-117"/>
    </contour>
    <contour>
      <point x="248" y="66" type="curve"/>
      <point x="218" y="66"/>
      <point x="203" y="84"/>
      <point x="203" y="118" type="curve"/>
      <point x="203" y="180"/>
      <point x="244" y="232"/>
      <point x="296" y="232" type="curve"/>
      <point x="323" y="232"/>
      <point x="341" y="224"/>
      <point x="354" y="206" type="curve"/>
      <point x="348" y="231" type="line"/>
      <point x="335" y="163" type="line" smooth="yes"/>
      <point x="324" y="103"/>
      <point x="289" y="66"/>
    </contour>
  </outline>
</glyph>
<glyph name="A" format="1">
  <advance width="377"/>
  <unicode hex="0041"/>
  <outline>
    <contour>
      <point x="163" y="391" type="line"/>
      <point x="-3" y="0" type="line"/>
      <point x="64" y="0" type="line"/>
      <point x="202" y="340" type="line"/>
      <point x="178" y="341" type="line"/>
      <point x="311" y="0" type="line"/>
      <point x="378" y="0" type="line"/>
      <point x="219" y="391" type="line"/>
    </contour>
    <contour>
      <point x="102" y="147" type="line"/>
      <point x="77" y="93" type="line"/>
      <point x="304" y="93" type="line"/>
      <point x="279" y="147" type="line"/>
    </contour>
    <contour>
      <point x="189" y="0" type="move" name="bottom"/>
    </contour>
    <contour>
      <point x="378" y="0" type="move" name="ogonek"/>
    </contour>
    <contour>
      <point x="189" y="391" type="move" name="top"/>
    </contour>
  </outline>
</glyph>
<glyph name="B" format="1">
  <advance width="346"/>
  <unicode hex="0042"/>
  <outline>
    <contour>
      <point x="41" y="391" type="line"/>
      <point x="41" y="0" type="line"/>
      <point x="186" y="0" type="line" smooth="yes"/>
      <point x="273" y="0"/>
      <point x="326" y="42"/>
      <point x="326" y="111" type="curve"/>
      <point x="326" y="157"/>
      <point x="295" y="192"/>
      <point x="249" y="203" type="curve"/>
      <point x="249" y="193" type="line"/>
      <point x="295" y="205"/>
      <point x="320" y="241"/>
      <point x="320" y="285" type="curve"/>
      <point x="320" y="354"/>
      <point x="267" y="391"/>
      <point x="166" y="391" type="curve"/>
    </contour>
    <contour>
      <point x="185" y="52" type="curve"/>
      <point x="106" y="52" type="line"/>
      <point x="106" y="338" type="line"/>
      <point x="167" y="338" type="line" smooth="yes"/>
      <point x="227" y="338"/>
      <point x="254" y="321"/>
      <point x="254" y="282" type="curve"/>
      <point x="254" y="241"/>
      <point x="226" y="223"/>
      <point x="168" y="223" type="curve"/>
      <point x="98" y="223" type="line"/>
      <point x="98" y="170" type="line"/>
      <point x="183" y="170" type="line" smooth="yes"/>
      <point x="235" y="170"/>
      <point x="260" y="151"/>
      <point x="260" y="111" type="curve"/>
      <point x="260" y="70"/>
      <point x="231" y="52"/>
    </contour>
    <contour>
      <point x="188" y="0" type="move" name="bottom"/>
    </contour>
    <contour>
      <point x="188" y="392" type="move" name="top"/>
    </contour>
  </outline>
</glyph>
<glyph name="C" format="1">
  <advance width="365"/>
  <unicode hex="0043"/>
  <outline>
    <contour>
      <point x="368" y="76" type="curve"/>
      <point x="319" y="113" type="line"/>
      <point x="297" y="73"/>
      <point x="259" y="53"/>
      <point x="216" y="53" type="curve"/>
      <point x="139" y="53"/>
      <point x="94" y="103"/>
      <point x="94" y="189" type="curve"/>
      <point x="94" y="277"/>
      <point x="147" y="338"/>
      <point x="223" y="338" type="curve"/>
      <point x="264" y="338"/>
      <point x="298" y="321"/>
      <point x="318" y="284" type="curve"/>
      <point x="369" y="319" type="line"/>
      <point x="337" y="370"/>
      <point x="290" y="396"/>
      <point x="224" y="396" type="curve"/>
      <point x="106" y="396"/>
      <point x="26" y="311"/>
      <point x="26" y="188" type="curve"/>
      <point x="26" y="68"/>
      <point x="97" y="-5"/>
      <point x="215" y="-5" type="curve"/>
      <point x="282" y="-5"/>
      <point x="338" y="24"/>
    </contour>
    <contour>
      <point x="214" y="0" type="move" name="bottom"/>
    </contour>
    <contour>
      <point x="214" y="391" type="move" name="top"/>
    </contour>
  </outline>
</glyph>
<glyph name="D" format="1">
  <advance width="410"/>
  <unicode hex="0044"/>
  <outline>
    <contour>
      <point x="41" y="391" type="line"/>
      <point x="41" y="0" type="line"/>
      <point x="173" y="0" type="line" smooth="yes"/>
      <point x="302" y="0"/>
      <point x="384" y="77"/>
      <point x="384" y="197" type="curve"/>
      <point x="384" y="325"/>
      <point x="306" y="391"/>
      <point x="154" y="391" type="curve"/>
    </contour>
    <contour>
      <point x="171" y="57" type="curve"/>
      <point x="107" y="57" type="line"/>
      <point x="107" y="334" type="line"/>
      <point x="163" y="334" type="line" smooth="yes"/>
      <point x="267" y="334"/>
      <point x="316" y="288"/>
      <point x="316" y="194" type="curve"/>
      <point x="316" y="104"/>
      <point x="266" y="57"/>
    </contour>
    <contour>
      <point x="203" y="0" type="move" name="bottom"/>
    </contour>
    <contour>
      <point x="203" y="197" type="move" name="center"/>
    </contour>
    <contour>
      <point x="74" y="198" type="move" name="stroke"/>
    </contour>
    <contour>
      <point x="203" y="391" type="move" name="top"/>
    </contour>
  </outline>
</glyph>
<glyph name="E" format="1">
  <advance width="308"/>
  <unicode hex="0045"/>
  <outline>
    <contour>
      <point x="106" y="336" type="line"/>
      <point x="288" y="336" type="line"/>
      <point x="288" y="391" type="line"/>
      <point x="41" y="391" type="line"/>
      <point x="41" y="0" type="line"/>
      <point x="290" y="0" type="line"/>
      <point x="295" y="55" type="line"/>
      <point x="106" y="55" type="line"/>
      <point x="106" y="170" type="line"/>
      <point x="280" y="170" type="line"/>
      <point x="280" y="225" type="line"/>
      <point x="106" y="225" type="line"/>
    </contour>
    <contour>
      <point x="164" y="0" type="move" name="bottom"/>
    </contour>
    <contour>
      <point x="290" y="0" type="move" name="ogonek"/>
    </contour>
    <contour>
      <point x="164" y="391" type="move" name="top"/>
    </contour>
    <contour>
      <point x="5" y="391" type="move" name="topleft"/>
    </contour>
  </outline>
</glyph>
<glyph name="F" format="1">
  <advance width="280"/>
  <unicode hex="0046"/>
  <outline>
    <contour>
      <point x="106" y="336" type="line"/>
      <point x="276" y="336" type="line"/>
      <point x="276" y="391" type="line"/>
      <point x="41" y="391" type="line"/>
      <point x="41" y="0" type="line"/>
      <point x="106" y="0" type="line"/>
      <point x="106" y="164" type="line"/>
      <point x="268" y="164" type="line"/>
      <point x="268" y="219" type="line"/>
      <point x="106" y="219" type="line"/>
    </contour>
    <contour>
      <point x="159" y="0" type="move" name="bottom"/>
    </contour>
    <contour>
      <point x="159" y="391" type="move" name="top"/>
    </contour>
  </outline>
</glyph>
<glyph name="G" format="1">
  <advance width="411"/>
  <unicode hex="0047"/>
  <outline>
    <contour>
      <point x="382" y="200" type="line"/>
      <point x="230" y="200" type="line"/>
      <point x="230" y="148" type="line"/>
      <point x="333" y="148" type="line"/>
      <point x="318" y="181" type="line"/>
      <point x="318" y="140" type="line" smooth="yes"/>
      <point x="318" y="84"/>
      <point x="270" y="53"/>
      <point x="214" y="53" type="curve"/>
      <point x="140" y="53"/>
      <point x="95" y="102"/>
      <point x="95" y="189" type="curve"/>
      <point x="95" y="277"/>
      <point x="148" y="337"/>
      <point x="230" y="337" type="curve"/>
      <point x="273" y="337"/>
      <point x="308" y="320"/>
      <point x="328" y="284" type="curve"/>
      <point x="379" y="320" type="line"/>
      <point x="347" y="370"/>
      <point x="299" y="396"/>
      <point x="232" y="396" type="curve"/>
      <point x="107" y="396"/>
      <point x="26" y="311"/>
      <point x="26" y="188" type="curve"/>
      <point x="26" y="67"/>
      <point x="97" y="-5"/>
      <point x="208" y="-5" type="curve"/>
      <point x="264" y="-5"/>
      <point x="308" y="14"/>
      <point x="333" y="58" type="curve"/>
      <point x="322" y="59" type="line"/>
      <point x="330" y="0" type="line"/>
      <point x="382" y="0" type="line"/>
    </contour>
    <contour>
      <point x="214" y="0" type="move" name="bottom"/>
    </contour>
    <contour>
      <point x="214" y="391" type="move" name="top"/>
    </contour>
  </outline>
</glyph>
<glyph name="H" format="1">
  <advance width="406"/>
  <unicode hex="0048"/>
  <outline>
    <contour>
      <point x="298" y="391" type="line"/>
      <point x="298" y="0" type="line"/>
      <point x="365" y="0" type="line"/>
      <point x="365" y="391" type="line"/>
    </contour>
    <contour>
      <point x="41" y="391" type="line"/>
      <point x="41" y="0" type="line"/>
      <point x="107" y="0" type="line"/>
      <point x="107" y="391" type="line"/>
    </contour>
    <contour>
      <point x="72" y="226" type="line"/>
      <point x="72" y="170" type="line"/>
      <point x="339" y="170" type="line"/>
      <point x="339" y="226" type="line"/>
    </contour>
    <contour>
      <point x="203" y="0" type="move" name="bottom"/>
    </contour>
    <contour>
      <point x="203" y="314" type="move" name="center"/>
    </contour>
    <contour>
      <point x="203" y="391" type="move" name="top"/>
    </contour>
    <contour>
      <point x="5" y="391" type="move" name="topleft"/>
    </contour>
  </outline>
</glyph>
<glyph name="I" format="1">
  <advance width="148"/>
  <unicode hex="0049"/>
  <outline>
    <contour>
      <point x="41" y="391" type="line"/>
      <point x="41" y="0" type="line"/>
      <point x="107" y="0" type="line"/>
      <point x="107" y="391" type="line"/>
    </contour>
    <contour>
      <point x="74" y="0" type="move" name="bottom"/>
    </contour>
    <contour>
      <point x="107" y="0" type="move" name="ogonek"/>
    </contour>
    <contour>
      <point x="74" y="391" type="move" name="top"/>
    </contour>
    <contour>
      <point x="5" y="391" type="move" name="topleft"/>
    </contour>
  </outline>
</glyph>
<glyph name="J" format="1">
  <advance width="261"/>
  <unicode hex="004A"/>
  <outline>
    <contour>
      <point x="103" y="-5" type="curve"/>
      <point x="181" y="-5"/>
      <point x="221" y="41"/>
      <point x="221" y="122" type="curve"/>
      <point x="221" y="391" type="line"/>
      <point x="155" y="391" type="line"/>
      <point x="155" y="117" type="line" smooth="yes"/>
      <point x="155" y="72"/>
      <point x="137" y="51"/>
      <point x="104" y="51" type="curve"/>
      <point x="72" y="51"/>
      <point x="53" y="66"/>
      <point x="42" y="98" type="curve"/>
      <point x="-12" y="75" type="line"/>
      <point x="1" y="24"/>
      <point x="45" y="-5"/>
    </contour>
    <contour>
      <point x="130" y="0" type="move" name="bottom"/>
    </contour>
    <contour>
      <point x="188" y="391" type="move" name="top"/>
    </contour>
  </outline>
</glyph>
<glyph name="K" format="1">
  <advance width="340"/>
  <unicode hex="004B"/>
  <outline>
    <contour>
      <point x="41" y="391" type="line"/>
      <point x="41" y="0" type="line"/>
      <point x="107" y="0" type="line"/>
      <point x="107" y="391" type="line"/>
    </contour>
    <contour>
      <point x="354" y="12" type="curve"/>
      <point x="339" y="61" type="line"/>
      <point x="329" y="55"/>
      <point x="318" y="52"/>
      <point x="305" y="52" type="curve"/>
      <point x="283" y="52"/>
      <point x="271" y="59"/>
      <point x="254" y="85" type="curve"/>
      <point x="207" y="159" type="line" smooth="yes"/>
      <point x="189" y="187"/>
      <point x="163" y="204"/>
      <point x="133" y="204" type="curve"/>
      <point x="156" y="184" type="line"/>
      <point x="353" y="391" type="line"/>
      <point x="273" y="391" type="line"/>
      <point x="87" y="194" type="line"/>
      <point x="87" y="168" type="line"/>
      <point x="117" y="168"/>
      <point x="130" y="160"/>
      <point x="143" y="141" type="curve"/>
      <point x="203" y="48" type="line" smooth="yes"/>
      <point x="226" y="12"/>
      <point x="257" y="-4"/>
      <point x="296" y="-4" type="curve"/>
      <point x="319" y="-4"/>
      <point x="340" y="2"/>
    </contour>
    <contour>
      <point x="174" y="0" type="move" name="bottom"/>
    </contour>
    <contour>
      <point x="174" y="391" type="move" name="top"/>
    </contour>
  </outline>
</glyph>
<glyph name="L" format="1">
  <advance width="280"/>
  <unicode hex="004C"/>
  <outline>
    <contour>
      <point x="41" y="391" type="line"/>
      <point x="41" y="0" type="line"/>
      <point x="278" y="0" type="line"/>
      <point x="283" y="56" type="line"/>
      <point x="107" y="56" type="line"/>
      <point x="107" y="391" type="line"/>
    </contour>
    <contour>
      <point x="160" y="0" type="move" name="bottom"/>
    </contour>
    <contour>
      <point x="74" y="200" type="move" name="center"/>
    </contour>
    <contour>
      <point x="224" y="229" type="move" name="dotacc"/>
    </contour>
    <contour>
      <point x="74" y="391" type="move" name="top"/>
    </contour>
    <contour>
      <point x="162" y="391" type="move" name="topright"/>
    </contour>
  </outline>
</glyph>
<glyph name="M" format="1">
  <advance width="512"/>
  <unicode hex="004D"/>
  <outline>
    <contour>
      <point x="54" y="391" type="line"/>
      <point x="38" y="0" type="line"/>
      <point x="100" y="0" type="line"/>
      <point x="114" y="348" type="line"/>
      <point x="81" y="319" type="line"/>
      <point x="229" y="0" type="line"/>
      <point x="280" y="0" type="line"/>
      <point x="432" y="325" type="line"/>
      <point x="397" y="348" type="line"/>
      <point x="409" y="0" type="line"/>
      <point x="472" y="0" type="line"/>
      <point x="460" y="391" type="line"/>
      <point x="401" y="391" type="line"/>
      <point x="237" y="39" type="line"/>
      <point x="277" y="39" type="line"/>
      <point x="112" y="391" type="line"/>
    </contour>
    <contour>
      <point x="254" y="0" type="move" name="bottom"/>
    </contour>
    <contour>
      <point x="254" y="391" type="move" name="top"/>
    </contour>
  </outline>
</glyph>
<glyph name="N" format="1">
  <advance width="404"/>
  <unicode hex="004E"/>
  <outline>
    <contour>
      <point x="363" y="391" type="line"/>
      <point x="299" y="391" type="line"/>
      <point x="299" y="60" type="line"/>
      <point x="325" y="71" type="line"/>
      <point x="99" y="391" type="line"/>
      <point x="41" y="391" type="line"/>
      <point x="41" y="0" type="line"/>
      <point x="105" y="0" type="line"/>
      <point x="105" y="331" type="line"/>
      <point x="79" y="320" type="line"/>
      <point x="305" y="0" type="line"/>
      <point x="363" y="0" type="line"/>
    </contour>
    <contour>
      <point x="202" y="0" type="move" name="bottom"/>
    </contour>
    <contour>
      <point x="202" y="391" type="move" name="top"/>
    </contour>
  </outline>
</glyph>
<glyph name="O" format="1">
  <advance width="426"/>
  <unicode hex="004F"/>
  <outline>
    <contour>
      <point x="213" y="-5" type="curve"/>
      <point x="321" y="-4"/>
      <point x="400" y="76"/>
      <point x="400" y="203" type="curve"/>
      <point x="400" y="319"/>
      <point x="329" y="396"/>
      <point x="221" y="396" type="curve"/>
      <point x="103" y="396"/>
      <point x="26" y="310"/>
      <point x="26" y="188" type="curve"/>
      <point x="26" y="66"/>
      <point x="96" y="-5"/>
    </contour>
    <contour>
      <point x="211" y="53" type="curve"/>
      <point x="138" y="53"/>
      <point x="93" y="102"/>
      <point x="93" y="189" type="curve"/>
      <point x="93" y="279"/>
      <point x="146" y="339"/>
      <point x="221" y="339" type="curve"/>
      <point x="289" y="339"/>
      <point x="333" y="286"/>
      <point x="333" y="203" type="curve"/>
      <point x="333" y="108"/>
      <point x="283" y="53"/>
    </contour>
    <contour>
      <point x="213" y="0" type="move" name="bottom"/>
    </contour>
    <contour>
      <point x="213" y="195" type="move" name="center"/>
    </contour>
    <contour>
      <point x="261" y="0" type="move" name="ogonek"/>
    </contour>
    <contour>
      <point x="213" y="391" type="move" name="top"/>
    </contour>
    <contour>
      <point x="9" y="391" type="move" name="topleft"/>
    </contour>
    <contour>
      <point x="314" y="391" type="move" name="topright"/>
    </contour>
  </outline>
</glyph>
<glyph name="P" format="1">
  <advance width="341"/>
  <unicode hex="0050"/>
  <outline>
    <contour>
      <point x="41" y="0" type="line"/>
      <point x="106" y="0" type="line"/>
      <point x="106" y="338" type="line"/>
      <point x="173" y="338" type="line" smooth="yes"/>
      <point x="236" y="338"/>
      <point x="264" y="319"/>
      <point x="264" y="271" type="curve"/>
      <point x="264" y="224"/>
      <point x="235" y="201"/>
      <point x="166" y="201" type="curve"/>
      <point x="92" y="201" type="line"/>
      <point x="92" y="148" type="line"/>
      <point x="162" y="148" type="line" smooth="yes"/>
      <point x="273" y="148"/>
      <point x="330" y="195"/>
      <point x="330" y="272" type="curve"/>
      <point x="330" y="349"/>
      <point x="276" y="391"/>
      <point x="176" y="391" type="curve"/>
      <point x="41" y="391" type="line"/>
    </contour>
    <contour>
      <point x="170" y="0" type="move" name="bottom"/>
    </contour>
    <contour>
      <point x="170" y="391" type="move" name="top"/>
    </contour>
  </outline>
</glyph>
<glyph name="Q" format="1">
  <advance width="426"/>
  <unicode hex="0051"/>
  <outline>
    <contour>
      <point x="240" y="34" type="line"/>
      <point x="176" y="34" type="line"/>
      <point x="176" y="-2" type="line" smooth="yes"/>
      <point x="176" y="-74"/>
      <point x="217" y="-115"/>
      <point x="287" y="-115" type="curve"/>
      <point x="339" y="-115"/>
      <point x="376" y="-88"/>
      <point x="382" y="-37" type="curve"/>
      <point x="329" y="-31" type="line"/>
      <point x="326" y="-51"/>
      <point x="310" y="-64"/>
      <point x="288" y="-64" type="curve"/>
      <point x="255" y="-64"/>
      <point x="240" y="-46"/>
      <point x="240" y="-5" type="curve"/>
    </contour>
    <contour>
      <point x="213" y="-5" type="curve"/>
      <point x="321" y="-4"/>
      <point x="400" y="76"/>
      <point x="400" y="203" type="curve"/>
      <point x="400" y="319"/>
      <point x="329" y="396"/>
      <point x="221" y="396" type="curve"/>
      <point x="103" y="396"/>
      <point x="26" y="310"/>
      <point x="26" y="188" type="curve"/>
      <point x="26" y="66"/>
      <point x="96" y="-5"/>
    </contour>
    <contour>
      <point x="211" y="53" type="curve"/>
      <point x="138" y="53"/>
      <point x="93" y="102"/>
      <point x="93" y="189" type="curve"/>
      <point x="93" y="279"/>
      <point x="146" y="339"/>
      <point x="221" y="339" type="curve"/>
      <point x="289" y="339"/>
      <point x="333" y="286"/>
      <point x="333" y="203" type="curve"/>
      <point x="333" y="108"/>
      <point x="283" y="53"/>
    </contour>
    <contour>
      <point x="213" y="391" type="move" name="top"/>
    </contour>
  </outline>
</glyph>
<glyph name="R" format="1">
  <advance width="341"/>
  <unicode hex="0052"/>
  <outline>
    <contour>
      <point x="360" y="12" type="curve"/>
      <point x="345" y="61" type="line"/>
      <point x="334" y="55"/>
      <point x="323" y="52"/>
      <point x="311" y="52" type="curve"/>
      <point x="288" y="52"/>
      <point x="277" y="59"/>
      <point x="260" y="85" type="curve"/>
      <point x="226" y="138" type="line" smooth="yes"/>
      <point x="208" y="164"/>
      <point x="191" y="174"/>
      <point x="168" y="174" type="curve"/>
      <point x="154" y="167" type="line"/>
      <point x="175" y="167" type="line" smooth="yes"/>
      <point x="249" y="167"/>
      <point x="309" y="205"/>
      <point x="309" y="277" type="curve"/>
      <point x="309" y="348"/>
      <point x="258" y="391"/>
      <point x="161" y="391" type="curve"/>
      <point x="41" y="391" type="line"/>
      <point x="41" y="0" type="line"/>
      <point x="106" y="0" type="line"/>
      <point x="106" y="338" type="line"/>
      <point x="156" y="338" type="line" smooth="yes"/>
      <point x="214" y="338"/>
      <point x="243" y="317"/>
      <point x="243" y="277" type="curve"/>
      <point x="243" y="234"/>
      <point x="213" y="216"/>
      <point x="152" y="216" type="curve"/>
      <point x="92" y="216" type="line"/>
      <point x="92" y="165" type="line"/>
      <point x="111" y="165" type="line" smooth="yes"/>
      <point x="125" y="165"/>
      <point x="138" y="158"/>
      <point x="149" y="141" type="curve"/>
      <point x="209" y="48" type="line" smooth="yes"/>
      <point x="232" y="12"/>
      <point x="263" y="-4"/>
      <point x="302" y="-4" type="curve"/>
      <point x="325" y="-4"/>
      <point x="346" y="2"/>
    </contour>
    <contour>
      <point x="180" y="0" type="move" name="bottom"/>
    </contour>
    <contour>
      <point x="180" y="391" type="move" name="top"/>
    </contour>
  </outline>
</glyph>
<glyph name="S" format="1">
  <advance width="320"/>
  <unicode hex="0053"/>
  <outline>
    <contour>
      <point x="161" y="-5" type="curve"/>
      <point x="246" y="-5"/>
      <point x="305" y="42"/>
      <point x="305" y="109" type="curve"/>
      <point x="305" y="253"/>
      <point x="102" y="185"/>
      <point x="102" y="282" type="curve"/>
      <point x="102" y="318"/>
      <point x="129" y="342"/>
      <point x="170" y="342" type="curve"/>
      <point x="211" y="342"/>
      <point x="235" y="322"/>
      <point x="243" y="280" type="curve"/>
      <point x="301" y="290" type="line"/>
      <point x="293" y="356"/>
      <point x="245" y="396"/>
      <point x="173" y="396" type="curve"/>
      <point x="92" y="396"/>
      <point x="36" y="347"/>
      <point x="36" y="278" type="curve"/>
      <point x="36" y="129"/>
      <point x="238" y="194"/>
      <point x="238" y="105" type="curve"/>
      <point x="238" y="71"/>
      <point x="211" y="50"/>
      <point x="165" y="50" type="curve"/>
      <point x="110" y="50"/>
      <point x="81" y="73"/>
      <point x="73" y="125" type="curve"/>
      <point x="12" y="116" type="line"/>
      <point x="19" y="37"/>
      <point x="71" y="-5"/>
    </contour>
    <contour>
      <point x="164" y="0" type="move" name="bottom"/>
    </contour>
    <contour>
      <point x="164" y="391" type="move" name="top"/>
    </contour>
  </outline>
</glyph>
<glyph name="T" format="1">
  <advance width="313"/>
  <unicode hex="0054"/>
  <outline>
    <contour>
      <point x="312" y="335" type="line"/>
      <point x="319" y="391" type="line"/>
      <point x="-3" y="391" type="line"/>
      <point x="-3" y="335" type="line"/>
      <point x="123" y="335" type="line"/>
      <point x="123" y="0" type="line"/>
      <point x="190" y="0" type="line"/>
      <point x="190" y="335" type="line"/>
    </contour>
    <contour>
      <point x="157" y="0" type="move" name="bottom"/>
    </contour>
    <contour>
      <point x="157" y="198" type="move" name="stroke"/>
    </contour>
    <contour>
      <point x="157" y="391" type="move" name="top"/>
    </contour>
  </outline>
</glyph>
<glyph name="U" format="1">
  <advance width="407"/>
  <unicode hex="0055"/>
  <outline>
    <contour>
      <point x="367" y="391" type="line"/>
      <point x="302" y="391" type="line"/>
      <point x="302" y="187" type="line" smooth="yes"/>
      <point x="303" y="95"/>
      <point x="271" y="53"/>
      <point x="203" y="53" type="curve"/>
      <point x="138" y="53"/>
      <point x="106" y="88"/>
      <point x="106" y="170" type="curve"/>
      <point x="106" y="391" type="line"/>
      <point x="39" y="391" type="line"/>
      <point x="39" y="166" type="line" smooth="yes"/>
      <point x="39" y="50"/>
      <point x="95" y="-5"/>
      <point x="204" y="-5" type="curve"/>
      <point x="309" y="-4"/>
      <point x="369" y="65"/>
      <point x="368" y="184" type="curve"/>
    </contour>
    <contour>
      <point x="204" y="0" type="move" name="bottom"/>
    </contour>
    <contour>
      <point x="256" y="0" type="move" name="ogonek"/>
    </contour>
    <contour>
      <point x="204" y="391" type="move" name="top"/>
    </contour>
    <contour>
      <point x="365" y="391" type="move" name="topright"/>
    </contour>
  </outline>
</glyph>
<glyph name="V" format="1">
  <advance width="341"/>
  <unicode hex="0056"/>
  <outline>
    <contour>
      <point x="354" y="391" type="line"/>
      <point x="288" y="391" type="line"/>
      <point x="155" y="15" type="line"/>
      <point x="181" y="15" type="line"/>
      <point x="71" y="391" type="line"/>
      <point x="1" y="391" type="line"/>
      <point x="119" y="0" type="line"/>
      <point x="211" y="0" type="line"/>
    </contour>
    <contour>
      <point x="169" y="0" type="move" name="bottom"/>
    </contour>
    <contour>
      <point x="169" y="391" type="move" name="top"/>
    </contour>
  </outline>
</glyph>
<glyph name="W" format="1">
  <advance width="536"/>
  <unicode hex="0057"/>
  <outline>
    <contour>
      <point x="534" y="391" type="line"/>
      <point x="470" y="391" type="line"/>
      <point x="376" y="46" type="line"/>
      <point x="395" y="46" type="line"/>
      <point x="314" y="391" type="line"/>
      <point x="238" y="391" type="line"/>
      <point x="141" y="46" type="line"/>
      <point x="160" y="46" type="line"/>
      <point x="79" y="391" type="line"/>
      <point x="12" y="391" type="line"/>
      <point x="109" y="0" type="line"/>
      <point x="185" y="0" type="line"/>
      <point x="279" y="333" type="line"/>
      <point x="266" y="333" type="line"/>
      <point x="345" y="0" type="line"/>
      <point x="421" y="0" type="line"/>
    </contour>
    <contour>
      <point x="265" y="0" type="move" name="bottom"/>
    </contour>
    <contour>
      <point x="276" y="391" type="move" name="top"/>
    </contour>
  </outline>
</glyph>
<glyph name="X" format="1">
  <advance width="334"/>
  <unicode hex="0058"/>
  <outline>
    <contour>
      <point x="166" y="147" type="line"/>
      <point x="258" y="0" type="line"/>
      <point x="334" y="0" type="line"/>
      <point x="203" y="201" type="line"/>
      <point x="168" y="252" type="line"/>
      <point x="80" y="391" type="line"/>
      <point x="5" y="391" type="line"/>
      <point x="130" y="199" type="line"/>
    </contour>
    <contour>
      <point x="-3" y="0" type="line"/>
      <point x="71" y="0" type="line"/>
      <point x="166" y="147" type="line"/>
      <point x="203" y="201" type="line"/>
      <point x="328" y="391" type="line"/>
      <point x="257" y="391" type="line"/>
      <point x="168" y="252" type="line"/>
      <point x="130" y="199" type="line"/>
    </contour>
    <contour>
      <point x="169" y="0" type="move" name="bottom"/>
    </contour>
    <contour>
      <point x="169" y="391" type="move" name="top"/>
    </contour>
  </outline>
</glyph>
<glyph name="Y" format="1">
  <advance width="319"/>
  <unicode hex="0059"/>
  <outline>
    <contour>
      <point x="180" y="155" type="line"/>
      <point x="331" y="391" type="line"/>
      <point x="261" y="391" type="line"/>
      <point x="151" y="214" type="line"/>
      <point x="173" y="215" type="line"/>
      <point x="61" y="391" type="line"/>
      <point x="-14" y="391" type="line"/>
      <point x="140" y="153" type="line"/>
      <point x="127" y="199" type="line"/>
      <point x="127" y="0" type="line"/>
      <point x="193" y="0" type="line"/>
      <point x="193" y="201" type="line"/>
    </contour>
    <contour>
      <point x="160" y="0" type="move" name="bottom"/>
    </contour>
    <contour>
      <point x="161" y="391" type="move" name="top"/>
    </contour>
    <contour>
      <point x="6" y="391" type="move" name="topleft"/>
    </contour>
  </outline>
</glyph>
<glyph name="Z" format="1">
  <advance width="340"/>
  <unicode hex="005A"/>
  <outline>
    <contour>
      <point x="21" y="46" type="line"/>
      <point x="21" y="0" type="line"/>
      <point x="325" y="0" type="line"/>
      <point x="329" y="56" type="line"/>
      <point x="81" y="56" type="line"/>
      <point x="92" y="36" type="line"/>
      <point x="323" y="344" type="line"/>
      <point x="323" y="391" type="line"/>
      <point x="30" y="391" type="line"/>
      <point x="30" y="335" type="line"/>
      <point x="263" y="335" type="line"/>
      <point x="251" y="354" type="line"/>
    </contour>
    <contour>
      <point x="173" y="0" type="move" name="bottom"/>
    </contour>
    <contour>
      <point x="170" y="195" type="move" name="center"/>
    </contour>
    <contour>
      <point x="173" y="391" type="move" name="top"/>
    </contour>
  </outline>
</glyph>
<glyph name="bracketleft" format="1">
  <advance width="164"/>
  <unicode hex="005B"/>
  <outline>
    <contour>
      <point x="41" y="-110" type="line"/>
      <point x="159" y="-110" type="line"/>
      <point x="159" y="-64" type="line"/>
      <point x="102" y="-64" type="line"/>
      <point x="102" y="361" type="line"/>
      <point x="159" y="361" type="line"/>
      <point x="159" y="407" type="line"/>
      <point x="41" y="407" type="line"/>
    </contour>
  </outline>
</glyph>
<glyph name="bracketright" format="1">
  <advance width="164"/>
  <unicode hex="005D"/>
  <outline>
    <contour>
      <point x="5" y="-64" type="line"/>
      <point x="5" y="-110" type="line"/>
      <point x="123" y="-110" type="line"/>
      <point x="123" y="407" type="line"/>
      <point x="5" y="407" type="line"/>
      <point x="5" y="361" type="line"/>
      <point x="63" y="361" type="line"/>
      <point x="63" y="-64" type="line"/>
    </contour>
  </outline>
</glyph>
<glyph name="asciicircum" format="1">
  <advance width="330"/>
  <unicode hex="005E"/>
  <outline>
    <contour>
      <point x="307" y="61" type="line"/>
      <point x="188" y="328" type="line"/>
      <point x="142" y="328" type="line"/>
      <point x="23" y="61" type="line"/>
      <point x="80" y="61" type="line"/>
      <point x="180" y="290" type="line"/>
      <point x="150" y="290" type="line"/>
      <point x="249" y="61" type="line"/>
    </contour>
  </outline>
</glyph>
<glyph name="underscore" format="1">
  <advance width="279"/>
  <unicode hex="005F"/>
  <outline>
    <contour>
      <point x="15" y="0" type="line"/>
      <point x="15" y="-50" type="line"/>
      <point x="263" y="-50" type="line"/>
      <point x="263" y="0" type="line"/>
    </contour>
  </outline>
</glyph>
<glyph name="b" format="1">
  <advance width="328"/>
  <unicode hex="0062"/>
  <outline>
    <contour>
      <point x="37" y="407" type="line"/>
      <point x="37" y="0" type="line"/>
      <point x="82" y="0" type="line"/>
      <point x="91" y="46" type="line"/>
      <point x="87" y="42" type="line"/>
      <point x="99" y="14"/>
      <point x="129" y="-5"/>
      <point x="167" y="-5" type="curve"/>
      <point x="246" y="-5"/>
      <point x="305" y="58"/>
      <point x="305" y="151" type="curve"/>
      <point x="305" y="227"/>
      <point x="265" y="281"/>
      <point x="192" y="281" type="curve"/>
      <point x="137" y="281"/>
      <point x="99" y="246"/>
      <point x="83" y="188" type="curve"/>
      <point x="95" y="179" type="line"/>
      <point x="99" y="277" type="line"/>
      <point x="99" y="407" type="line"/>
    </contour>
    <contour>
      <point x="162" y="48" type="curve"/>
      <point x="123" y="48"/>
      <point x="99" y="77"/>
      <point x="99" y="123" type="curve"/>
      <point x="99" y="185"/>
      <point x="134" y="228"/>
      <point x="180" y="228" type="curve"/>
      <point x="217" y="228"/>
      <point x="240" y="199"/>
      <point x="240" y="148" type="curve"/>
      <point x="240" y="89"/>
      <point x="210" y="48"/>
    </contour>
    <contour>
      <point x="165" y="0" type="move" name="bottom"/>
    </contour>
    <contour>
      <point x="165" y="407" type="move" name="top"/>
    </contour>
  </outline>
</glyph>
<glyph name="c" format="1">
  <advance width="271"/>
  <unicode hex="0063"/>
  <outline>
    <contour>
      <point x="159" y="-5" type="curve"/>
      <point x="206" y="-5"/>
      <point x="245" y="12"/>
      <point x="269" y="50" type="curve"/>
      <point x="225" y="84" type="line"/>
      <point x="211" y="60"/>
      <point x="188" y="49"/>
      <point x="163" y="49" type="curve"/>
      <point x="115" y="49"/>
      <point x="89" y="79"/>
      <point x="89" y="134" type="curve"/>
      <point x="89" y="190"/>
      <point x="120" y="227"/>
      <point x="165" y="227" type="curve"/>
      <point x="192" y="227"/>
      <point x="210" y="217"/>
      <point x="224" y="192" type="curve"/>
      <point x="269" y="226" type="line"/>
      <point x="247" y="264"/>
      <point x="212" y="281"/>
      <point x="166" y="281" type="curve"/>
      <point x="82" y="281"/>
      <point x="24" y="221"/>
      <point x="24" y="133" type="curve"/>
      <point x="24" y="46"/>
      <point x="76" y="-5"/>
    </contour>
    <contour>
      <point x="154" y="0" type="move" name="bottom"/>
    </contour>
    <contour>
      <point x="155" y="276" type="move" name="top"/>
    </contour>
  </outline>
</glyph>
<glyph name="e" format="1">
  <advance width="298"/>
  <unicode hex="0065"/>
  <outline>
    <contour>
      <point x="168" y="-5" type="curve"/>
      <point x="218" y="-5"/>
      <point x="252" y="13"/>
      <point x="277" y="46" type="curve"/>
      <point x="240" y="81" type="line"/>
      <point x="223" y="59"/>
      <point x="197" y="48"/>
      <point x="172" y="48" type="curve"/>
      <point x="118" y="48"/>
      <point x="87" y="78"/>
      <point x="87" y="126" type="curve"/>
      <point x="87" y="144" type="line" smooth="yes"/>
      <point x="87" y="197"/>
      <point x="115" y="235"/>
      <point x="161" y="235" type="curve"/>
      <point x="200" y="235"/>
      <point x="226" y="212"/>
      <point x="221" y="156" type="curve"/>
      <point x="235" y="164" type="line"/>
      <point x="70" y="164" type="line"/>
      <point x="70" y="119" type="line"/>
      <point x="275" y="119" type="line"/>
      <point x="287" y="222"/>
      <point x="244" y="281"/>
      <point x="160" y="281" type="curve"/>
      <point x="82" y="281"/>
      <point x="24" y="221"/>
      <point x="24" y="134" type="curve"/>
      <point x="24" y="48"/>
      <point x="79" y="-5"/>
    </contour>
    <contour>
      <point x="159" y="0" type="move" name="bottom"/>
    </contour>
    <contour>
      <point x="231" y="0" type="move" name="ogonek"/>
    </contour>
    <contour>
      <point x="159" y="276" type="move" name="top"/>
    </contour>
  </outline>
</glyph>
<glyph name="f" format="1">
  <advance width="197"/>
  <unicode hex="0066"/>
  <outline>
    <contour>
      <point x="50" y="294" type="curve"/>
      <point x="50" y="0" type="line"/>
      <point x="113" y="0" type="line"/>
      <point x="113" y="241" type="line"/>
      <point x="112" y="268" type="line"/>
      <point x="112" y="300" type="line" smooth="yes"/>
      <point x="112" y="340"/>
      <point x="131" y="362"/>
      <point x="163" y="362" type="curve"/>
      <point x="186" y="362"/>
      <point x="201" y="350"/>
      <point x="204" y="328" type="curve"/>
      <point x="257" y="335" type="line"/>
      <point x="251" y="386"/>
      <point x="217" y="413"/>
      <point x="164" y="413" type="curve"/>
      <point x="98" y="413"/>
      <point x="50" y="366"/>
    </contour>
    <contour>
      <point x="196" y="276" type="line"/>
      <point x="-3" y="276" type="line"/>
      <point x="-3" y="226" type="line"/>
      <point x="196" y="226" type="line"/>
    </contour>
  </outline>
</glyph>
<glyph name="g" format="1">
  <advance width="331"/>
  <unicode hex="0067"/>
  <outline>
    <contour>
      <point x="137" y="-116" type="curve"/>
      <point x="236" y="-116"/>
      <point x="294" y="-62"/>
      <point x="294" y="45" type="curve"/>
      <point x="294" y="276" type="line"/>
      <point x="248" y="276" type="line"/>
      <point x="240" y="230" type="line"/>
      <point x="244" y="234" type="line"/>
      <point x="232" y="262"/>
      <point x="202" y="281"/>
      <point x="163" y="281" type="curve"/>
      <point x="81" y="281"/>
      <point x="24" y="218"/>
      <point x="24" y="129" type="curve"/>
      <point x="24" y="55"/>
      <point x="64" y="3"/>
      <point x="138" y="3" type="curve"/>
      <point x="193" y="3"/>
      <point x="232" y="37"/>
      <point x="248" y="96" type="curve"/>
      <point x="235" y="106" type="line"/>
      <point x="232" y="37" type="line" smooth="yes"/>
      <point x="230" y="-32"/>
      <point x="205" y="-62"/>
      <point x="139" y="-62" type="curve"/>
      <point x="108" y="-62"/>
      <point x="80" y="-55"/>
      <point x="55" y="-42" type="curve"/>
      <point x="40" y="-95" type="line"/>
      <point x="64" y="-109"/>
      <point x="104" y="-116"/>
    </contour>
    <contour>
      <point x="167" y="228" type="curve"/>
      <point x="207" y="228"/>
      <point x="232" y="201"/>
      <point x="232" y="158" type="curve"/>
      <point x="232" y="100"/>
      <point x="196" y="56"/>
      <point x="150" y="56" type="curve"/>
      <point x="112" y="56"/>
      <point x="88" y="84"/>
      <point x="88" y="133" type="curve"/>
      <point x="88" y="189"/>
      <point x="119" y="228"/>
    </contour>
    <contour>
      <point x="165" y="-110" type="move" name="bottom"/>
    </contour>
    <contour>
      <point x="173" y="276" type="move" name="top"/>
    </contour>
  </outline>
</glyph>
<glyph name="i" format="1">
  <advance width="135"/>
  <unicode hex="0069"/>
  <outline>
    <component base="dotlessi"/>
    <component base="uni0307.i" xOffset="-112"/>
    <contour>
      <point x="73" y="0" type="move" name="bottom"/>
    </contour>
  </outline>
</glyph>
<glyph name="l" format="1">
  <advance width="158"/>
  <unicode hex="006C"/>
  <outline>
    <contour>
      <point x="115" y="-5" type="curve"/>
      <point x="136" y="-5"/>
      <point x="156" y="2"/>
      <point x="168" y="11" type="curve"/>
      <point x="152" y="55" type="line"/>
      <point x="146" y="51"/>
      <point x="137" y="47"/>
      <point x="127" y="47" type="curve"/>
      <point x="108" y="47"/>
      <point x="99" y="59"/>
      <point x="99" y="79" type="curve"/>
      <point x="99" y="407" type="line"/>
      <point x="37" y="407" type="line"/>
      <point x="37" y="74" type="line" smooth="yes"/>
      <point x="37" y="24"/>
      <point x="64" y="-5"/>
    </contour>
    <contour>
      <point x="73" y="0" type="move" name="bottom"/>
    </contour>
    <contour>
      <point x="68" y="209" type="move" name="center"/>
    </contour>
    <contour>
      <point x="167" y="232" type="move" name="dotacc"/>
    </contour>
    <contour>
      <point x="68" y="391" type="move" name="top"/>
    </contour>
    <contour>
      <point x="122" y="407" type="move" name="topright"/>
    </contour>
  </outline>
</glyph>
<glyph name="m" format="1">
  <advance width="516"/>
  <unicode hex="006D"/>
  <outline>
    <contour>
      <point x="37" y="276" type="line"/>
      <point x="37" y="0" type="line"/>
      <point x="99" y="0" type="line"/>
      <point x="100" y="176"/>
      <point x="138" y="225"/>
      <point x="183" y="225" type="curve"/>
      <point x="215" y="225"/>
      <point x="229" y="201"/>
      <point x="229" y="157" type="curve"/>
      <point x="229" y="0" type="line"/>
      <point x="291" y="0" type="line"/>
      <point x="292" y="176"/>
      <point x="330" y="225"/>
      <point x="375" y="225" type="curve"/>
      <point x="407" y="225"/>
      <point x="422" y="201"/>
      <point x="421" y="157" type="curve"/>
      <point x="420" y="0" type="line"/>
      <point x="483" y="0" type="line"/>
      <point x="484" y="160" type="line" smooth="yes"/>
      <point x="484" y="238"/>
      <point x="452" y="281"/>
      <point x="391" y="281" type="curve"/>
      <point x="339" y="281"/>
      <point x="286" y="244"/>
      <point x="271" y="166" type="curve"/>
      <point x="290" y="177" type="line"/>
      <point x="286" y="248"/>
      <point x="250" y="281"/>
      <point x="199" y="281" type="curve"/>
      <point x="146" y="281"/>
      <point x="98" y="244"/>
      <point x="81" y="157" type="curve"/>
      <point x="94" y="164" type="line"/>
      <point x="99" y="276" type="line"/>
    </contour>
    <contour>
      <point x="260" y="0" type="move" name="bottom"/>
    </contour>
    <contour>
      <point x="260" y="276" type="move" name="top"/>
    </contour>
  </outline>
</glyph>
<glyph name="n" format="1">
  <advance width="328"/>
  <unicode hex="006E"/>
  <outline>
    <contour>
      <point x="37" y="276" type="line"/>
      <point x="37" y="0" type="line"/>
      <point x="99" y="0" type="line"/>
      <point x="100" y="173"/>
      <point x="136" y="225"/>
      <point x="187" y="225" type="curve"/>
      <point x="219" y="225"/>
      <point x="234" y="201"/>
      <point x="233" y="154" type="curve"/>
      <point x="232" y="0" type="line"/>
      <point x="294" y="0" type="line"/>
      <point x="295" y="160" type="line" smooth="yes"/>
      <point x="296" y="238"/>
      <point x="264" y="281"/>
      <point x="203" y="281" type="curve"/>
      <point x="142" y="281"/>
      <point x="96" y="236"/>
      <point x="82" y="157" type="curve"/>
      <point x="94" y="164" type="line"/>
      <point x="99" y="276" type="line"/>
    </contour>
    <contour>
      <point x="166" y="0" type="move" name="bottom"/>
    </contour>
    <contour>
      <point x="165" y="276" type="move" name="top"/>
    </contour>
  </outline>
</glyph>
<glyph name="o" format="1">
  <advance width="320"/>
  <unicode hex="006F"/>
  <outline>
    <contour>
      <point x="165" y="281" type="curve"/>
      <point x="79" y="281"/>
      <point x="24" y="217"/>
      <point x="24" y="132" type="curve"/>
      <point x="24" y="48"/>
      <point x="73" y="-5"/>
      <point x="155" y="-5" type="curve"/>
      <point x="240" y="-5"/>
      <point x="296" y="59"/>
      <point x="296" y="144" type="curve"/>
      <point x="296" y="228"/>
      <point x="246" y="281"/>
    </contour>
    <contour>
      <point x="157" y="48" type="curve"/>
      <point x="113" y="48"/>
      <point x="88" y="79"/>
      <point x="88" y="132" type="curve"/>
      <point x="88" y="189"/>
      <point x="118" y="228"/>
      <point x="164" y="228" type="curve"/>
      <point x="206" y="228"/>
      <point x="232" y="198"/>
      <point x="232" y="144" type="curve"/>
      <point x="232" y="86"/>
      <point x="202" y="48"/>
    </contour>
    <contour>
      <point x="160" y="0" type="move" name="bottom"/>
    </contour>
    <contour>
      <point x="160" y="138" type="move" name="center"/>
    </contour>
    <contour>
      <point x="208" y="0" type="move" name="ogonek"/>
    </contour>
    <contour>
      <point x="160" y="276" type="move" name="top"/>
    </contour>
    <contour>
      <point x="230" y="276" type="move" name="topright"/>
    </contour>
  </outline>
</glyph>
<glyph name="q" format="1">
  <advance width="328"/>
  <unicode hex="0071"/>
  <outline>
    <contour>
      <point x="292" y="-110" type="line"/>
      <point x="292" y="276" type="line"/>
      <point x="246" y="276" type="line"/>
      <point x="238" y="231" type="line"/>
      <point x="242" y="234" type="line"/>
      <point x="229" y="262"/>
      <point x="199" y="281"/>
      <point x="162" y="281" type="curve"/>
      <point x="82" y="281"/>
      <point x="24" y="218"/>
      <point x="24" y="126" type="curve"/>
      <point x="24" y="49"/>
      <point x="64" y="-5"/>
      <point x="136" y="-5" type="curve"/>
      <point x="190" y="-5"/>
      <point x="230" y="30"/>
      <point x="246" y="88" type="curve"/>
      <point x="233" y="98" type="line"/>
      <point x="229" y="0" type="line"/>
      <point x="229" y="-110" type="line"/>
    </contour>
    <contour>
      <point x="166" y="228" type="curve"/>
      <point x="205" y="228"/>
      <point x="230" y="200"/>
      <point x="230" y="154" type="curve"/>
      <point x="230" y="92"/>
      <point x="194" y="48"/>
      <point x="148" y="48" type="curve"/>
      <point x="111" y="48"/>
      <point x="88" y="78"/>
      <point x="88" y="129" type="curve"/>
      <point x="88" y="188"/>
      <point x="118" y="228"/>
    </contour>
    <contour>
      <point x="137" y="0" type="move" name="bottom"/>
    </contour>
    <contour>
      <point x="173" y="276" type="move" name="top"/>
    </contour>
  </outline>
</glyph>
<glyph name="r" format="1">
  <advance width="211"/>
  <unicode hex="0072"/>
  <outline>
    <contour>
      <point x="211" y="219" type="curve"/>
      <point x="221" y="277" type="line"/>
      <point x="213" y="280"/>
      <point x="202" y="281"/>
      <point x="191" y="281" type="curve"/>
      <point x="143" y="281"/>
      <point x="99" y="246"/>
      <point x="87" y="152" type="curve"/>
      <point x="94" y="159" type="line"/>
      <point x="99" y="276" type="line"/>
      <point x="37" y="276" type="line"/>
      <point x="37" y="178" type="line"/>
      <point x="37" y="0" type="line"/>
      <point x="99" y="0" type="line"/>
      <point x="99" y="159"/>
      <point x="124" y="222"/>
      <point x="184" y="222" type="curve"/>
      <point x="195" y="222"/>
      <point x="203" y="221"/>
    </contour>
    <contour>
      <point x="68" y="0" type="move" name="bottom"/>
    </contour>
    <contour>
      <point x="129" y="276" type="move" name="top"/>
    </contour>
  </outline>
</glyph>
<glyph name="s" format="1">
  <advance width="258"/>
  <unicode hex="0073"/>
  <outline>
    <contour>
      <point x="132" y="-5" type="curve"/>
      <point x="198" y="-5"/>
      <point x="244" y="30"/>
      <point x="244" y="80" type="curve"/>
      <point x="243" y="182"/>
      <point x="89" y="141"/>
      <point x="89" y="198" type="curve"/>
      <point x="89" y="218"/>
      <point x="105" y="233"/>
      <point x="135" y="233" type="curve"/>
      <point x="165" y="233"/>
      <point x="182" y="219"/>
      <point x="187" y="196" type="curve"/>
      <point x="238" y="209" type="line"/>
      <point x="231" y="252"/>
      <point x="193" y="281"/>
      <point x="137" y="281" type="curve"/>
      <point x="73" y="281"/>
      <point x="28" y="244"/>
      <point x="28" y="194" type="curve"/>
      <point x="28" y="88"/>
      <point x="183" y="130"/>
      <point x="183" y="76" type="curve"/>
      <point x="183" y="56"/>
      <point x="165" y="43"/>
      <point x="132" y="43" type="curve"/>
      <point x="91" y="43"/>
      <point x="69" y="60"/>
      <point x="64" y="90" type="curve"/>
      <point x="12" y="77" type="line"/>
      <point x="18" y="26"/>
      <point x="57" y="-5"/>
    </contour>
    <contour>
      <point x="135" y="0" type="move" name="bottom"/>
    </contour>
    <contour>
      <point x="135" y="276" type="move" name="top"/>
    </contour>
  </outline>
</glyph>
<glyph name="t" format="1">
  <advance width="219"/>
  <unicode hex="0074"/>
  <outline>
    <contour>
      <point x="153" y="-5" type="curve"/>
      <point x="183" y="-5"/>
      <point x="209" y="2"/>
      <point x="226" y="16" type="curve"/>
      <point x="208" y="63" type="line"/>
      <point x="191" y="51"/>
      <point x="177" y="48"/>
      <point x="161" y="48" type="curve"/>
      <point x="128" y="48"/>
      <point x="112" y="67"/>
      <point x="112" y="99" type="curve"/>
      <point x="115" y="334" type="line"/>
      <point x="53" y="334" type="line"/>
      <point x="50" y="93" type="line" smooth="yes"/>
      <point x="49" y="34"/>
      <point x="87" y="-5"/>
    </contour>
    <contour>
      <point x="4" y="276" type="line"/>
      <point x="4" y="226" type="line"/>
      <point x="206" y="226" type="line"/>
      <point x="206" y="276" type="line"/>
    </contour>
    <contour>
      <point x="138" y="0" type="move" name="bottom"/>
    </contour>
    <contour>
      <point x="107" y="150" type="move" name="stroke"/>
    </contour>
    <contour>
      <point x="84" y="334" type="move" name="top"/>
    </contour>
    <contour>
      <point x="140" y="407" type="move" name="topright"/>
    </contour>
  </outline>
</glyph>
<glyph name="u" format="1">
  <advance width="322"/>
  <unicode hex="0075"/>
  <outline>
    <contour>
      <point x="124" y="-5" type="curve"/>
      <point x="184" y="-5"/>
      <point x="230" y="41"/>
      <point x="244" y="129" type="curve"/>
      <point x="230" y="121" type="line"/>
      <point x="225" y="0" type="line"/>
      <point x="286" y="0" type="line"/>
      <point x="286" y="276" type="line"/>
      <point x="225" y="276" type="line"/>
      <point x="224" y="104"/>
      <point x="189" y="51"/>
      <point x="140" y="51" type="curve"/>
      <point x="109" y="51"/>
      <point x="95" y="76"/>
      <point x="95" y="116" type="curve"/>
      <point x="97" y="276" type="line"/>
      <point x="34" y="276" type="line"/>
      <point x="33" y="111" type="line" smooth="yes"/>
      <point x="32" y="38"/>
      <point x="64" y="-5"/>
    </contour>
    <contour>
      <point x="161" y="0" type="move" name="bottom"/>
    </contour>
    <contour>
      <point x="286" y="0" type="move" name="ogonek"/>
    </contour>
    <contour>
      <point x="161" y="276" type="move" name="top"/>
    </contour>
    <contour>
      <point x="251" y="276" type="move" name="topright"/>
    </contour>
  </outline>
</glyph>
<glyph name="v" format="1">
  <advance width="282"/>
  <unicode hex="0076"/>
  <outline>
    <contour>
      <point x="290" y="276" type="line"/>
      <point x="228" y="276" type="line"/>
      <point x="132" y="16" type="line"/>
      <point x="155" y="16" type="line"/>
      <point x="76" y="276" type="line"/>
      <point x="9" y="276" type="line"/>
      <point x="97" y="0" type="line"/>
      <point x="186" y="0" type="line"/>
    </contour>
    <contour>
      <point x="142" y="0" type="move" name="bottom"/>
    </contour>
    <contour>
      <point x="152" y="276" type="move" name="top"/>
    </contour>
  </outline>
</glyph>
<glyph name="w" format="1">
  <advance width="473"/>
  <unicode hex="0077"/>
  <outline>
    <contour>
      <point x="475" y="276" type="line"/>
      <point x="413" y="276" type="line"/>
      <point x="324" y="19" type="line"/>
      <point x="350" y="18" type="line"/>
      <point x="275" y="276" type="line"/>
      <point x="213" y="276" type="line"/>
      <point x="124" y="19" type="line"/>
      <point x="150" y="18" type="line"/>
      <point x="76" y="276" type="line"/>
      <point x="11" y="276" type="line"/>
      <point x="98" y="0" type="line"/>
      <point x="174" y="0" type="line"/>
      <point x="249" y="213" type="line"/>
      <point x="237" y="213" type="line"/>
      <point x="299" y="0" type="line"/>
      <point x="376" y="0" type="line"/>
    </contour>
    <contour>
      <point x="237" y="0" type="move" name="bottom"/>
    </contour>
    <contour>
      <point x="244" y="276" type="move" name="top"/>
    </contour>
  </outline>
</glyph>
<glyph name="x" format="1">
  <advance width="273"/>
  <unicode hex="0078"/>
  <outline>
    <contour>
      <point x="135" y="93" type="line"/>
      <point x="198" y="0" type="line"/>
      <point x="274" y="0" type="line"/>
      <point x="173" y="143" type="line"/>
      <point x="138" y="191" type="line"/>
      <point x="78" y="276" type="line"/>
      <point x="2" y="276" type="line"/>
      <point x="100" y="140" type="line"/>
    </contour>
    <contour>
      <point x="-3" y="0" type="line"/>
      <point x="69" y="0" type="line"/>
      <point x="135" y="93" type="line"/>
      <point x="173" y="143" type="line"/>
      <point x="271" y="276" type="line"/>
      <point x="199" y="276" type="line"/>
      <point x="138" y="191" type="line"/>
      <point x="100" y="140" type="line"/>
    </contour>
    <contour>
      <point x="136" y="0" type="move" name="bottom"/>
    </contour>
    <contour>
      <point x="136" y="276" type="move" name="top"/>
    </contour>
  </outline>
</glyph>
<glyph name="y" format="1">
  <advance width="325"/>
  <unicode hex="0079"/>
  <outline>
    <contour>
      <point x="133" y="-116" type="curve"/>
      <point x="232" y="-116"/>
      <point x="288" y="-64"/>
      <point x="288" y="45" type="curve"/>
      <point x="288" y="276" type="line"/>
      <point x="228" y="276" type="line"/>
      <point x="227" y="112"/>
      <point x="192" y="59"/>
      <point x="141" y="59" type="curve"/>
      <point x="109" y="59"/>
      <point x="95" y="83"/>
      <point x="95" y="124" type="curve"/>
      <point x="97" y="276" type="line"/>
      <point x="34" y="276" type="line"/>
      <point x="33" y="119" type="line" smooth="yes"/>
      <point x="32" y="46"/>
      <point x="64" y="3"/>
      <point x="125" y="3" type="curve"/>
      <point x="186" y="3"/>
      <point x="232" y="49"/>
      <point x="247" y="137" type="curve"/>
      <point x="232" y="117" type="line"/>
      <point x="229" y="37" type="line" smooth="yes"/>
      <point x="226" y="-32"/>
      <point x="201" y="-62"/>
      <point x="136" y="-62" type="curve"/>
      <point x="104" y="-62"/>
      <point x="76" y="-55"/>
      <point x="52" y="-42" type="curve"/>
      <point x="36" y="-95" type="line"/>
      <point x="60" y="-109"/>
      <point x="100" y="-116"/>
    </contour>
    <contour>
      <point x="315" y="0" type="move" name="bottom"/>
    </contour>
    <contour>
      <point x="162" y="276" type="move" name="top"/>
    </contour>
  </outline>
</glyph>
<glyph name="z" format="1">
  <advance width="252"/>
  <unicode hex="007A"/>
  <outline>
    <contour>
      <point x="17" y="44" type="line"/>
      <point x="17" y="0" type="line"/>
      <point x="235" y="0" type="line"/>
      <point x="235" y="50" type="line"/>
      <point x="75" y="50" type="line"/>
      <point x="75" y="25" type="line"/>
      <point x="236" y="234" type="line"/>
      <point x="236" y="276" type="line"/>
      <point x="23" y="276" type="line"/>
      <point x="23" y="226" type="line"/>
      <point x="182" y="226" type="line"/>
      <point x="181" y="255" type="line"/>
    </contour>
    <contour>
      <point x="130" y="0" type="move" name="bottom"/>
    </contour>
    <contour>
      <point x="124" y="138" type="move" name="center"/>
    </contour>
    <contour>
      <point x="130" y="276" type="move" name="top"/>
    </contour>
  </outline>
</glyph>
<glyph name="braceleft" format="1">
  <advance width="211"/>
  <unicode hex="007B"/>
  <outline>
    <contour>
      <point x="132" y="-29" type="curve"/>
      <point x="132" y="8"/>
      <point x="159" y="39"/>
      <point x="159" y="78" type="curve"/>
      <point x="159" y="115"/>
      <point x="131" y="145"/>
      <point x="73" y="152" type="curve"/>
      <point x="73" y="146" type="line"/>
      <point x="131" y="153"/>
      <point x="159" y="183"/>
      <point x="159" y="220" type="curve"/>
      <point x="159" y="259"/>
      <point x="132" y="290"/>
      <point x="132" y="327" type="curve"/>
      <point x="132" y="354"/>
      <point x="152" y="372"/>
      <point x="182" y="374" type="curve"/>
      <point x="175" y="411" type="line"/>
      <point x="106" y="406"/>
      <point x="67" y="371"/>
      <point x="67" y="323" type="curve"/>
      <point x="67" y="286"/>
      <point x="94" y="245"/>
      <point x="94" y="216" type="curve"/>
      <point x="94" y="189"/>
      <point x="80" y="170"/>
      <point x="33" y="170" type="curve"/>
      <point x="33" y="128" type="line"/>
      <point x="80" y="128"/>
      <point x="94" y="109"/>
      <point x="94" y="82" type="curve"/>
      <point x="94" y="53"/>
      <point x="67" y="12"/>
      <point x="67" y="-25" type="curve"/>
      <point x="67" y="-73"/>
      <point x="106" y="-108"/>
      <point x="175" y="-113" type="curve"/>
      <point x="182" y="-76" type="line"/>
      <point x="152" y="-74"/>
      <point x="132" y="-56"/>
    </contour>
  </outline>
</glyph>
<glyph name="bar" format="1">
  <advance width="155"/>
  <unicode hex="007C"/>
  <outline>
    <contour>
      <point x="46" y="407" type="line"/>
      <point x="46" y="-110" type="line"/>
      <point x="109" y="-110" type="line"/>
      <point x="109" y="407" type="line"/>
    </contour>
  </outline>
</glyph>
<glyph name="braceright" format="1">
  <advance width="211"/>
  <unicode hex="007D"/>
  <outline>
    <contour>
      <point x="79" y="-29" type="curve"/>
      <point x="79" y="-56"/>
      <point x="59" y="-74"/>
      <point x="28" y="-76" type="curve"/>
      <point x="36" y="-113" type="line"/>
      <point x="104" y="-108"/>
      <point x="143" y="-73"/>
      <point x="143" y="-25" type="curve"/>
      <point x="143" y="12"/>
      <point x="116" y="53"/>
      <point x="116" y="82" type="curve"/>
      <point x="116" y="109"/>
      <point x="131" y="128"/>
      <point x="178" y="128" type="curve"/>
      <point x="178" y="170" type="line"/>
      <point x="131" y="170"/>
      <point x="116" y="189"/>
      <point x="116" y="216" type="curve"/>
      <point x="116" y="245"/>
      <point x="143" y="286"/>
      <point x="143" y="323" type="curve"/>
      <point x="143" y="371"/>
      <point x="104" y="406"/>
      <point x="36" y="411" type="curve"/>
      <point x="28" y="374" type="line"/>
      <point x="59" y="372"/>
      <point x="79" y="354"/>
      <point x="79" y="327" type="curve"/>
      <point x="79" y="290"/>
      <point x="52" y="259"/>
      <point x="52" y="220" type="curve"/>
      <point x="52" y="183"/>
      <point x="80" y="153"/>
      <point x="138" y="146" type="curve"/>
      <point x="138" y="152" type="line"/>
      <point x="80" y="145"/>
      <point x="52" y="115"/>
      <point x="52" y="78" type="curve"/>
      <point x="52" y="39"/>
      <point x="79" y="8"/>
    </contour>
  </outline>
</glyph>
<glyph name="asciitilde" format="1">
  <advance width="330"/>
  <unicode hex="007E"/>
  <outline>
    <contour>
      <point x="223" y="96" type="curve"/>
      <point x="257" y="96"/>
      <point x="284" y="115"/>
      <point x="300" y="149" type="curve"/>
      <point x="268" y="178" type="line"/>
      <point x="257" y="160"/>
      <point x="244" y="151"/>
      <point x="223" y="151" type="curve"/>
      <point x="196" y="151"/>
      <point x="139" y="181"/>
      <point x="107" y="181" type="curve"/>
      <point x="73" y="181"/>
      <point x="46" y="162"/>
      <point x="30" y="127" type="curve"/>
      <point x="62" y="99" type="line"/>
      <point x="73" y="117"/>
      <point x="86" y="126"/>
      <point x="107" y="126" type="curve"/>
      <point x="134" y="126"/>
      <point x="191" y="96"/>
    </contour>
  </outline>
</glyph>
<glyph name="exclamdown" format="1">
  <advance width="128"/>
  <unicode hex="00A1"/>
  <outline>
    <contour>
      <point x="43" y="165" type="line"/>
      <point x="24" y="-110" type="line"/>
      <point x="95" y="-110" type="line"/>
      <point x="85" y="165" type="line"/>
    </contour>
    <contour>
      <point x="64" y="205" type="curve"/>
      <point x="88" y="205"/>
      <point x="105" y="221"/>
      <point x="105" y="243" type="curve"/>
      <point x="105" y="265"/>
      <point x="88" y="281"/>
      <point x="64" y="281" type="curve"/>
      <point x="39" y="281"/>
      <point x="23" y="265"/>
      <point x="23" y="243" type="curve"/>
      <point x="23" y="221"/>
      <point x="39" y="205"/>
    </contour>
  </outline>
</glyph>
<glyph name="cent" format="1">
  <advance width="330"/>
  <unicode hex="00A2"/>
  <outline>
    <contour>
      <point x="182" y="-5" type="curve"/>
      <point x="228" y="-5"/>
      <point x="267" y="12"/>
      <point x="291" y="50" type="curve"/>
      <point x="248" y="84" type="line"/>
      <point x="233" y="60"/>
      <point x="211" y="49"/>
      <point x="186" y="49" type="curve"/>
      <point x="137" y="49"/>
      <point x="111" y="79"/>
      <point x="111" y="134" type="curve"/>
      <point x="111" y="190"/>
      <point x="143" y="227"/>
      <point x="188" y="227" type="curve"/>
      <point x="215" y="227"/>
      <point x="233" y="217"/>
      <point x="247" y="192" type="curve"/>
      <point x="292" y="226" type="line"/>
      <point x="270" y="264"/>
      <point x="235" y="281"/>
      <point x="188" y="281" type="curve"/>
      <point x="104" y="281"/>
      <point x="46" y="221"/>
      <point x="46" y="133" type="curve"/>
      <point x="46" y="46"/>
      <point x="98" y="-5"/>
    </contour>
    <contour>
      <point x="203" y="-66" type="line"/>
      <point x="203" y="22" type="line"/>
      <point x="158" y="22" type="line"/>
      <point x="158" y="-66" type="line"/>
    </contour>
    <contour>
      <point x="158" y="342" type="line"/>
      <point x="158" y="255" type="line"/>
      <point x="203" y="255" type="line"/>
      <point x="203" y="342" type="line"/>
    </contour>
  </outline>
</glyph>
<glyph name="sterling" format="1">
  <advance width="330"/>
  <unicode hex="00A3"/>
  <outline>
    <contour>
      <point x="25" y="34" type="curve"/>
      <point x="52" y="-6" type="line"/>
      <point x="71" y="9"/>
      <point x="93" y="17"/>
      <point x="116" y="17" type="curve"/>
      <point x="151" y="17"/>
      <point x="206" y="-6"/>
      <point x="235" y="-6" type="curve"/>
      <point x="271" y="-6"/>
      <point x="302" y="15"/>
      <point x="317" y="48" type="curve"/>
      <point x="280" y="75" type="line"/>
      <point x="270" y="57"/>
      <point x="255" y="48"/>
      <point x="236" y="48" type="curve"/>
      <point x="209" y="48"/>
      <point x="172" y="68"/>
      <point x="142" y="68" type="curve"/>
      <point x="129" y="68"/>
      <point x="119" y="64"/>
      <point x="112" y="59" type="curve"/>
      <point x="120" y="56" type="line"/>
      <point x="137" y="73"/>
      <point x="146" y="97"/>
      <point x="146" y="124" type="curve"/>
      <point x="146" y="181"/>
      <point x="116" y="217"/>
      <point x="116" y="271" type="curve"/>
      <point x="116" y="314"/>
      <point x="143" y="341"/>
      <point x="186" y="341" type="curve"/>
      <point x="227" y="341"/>
      <point x="252" y="321"/>
      <point x="264" y="278" type="curve"/>
      <point x="314" y="298" type="line"/>
      <point x="298" y="361"/>
      <point x="253" y="396"/>
      <point x="187" y="396" type="curve"/>
      <point x="109" y="396"/>
      <point x="52" y="343"/>
      <point x="52" y="272" type="curve"/>
      <point x="52" y="214"/>
      <point x="86" y="161"/>
      <point x="86" y="117" type="curve"/>
      <point x="86" y="81"/>
      <point x="65" y="53"/>
    </contour>
    <contour>
      <point x="8" y="216" type="line"/>
      <point x="8" y="174" type="line"/>
      <point x="222" y="174" type="line"/>
      <point x="222" y="216" type="line"/>
    </contour>
  </outline>
</glyph>
<glyph name="currency" format="1">
  <advance width="330"/>
  <unicode hex="00A4"/>
  <outline>
    <contour>
      <point x="165" y="54" type="curve"/>
      <point x="239" y="54"/>
      <point x="299" y="116"/>
      <point x="299" y="191" type="curve"/>
      <point x="299" y="268"/>
      <point x="239" y="329"/>
      <point x="165" y="329" type="curve"/>
      <point x="91" y="329"/>
      <point x="31" y="268"/>
      <point x="31" y="191" type="curve"/>
      <point x="31" y="116"/>
      <point x="91" y="54"/>
    </contour>
    <contour>
      <point x="22" y="80" type="line"/>
      <point x="55" y="48" type="line"/>
      <point x="108" y="100" type="line"/>
      <point x="75" y="133" type="line"/>
    </contour>
    <contour>
      <point x="218" y="101" type="line"/>
      <point x="272" y="48" type="line"/>
      <point x="305" y="80" type="line"/>
      <point x="252" y="133" type="line"/>
    </contour>
    <contour>
      <point x="165" y="103" type="curve"/>
      <point x="119" y="103"/>
      <point x="84" y="143"/>
      <point x="84" y="191" type="curve"/>
      <point x="84" y="241"/>
      <point x="120" y="280"/>
      <point x="165" y="280" type="curve"/>
      <point x="210" y="280"/>
      <point x="246" y="241"/>
      <point x="246" y="191" type="curve"/>
      <point x="246" y="143"/>
      <point x="210" y="103"/>
    </contour>
    <contour>
      <point x="22" y="301" type="line"/>
      <point x="70" y="253" type="line"/>
      <point x="103" y="286" type="line"/>
      <point x="55" y="334" type="line"/>
    </contour>
    <contour>
      <point x="226" y="287" type="line"/>
      <point x="259" y="254" type="line"/>
      <point x="308" y="303" type="line"/>
      <point x="274" y="336" type="line"/>
    </contour>
  </outline>
</glyph>
<glyph name="yen" format="1">
  <advance width="330"/>
  <unicode hex="00A5"/>
  <outline>
    <contour>
      <point x="179" y="155" type="line"/>
      <point x="329" y="391" type="line"/>
      <point x="260" y="391" type="line"/>
      <point x="150" y="214" type="line"/>
      <point x="189" y="215" type="line"/>
      <point x="76" y="391" type="line"/>
      <point x="2" y="391" type="line"/>
      <point x="156" y="153" type="line"/>
      <point x="134" y="204" type="line"/>
      <point x="134" y="0" type="line"/>
      <point x="200" y="0" type="line"/>
      <point x="200" y="206" type="line"/>
    </contour>
    <contour>
      <point x="44" y="121" type="line"/>
      <point x="44" y="79" type="line"/>
      <point x="286" y="79" type="line"/>
      <point x="286" y="121" type="line"/>
    </contour>
    <contour>
      <point x="44" y="207" type="line"/>
      <point x="44" y="165" type="line"/>
      <point x="286" y="165" type="line"/>
      <point x="286" y="207" type="line"/>
    </contour>
  </outline>
</glyph>
<glyph name="brokenbar" format="1">
  <advance width="155"/>
  <unicode hex="00A6"/>
  <outline>
    <contour>
      <point x="109" y="-110" type="line"/>
      <point x="109" y="88" type="line"/>
      <point x="46" y="88" type="line"/>
      <point x="46" y="-110" type="line"/>
    </contour>
    <contour>
      <point x="46" y="407" type="line"/>
      <point x="46" y="209" type="line"/>
      <point x="109" y="209" type="line"/>
      <point x="109" y="407" type="line"/>
    </contour>
  </outline>
</glyph>
<glyph name="section" format="1">
  <advance width="282"/>
  <unicode hex="00A7"/>
  <outline>
    <contour>
      <point x="154" y="157" type="curve"/>
      <point x="154" y="125" type="line"/>
      <point x="209" y="125"/>
      <point x="255" y="151"/>
      <point x="255" y="199" type="curve"/>
      <point x="255" y="291"/>
      <point x="99" y="256"/>
      <point x="99" y="313" type="curve"/>
      <point x="99" y="333"/>
      <point x="115" y="348"/>
      <point x="146" y="348" type="curve"/>
      <point x="176" y="348"/>
      <point x="194" y="334"/>
      <point x="199" y="311" type="curve"/>
      <point x="249" y="324" type="line"/>
      <point x="242" y="367"/>
      <point x="204" y="396"/>
      <point x="147" y="396" type="curve"/>
      <point x="83" y="396"/>
      <point x="38" y="359"/>
      <point x="38" y="309" type="curve"/>
      <point x="38" y="204"/>
      <point x="194" y="244"/>
      <point x="194" y="188" type="curve"/>
      <point x="194" y="170"/>
      <point x="177" y="157"/>
    </contour>
    <contour>
      <point x="128" y="234" type="curve"/>
      <point x="128" y="266" type="line"/>
      <point x="73" y="266"/>
      <point x="27" y="240"/>
      <point x="27" y="192" type="curve"/>
      <point x="27" y="100"/>
      <point x="183" y="134"/>
      <point x="183" y="78" type="curve"/>
      <point x="183" y="58"/>
      <point x="167" y="43"/>
      <point x="136" y="43" type="curve"/>
      <point x="106" y="43"/>
      <point x="88" y="57"/>
      <point x="83" y="80" type="curve"/>
      <point x="33" y="66" type="line"/>
      <point x="39" y="23"/>
      <point x="78" y="-6"/>
      <point x="135" y="-6" type="curve"/>
      <point x="199" y="-6"/>
      <point x="244" y="32"/>
      <point x="244" y="82" type="curve"/>
      <point x="244" y="186"/>
      <point x="88" y="147"/>
      <point x="88" y="202" type="curve"/>
      <point x="88" y="221"/>
      <point x="105" y="234"/>
    </contour>
  </outline>
</glyph>
<glyph name="logicalnot" format="1">
  <advance width="330"/>
  <unicode hex="00AC"/>
  <outline>
    <contour>
      <point x="299" y="166" type="line"/>
      <point x="31" y="166" type="line"/>
      <point x="31" y="111" type="line"/>
      <point x="240" y="111" type="line"/>
      <point x="240" y="0" type="line"/>
      <point x="299" y="0" type="line"/>
    </contour>
  </outline>
</glyph>
<glyph name="degree" format="1">
  <advance width="209"/>
  <unicode hex="00B0"/>
  <outline>
    <contour>
      <point x="105" y="228" type="curve"/>
      <point x="153" y="228"/>
      <point x="189" y="264"/>
      <point x="189" y="312" type="curve"/>
      <point x="189" y="359"/>
      <point x="153" y="394"/>
      <point x="105" y="394" type="curve"/>
      <point x="57" y="394"/>
      <point x="21" y="359"/>
      <point x="21" y="312" type="curve"/>
      <point x="21" y="264"/>
      <point x="57" y="228"/>
    </contour>
    <contour>
      <point x="105" y="265" type="curve"/>
      <point x="79" y="265"/>
      <point x="61" y="284"/>
      <point x="61" y="312" type="curve"/>
      <point x="61" y="339"/>
      <point x="79" y="359"/>
      <point x="105" y="359" type="curve"/>
      <point x="130" y="359"/>
      <point x="149" y="339"/>
      <point x="149" y="312" type="curve"/>
      <point x="149" y="284"/>
      <point x="130" y="265"/>
    </contour>
  </outline>
</glyph>
<glyph name="plusminus" format="1">
  <advance width="330"/>
  <unicode hex="00B1"/>
  <outline>
    <contour>
      <point x="31" y="50" type="line"/>
      <point x="31" y="0" type="line"/>
      <point x="299" y="0" type="line"/>
      <point x="299" y="50" type="line"/>
    </contour>
    <contour>
      <point x="273" y="154" type="line"/>
      <point x="273" y="203" type="line"/>
      <point x="57" y="203" type="line"/>
      <point x="57" y="154" type="line"/>
    </contour>
    <contour>
      <point x="193" y="276" type="line"/>
      <point x="137" y="276" type="line"/>
      <point x="137" y="80" type="line"/>
      <point x="193" y="80" type="line"/>
    </contour>
  </outline>
</glyph>
<glyph name="paragraph" format="1">
  <advance width="387"/>
  <unicode hex="00B6"/>
  <outline>
    <contour>
      <point x="10" y="270" type="curve"/>
      <point x="10" y="195"/>
      <point x="66" y="148"/>
      <point x="163" y="148" type="curve"/>
      <point x="202" y="148" type="line"/>
      <point x="177" y="173" type="line"/>
      <point x="177" y="0" type="line"/>
      <point x="242" y="0" type="line"/>
      <point x="242" y="391" type="line"/>
      <point x="169" y="391" type="line" smooth="yes"/>
      <point x="66" y="391"/>
      <point x="10" y="346"/>
    </contour>
    <contour>
      <point x="346" y="391" type="line"/>
      <point x="281" y="391" type="line"/>
      <point x="281" y="0" type="line"/>
      <point x="346" y="0" type="line"/>
    </contour>
  </outline>
</glyph>
<glyph name="questiondown" format="1">
  <advance width="281"/>
  <unicode hex="00BF"/>
  <outline>
    <contour>
      <point x="162" y="282" type="curve"/>
      <point x="138" y="282"/>
      <point x="121" y="265"/>
      <point x="121" y="243" type="curve"/>
      <point x="121" y="221"/>
      <point x="138" y="205"/>
      <point x="162" y="205" type="curve"/>
      <point x="186" y="205"/>
      <point x="203" y="221"/>
      <point x="203" y="243" type="curve"/>
      <point x="203" y="266"/>
      <point x="186" y="282"/>
    </contour>
    <contour>
      <point x="185" y="164" type="curve"/>
      <point x="138" y="167" type="line"/>
      <point x="136" y="132"/>
      <point x="124" y="110"/>
      <point x="89" y="83" type="curve"/>
      <point x="47" y="48"/>
      <point x="29" y="20"/>
      <point x="29" y="-21" type="curve"/>
      <point x="29" y="-78"/>
      <point x="77" y="-116"/>
      <point x="144" y="-116" type="curve"/>
      <point x="208" y="-116"/>
      <point x="261" y="-79"/>
      <point x="279" y="-20" type="curve"/>
      <point x="231" y="4" type="line"/>
      <point x="217" y="-39"/>
      <point x="189" y="-61"/>
      <point x="150" y="-61" type="curve"/>
      <point x="114" y="-61"/>
      <point x="94" y="-45"/>
      <point x="94" y="-17" type="curve"/>
      <point x="94" y="6"/>
      <point x="104" y="21"/>
      <point x="136" y="49" type="curve"/>
      <point x="174" y="80"/>
      <point x="189" y="113"/>
    </contour>
  </outline>
</glyph>
<glyph name="AE" format="1">
  <advance width="507"/>
  <unicode hex="00C6"/>
  <outline>
    <contour>
      <point x="163" y="391" type="line"/>
      <point x="-3" y="0" type="line"/>
      <point x="64" y="0" type="line"/>
      <point x="207" y="353" type="line"/>
      <point x="185" y="336" type="line"/>
      <point x="265" y="336" type="line"/>
      <point x="265" y="391" type="line"/>
    </contour>
    <contour>
      <point x="102" y="147" type="line"/>
      <point x="77" y="93" type="line"/>
      <point x="265" y="93" type="line"/>
      <point x="265" y="147" type="line"/>
    </contour>
    <contour>
      <point x="310" y="336" type="line"/>
      <point x="487" y="336" type="line"/>
      <point x="487" y="391" type="line"/>
      <point x="245" y="391" type="line"/>
      <point x="245" y="0" type="line"/>
      <point x="488" y="0" type="line"/>
      <point x="493" y="55" type="line"/>
      <point x="310" y="55" type="line"/>
      <point x="310" y="170" type="line"/>
      <point x="478" y="170" type="line"/>
      <point x="478" y="225" type="line"/>
      <point x="310" y="225" type="line"/>
    </contour>
    <contour>
      <point x="278" y="0" type="move" name="bottom"/>
    </contour>
    <contour>
      <point x="278" y="391" type="move" name="top"/>
    </contour>
  </outline>
</glyph>
<glyph name="multiply" format="1">
  <advance width="330"/>
  <unicode hex="00D7"/>
  <outline>
    <contour>
      <point x="240" y="24" type="line"/>
      <point x="280" y="63" type="line"/>
      <point x="90" y="252" type="line"/>
      <point x="50" y="213" type="line"/>
    </contour>
    <contour>
      <point x="280" y="213" type="line"/>
      <point x="240" y="252" type="line"/>
      <point x="50" y="63" type="line"/>
      <point x="90" y="24" type="line"/>
    </contour>
  </outline>
</glyph>
<glyph name="Thorn" format="1">
  <advance width="343"/>
  <unicode hex="00DE"/>
  <outline>
    <contour>
      <point x="176" y="330" type="curve"/>
      <point x="93" y="330" type="line"/>
      <point x="93" y="278" type="line"/>
      <point x="173" y="278" type="line" smooth="yes"/>
      <point x="236" y="278"/>
      <point x="264" y="258"/>
      <point x="264" y="211" type="curve"/>
      <point x="264" y="163"/>
      <point x="235" y="141"/>
      <point x="166" y="141" type="curve"/>
      <point x="93" y="141" type="line"/>
      <point x="93" y="88" type="line"/>
      <point x="162" y="88" type="line" smooth="yes"/>
      <point x="273" y="88"/>
      <point x="330" y="134"/>
      <point x="330" y="211" type="curve"/>
      <point x="330" y="289"/>
      <point x="276" y="330"/>
    </contour>
    <contour>
      <point x="106" y="0" type="line"/>
      <point x="106" y="391" type="line"/>
      <point x="41" y="391" type="line"/>
      <point x="41" y="0" type="line"/>
    </contour>
  </outline>
</glyph>
<glyph name="germandbls" format="1">
  <advance width="372"/>
  <unicode hex="00DF"/>
  <outline>
    <contour>
      <point x="260" y="-5" type="curve"/>
      <point x="324" y="-5"/>
      <point x="369" y="30"/>
      <point x="369" y="80" type="curve"/>
      <point x="369" y="179"/>
      <point x="223" y="153"/>
      <point x="223" y="206" type="curve"/>
      <point x="223" y="247"/>
      <point x="306" y="263"/>
      <point x="306" y="333" type="curve"/>
      <point x="306" y="380"/>
      <point x="262" y="413"/>
      <point x="199" y="413" type="curve"/>
      <point x="110" y="413"/>
      <point x="51" y="354"/>
      <point x="51" y="265" type="curve"/>
      <point x="51" y="0" type="line"/>
      <point x="113" y="0" type="line"/>
      <point x="113" y="267" type="line" smooth="yes"/>
      <point x="113" y="331"/>
      <point x="144" y="365"/>
      <point x="198" y="365" type="curve"/>
      <point x="232" y="365"/>
      <point x="250" y="351"/>
      <point x="250" y="331" type="curve"/>
      <point x="250" y="280"/>
      <point x="164" y="268"/>
      <point x="164" y="196" type="curve"/>
      <point x="164" y="101"/>
      <point x="308" y="130"/>
      <point x="308" y="76" type="curve"/>
      <point x="308" y="56"/>
      <point x="293" y="43"/>
      <point x="261" y="43" type="curve"/>
      <point x="230" y="43"/>
      <point x="209" y="58"/>
      <point x="203" y="88" type="curve"/>
      <point x="148" y="75" type="line"/>
      <point x="157" y="24"/>
      <point x="196" y="-5"/>
    </contour>
    <contour>
      <point x="-3" y="277" type="line"/>
      <point x="-3" y="227" type="line"/>
      <point x="86" y="227" type="line"/>
      <point x="86" y="277" type="line"/>
    </contour>
  </outline>
</glyph>
<glyph name="ae" format="1">
  <advance width="471"/>
  <unicode hex="00E6"/>
  <outline>
    <contour>
      <point x="126" y="-5" type="curve"/>
      <point x="180" y="-5"/>
      <point x="222" y="23"/>
      <point x="238" y="71" type="curve"/>
      <point x="222" y="69" type="line"/>
      <point x="243" y="20"/>
      <point x="282" y="-5"/>
      <point x="341" y="-5" type="curve"/>
      <point x="391" y="-5"/>
      <point x="425" y="13"/>
      <point x="450" y="46" type="curve"/>
      <point x="413" y="81" type="line"/>
      <point x="396" y="59"/>
      <point x="370" y="48"/>
      <point x="345" y="48" type="curve"/>
      <point x="292" y="48"/>
      <point x="262" y="78"/>
      <point x="262" y="124" type="curve"/>
      <point x="262" y="146" type="line" smooth="yes"/>
      <point x="262" y="197"/>
      <point x="289" y="236"/>
      <point x="336" y="236" type="curve"/>
      <point x="373" y="236"/>
      <point x="399" y="212"/>
      <point x="394" y="156" type="curve"/>
      <point x="409" y="164" type="line"/>
      <point x="248" y="164" type="line"/>
      <point x="248" y="119" type="line"/>
      <point x="448" y="119" type="line"/>
      <point x="461" y="222"/>
      <point x="417" y="281"/>
      <point x="333" y="281" type="curve"/>
      <point x="294" y="281"/>
      <point x="250" y="256"/>
      <point x="232" y="215" type="curve"/>
      <point x="248" y="211" type="line"/>
      <point x="234" y="260"/>
      <point x="196" y="281"/>
      <point x="145" y="281" type="curve"/>
      <point x="80" y="281"/>
      <point x="37" y="243"/>
      <point x="25" y="194" type="curve"/>
      <point x="80" y="184" type="line"/>
      <point x="88" y="214"/>
      <point x="109" y="231"/>
      <point x="143" y="231" type="curve"/>
      <point x="180" y="231"/>
      <point x="199" y="211"/>
      <point x="199" y="171" type="curve"/>
      <point x="199" y="114" type="line" smooth="yes"/>
      <point x="199" y="70"/>
      <point x="174" y="42"/>
      <point x="134" y="42" type="curve"/>
      <point x="103" y="42"/>
      <point x="83" y="58"/>
      <point x="83" y="81" type="curve"/>
      <point x="83" y="105"/>
      <point x="100" y="119"/>
      <point x="137" y="119" type="curve"/>
      <point x="218" y="119" type="line"/>
      <point x="218" y="164" type="line"/>
      <point x="133" y="164" type="line" smooth="yes"/>
      <point x="60" y="164"/>
      <point x="21" y="129"/>
      <point x="21" y="78" type="curve"/>
      <point x="21" y="30"/>
      <point x="65" y="-5"/>
    </contour>
    <contour>
      <point x="231" y="0" type="move" name="bottom"/>
    </contour>
    <contour>
      <point x="231" y="276" type="move" name="top"/>
    </contour>
  </outline>
</glyph>
<glyph name="eth" format="1">
  <advance width="320"/>
  <unicode hex="00F0"/>
  <outline>
    <contour>
      <point x="154" y="-5" type="curve"/>
      <point x="242" y="-5"/>
      <point x="299" y="66"/>
      <point x="299" y="162" type="curve"/>
      <point x="299" y="287"/>
      <point x="231" y="375"/>
      <point x="104" y="415" type="curve"/>
      <point x="83" y="369" type="line"/>
      <point x="176" y="340"/>
      <point x="230" y="276"/>
      <point x="236" y="189" type="curve"/>
      <point x="255" y="180" type="line"/>
      <point x="243" y="231"/>
      <point x="205" y="259"/>
      <point x="154" y="259" type="curve"/>
      <point x="81" y="259"/>
      <point x="23" y="201"/>
      <point x="23" y="121" type="curve"/>
      <point x="23" y="44"/>
      <point x="74" y="-5"/>
    </contour>
    <contour>
      <point x="157" y="48" type="curve"/>
      <point x="112" y="48"/>
      <point x="88" y="77"/>
      <point x="88" y="121" type="curve"/>
      <point x="88" y="174"/>
      <point x="120" y="207"/>
      <point x="164" y="207" type="curve"/>
      <point x="207" y="207"/>
      <point x="232" y="180"/>
      <point x="232" y="133" type="curve"/>
      <point x="232" y="85"/>
      <point x="201" y="48"/>
    </contour>
    <contour>
      <point x="76" y="317" type="line"/>
      <point x="86" y="281" type="line"/>
      <point x="290" y="344" type="line"/>
      <point x="280" y="379" type="line"/>
    </contour>
  </outline>
</glyph>
<glyph name="divide" format="1">
  <advance width="330"/>
  <unicode hex="00F7"/>
  <outline>
    <contour>
      <point x="302" y="113" type="line"/>
      <point x="302" y="163" type="line"/>
      <point x="28" y="163" type="line"/>
      <point x="28" y="113" type="line"/>
    </contour>
    <contour>
      <point x="165" y="-5" type="curve"/>
      <point x="185" y="-5"/>
      <point x="199" y="9"/>
      <point x="199" y="27" type="curve"/>
      <point x="199" y="45"/>
      <point x="185" y="59"/>
      <point x="165" y="59" type="curve"/>
      <point x="146" y="59"/>
      <point x="131" y="45"/>
      <point x="131" y="27" type="curve"/>
      <point x="131" y="9"/>
      <point x="146" y="-5"/>
    </contour>
    <contour>
      <point x="165" y="218" type="curve"/>
      <point x="185" y="218"/>
      <point x="199" y="232"/>
      <point x="199" y="250" type="curve"/>
      <point x="199" y="268"/>
      <point x="185" y="282"/>
      <point x="165" y="282" type="curve"/>
      <point x="146" y="282"/>
      <point x="131" y="268"/>
      <point x="131" y="250" type="curve"/>
      <point x="131" y="232"/>
      <point x="146" y="218"/>
    </contour>
  </outline>
</glyph>
<glyph name="eogonek" format="1">
  <advance width="298"/>
  <unicode hex="0119"/>
  <outline>
    <contour>
      <point x="198" y="-123" type="curve"/>
      <point x="223" y="-123"/>
      <point x="246" y="-112"/>
      <point x="258" y="-95" type="curve"/>
      <point x="236" y="-65" type="line"/>
      <point x="226" y="-78"/>
      <point x="215" y="-84"/>
      <point x="204" y="-84" type="curve"/>
      <point x="187" y="-84"/>
      <point x="177" y="-75"/>
      <point x="177" y="-59" type="curve"/>
      <point x="177" y="-38"/>
      <point x="192" y="-18"/>
      <point x="239" y="12" type="curve"/>
      <point x="253" y="21"/>
      <point x="267" y="32"/>
      <point x="276" y="47" type="curve"/>
      <point x="240" y="81" type="line"/>
      <point x="223" y="59"/>
      <point x="197" y="48"/>
      <point x="172" y="48" type="curve"/>
      <point x="118" y="48"/>
      <point x="87" y="78"/>
      <point x="87" y="126" type="curve"/>
      <point x="87" y="144" type="line" smooth="yes"/>
      <point x="87" y="197"/>
      <point x="116" y="236"/>
      <point x="161" y="236" type="curve"/>
      <point x="200" y="236"/>
      <point x="226" y="212"/>
      <point x="221" y="156" type="curve"/>
      <point x="235" y="164" type="line"/>
      <point x="70" y="164" type="line"/>
      <point x="70" y="119" type="line"/>
      <point x="275" y="119" type="line"/>
      <point x="287" y="222"/>
      <point x="244" y="281"/>
      <point x="160" y="281" type="curve"/>
      <point x="82" y="281"/>
      <point x="24" y="221"/>
      <point x="24" y="134" type="curve"/>
      <point x="24" y="48"/>
      <point x="79" y="-5"/>
      <point x="168" y="-5" type="curve"/>
      <point x="185" y="-5" type="line"/>
      <point x="177" y="5" type="line"/>
      <point x="144" y="-11"/>
      <point x="124" y="-37"/>
      <point x="124" y="-66" type="curve"/>
      <point x="124" y="-100"/>
      <point x="153" y="-123"/>
    </contour>
    <contour>
      <point x="159" y="276" type="move" name="top"/>
    </contour>
  </outline>
</glyph>
<glyph name="dotlessi" format="1">
  <advance width="135"/>
  <unicode hex="0131"/>
  <outline>
    <contour>
      <point x="99" y="0" type="line"/>
      <point x="99" y="276" type="line"/>
      <point x="37" y="276" type="line"/>
      <point x="37" y="0" type="line"/>
    </contour>
    <contour>
      <point x="68" y="0" type="move" name="bottom"/>
    </contour>
    <contour>
      <point x="99" y="0" type="move" name="ogonek"/>
    </contour>
    <contour>
      <point x="68" y="276" type="move" name="top"/>
    </contour>
  </outline>
</glyph>
<glyph name="kgreenlandic" format="1">
  <advance width="283"/>
  <unicode hex="0138"/>
  <outline>
    <contour>
      <point x="37" y="276" type="line"/>
      <point x="37" y="0" type="line"/>
      <point x="99" y="0" type="line"/>
      <point x="99" y="276" type="line"/>
    </contour>
    <contour>
      <point x="300" y="9" type="curve"/>
      <point x="286" y="54" type="line"/>
      <point x="278" y="49"/>
      <point x="268" y="46"/>
      <point x="258" y="46" type="curve"/>
      <point x="237" y="46"/>
      <point x="222" y="54"/>
      <point x="209" y="74" type="curve"/>
      <point x="178" y="121" type="line" smooth="yes"/>
      <point x="162" y="144"/>
      <point x="143" y="154"/>
      <point x="117" y="154" type="curve"/>
      <point x="144" y="131" type="line"/>
      <point x="286" y="276" type="line"/>
      <point x="210" y="276" type="line"/>
      <point x="90" y="153" type="line"/>
      <point x="70" y="128" type="line"/>
      <point x="94" y="128"/>
      <point x="108" y="120"/>
      <point x="127" y="91" type="curve"/>
      <point x="158" y="44" type="line" smooth="yes"/>
      <point x="181" y="10"/>
      <point x="206" y="-4"/>
      <point x="246" y="-4" type="curve"/>
      <point x="266" y="-5"/>
      <point x="284" y="-1"/>
    </contour>
  </outline>
</glyph>
<glyph name="Eng" format="1">
  <advance width="404"/>
  <unicode hex="014A"/>
  <outline>
    <contour>
      <point x="253" y="-115" type="curve"/>
      <point x="320" y="-115"/>
      <point x="363" y="-69"/>
      <point x="363" y="9" type="curve"/>
      <point x="363" y="391" type="line"/>
      <point x="299" y="391" type="line"/>
      <point x="299" y="60" type="line"/>
      <point x="325" y="71" type="line"/>
      <point x="99" y="391" type="line"/>
      <point x="41" y="391" type="line"/>
      <point x="41" y="0" type="line"/>
      <point x="105" y="0" type="line"/>
      <point x="105" y="331" type="line"/>
      <point x="79" y="320" type="line"/>
      <point x="305" y="0" type="line"/>
      <point x="300" y="27" type="line"/>
      <point x="300" y="-7" type="line" smooth="yes"/>
      <point x="300" y="-38"/>
      <point x="283" y="-59"/>
      <point x="255" y="-59" type="curve"/>
      <point x="228" y="-59"/>
      <point x="210" y="-44"/>
      <point x="204" y="-12" type="curve"/>
      <point x="150" y="-35" type="line"/>
      <point x="159" y="-86"/>
      <point x="201" y="-115"/>
    </contour>
  </outline>
</glyph>
<glyph name="eng" format="1">
  <advance width="328"/>
  <unicode hex="014B"/>
  <outline>
    <contour>
      <point x="295" y="3" type="curve"/>
      <point x="295" y="160" type="line" smooth="yes"/>
      <point x="296" y="238"/>
      <point x="264" y="281"/>
      <point x="203" y="281" type="curve"/>
      <point x="142" y="281"/>
      <point x="96" y="236"/>
      <point x="82" y="157" type="curve"/>
      <point x="94" y="164" type="line"/>
      <point x="99" y="276" type="line"/>
      <point x="37" y="276" type="line"/>
      <point x="37" y="0" type="line"/>
      <point x="99" y="0" type="line"/>
      <point x="100" y="173"/>
      <point x="136" y="225"/>
      <point x="187" y="225" type="curve"/>
      <point x="219" y="225"/>
      <point x="234" y="201"/>
      <point x="233" y="154" type="curve"/>
      <point x="232" y="4" type="line" smooth="yes"/>
      <point x="231" y="-38"/>
      <point x="217" y="-62"/>
      <point x="180" y="-62" type="curve"/>
      <point x="166" y="-62"/>
      <point x="151" y="-60"/>
      <point x="139" y="-55" type="curve"/>
      <point x="127" y="-103" type="line"/>
      <point x="141" y="-110"/>
      <point x="163" y="-113"/>
      <point x="183" y="-113" type="curve"/>
      <point x="250" y="-113"/>
      <point x="294" y="-69"/>
    </contour>
  </outline>
</glyph>
<glyph name="OE" format="1">
  <advance width="551"/>
  <unicode hex="0152"/>
  <outline>
    <contour>
      <point x="537" y="55" type="line"/>
      <point x="354" y="55" type="line"/>
      <point x="354" y="170" type="line"/>
      <point x="522" y="170" type="line"/>
      <point x="522" y="225" type="line"/>
      <point x="354" y="225" type="line"/>
      <point x="354" y="336" type="line"/>
      <point x="530" y="336" type="line"/>
      <point x="530" y="391" type="line"/>
      <point x="336" y="391" type="line" smooth="yes"/>
      <point x="308" y="391"/>
      <point x="276" y="394"/>
      <point x="246" y="394" type="curve"/>
      <point x="108" y="394"/>
      <point x="26" y="313"/>
      <point x="26" y="186" type="curve"/>
      <point x="26" y="65"/>
      <point x="99" y="-3"/>
      <point x="241" y="-3" type="curve"/>
      <point x="271" y="-3"/>
      <point x="298" y="0"/>
      <point x="330" y="0" type="curve"/>
      <point x="532" y="0" type="line"/>
    </contour>
    <contour>
      <point x="289" y="336" type="curve"/>
      <point x="289" y="55" type="line"/>
      <point x="272" y="53"/>
      <point x="255" y="52"/>
      <point x="239" y="52" type="curve"/>
      <point x="140" y="52"/>
      <point x="93" y="100"/>
      <point x="93" y="188" type="curve"/>
      <point x="93" y="286"/>
      <point x="150" y="339"/>
      <point x="245" y="339" type="curve"/>
      <point x="263" y="339"/>
      <point x="276" y="337"/>
    </contour>
    <contour>
      <point x="322" y="0" type="move" name="bottom"/>
    </contour>
    <contour>
      <point x="322" y="391" type="move" name="top"/>
    </contour>
  </outline>
</glyph>
<glyph name="oe" format="1">
  <advance width="504"/>
  <unicode hex="0153"/>
  <outline>
    <contour>
      <point x="162" y="281" type="curve"/>
      <point x="79" y="281"/>
      <point x="24" y="217"/>
      <point x="24" y="132" type="curve"/>
      <point x="24" y="48"/>
      <point x="73" y="-5"/>
      <point x="154" y="-5" type="curve"/>
      <point x="236" y="-5"/>
      <point x="285" y="59"/>
      <point x="285" y="144" type="curve"/>
      <point x="285" y="228"/>
      <point x="242" y="281"/>
    </contour>
    <contour>
      <point x="157" y="48" type="curve"/>
      <point x="113" y="48"/>
      <point x="88" y="79"/>
      <point x="88" y="132" type="curve"/>
      <point x="88" y="189"/>
      <point x="118" y="228"/>
      <point x="164" y="228" type="curve"/>
      <point x="206" y="228"/>
      <point x="232" y="198"/>
      <point x="232" y="144" type="curve"/>
      <point x="232" y="86"/>
      <point x="202" y="48"/>
    </contour>
    <contour>
      <point x="374" y="-5" type="curve"/>
      <point x="424" y="-5"/>
      <point x="458" y="13"/>
      <point x="483" y="46" type="curve"/>
      <point x="447" y="81" type="line"/>
      <point x="429" y="59"/>
      <point x="403" y="48"/>
      <point x="378" y="48" type="curve"/>
      <point x="325" y="48"/>
      <point x="296" y="78"/>
      <point x="296" y="125" type="curve"/>
      <point x="296" y="146" type="line" smooth="yes"/>
      <point x="296" y="197"/>
      <point x="322" y="236"/>
      <point x="369" y="236" type="curve"/>
      <point x="406" y="236"/>
      <point x="432" y="212"/>
      <point x="427" y="156" type="curve"/>
      <point x="442" y="164" type="line"/>
      <point x="281" y="164" type="line"/>
      <point x="281" y="119" type="line"/>
      <point x="481" y="119" type="line"/>
      <point x="494" y="222"/>
      <point x="450" y="281"/>
      <point x="366" y="281" type="curve"/>
      <point x="301" y="281"/>
      <point x="244" y="222"/>
      <point x="244" y="134" type="curve"/>
      <point x="244" y="47"/>
      <point x="291" y="-5"/>
    </contour>
    <contour>
      <point x="264" y="0" type="move" name="bottom"/>
    </contour>
    <contour>
      <point x="264" y="276" type="move" name="top"/>
    </contour>
  </outline>
</glyph>
<glyph name="Uogonek" format="1">
  <advance width="407"/>
  <unicode hex="0172"/>
  <outline>
    <contour>
      <point x="223" y="-123" type="curve"/>
      <point x="248" y="-123"/>
      <point x="271" y="-112"/>
      <point x="283" y="-95" type="curve"/>
      <point x="261" y="-65" type="line"/>
      <point x="251" y="-78"/>
      <point x="240" y="-84"/>
      <point x="229" y="-84" type="curve"/>
      <point x="212" y="-84"/>
      <point x="202" y="-75"/>
      <point x="202" y="-59" type="curve"/>
      <point x="202" y="-38"/>
      <point x="218" y="-15"/>
      <point x="272" y="7" type="curve"/>
      <point x="334" y="32"/>
      <point x="369" y="93"/>
      <point x="368" y="184" type="curve"/>
      <point x="367" y="391" type="line"/>
      <point x="302" y="391" type="line"/>
      <point x="302" y="187" type="line" smooth="yes"/>
      <point x="303" y="95"/>
      <point x="271" y="53"/>
      <point x="203" y="53" type="curve"/>
      <point x="138" y="53"/>
      <point x="106" y="88"/>
      <point x="106" y="170" type="curve"/>
      <point x="106" y="391" type="line"/>
      <point x="39" y="391" type="line"/>
      <point x="39" y="166" type="line" smooth="yes"/>
      <point x="39" y="50"/>
      <point x="95" y="-5"/>
      <point x="204" y="-5" type="curve"/>
      <point x="217" y="-5" type="line"/>
      <point x="210" y="9" type="line"/>
      <point x="169" y="-8"/>
      <point x="150" y="-37"/>
      <point x="150" y="-66" type="curve"/>
      <point x="150" y="-100"/>
      <point x="179" y="-123"/>
    </contour>
    <contour>
      <point x="204" y="391" type="move" name="top"/>
    </contour>
  </outline>
</glyph>
<glyph name="florin" format="1">
  <advance width="330"/>
  <unicode hex="0192"/>
  <outline>
    <contour>
      <point x="267" y="276" type="line"/>
      <point x="68" y="276" type="line"/>
      <point x="68" y="226" type="line"/>
      <point x="267" y="226" type="line"/>
    </contour>
    <contour>
      <point x="235" y="413" type="curve"/>
      <point x="169" y="413"/>
      <point x="118" y="366"/>
      <point x="122" y="289" type="curve"/>
      <point x="135" y="18" type="line" smooth="yes"/>
      <point x="137" y="-37"/>
      <point x="118" y="-61"/>
      <point x="79" y="-61" type="curve"/>
      <point x="62" y="-61"/>
      <point x="46" y="-58"/>
      <point x="33" y="-53" type="curve"/>
      <point x="22" y="-103" type="line"/>
      <point x="37" y="-110"/>
      <point x="59" y="-113"/>
      <point x="81" y="-113" type="curve"/>
      <point x="151" y="-113"/>
      <point x="202" y="-70"/>
      <point x="197" y="17" type="curve"/>
      <point x="184" y="241" type="line"/>
      <point x="183" y="268" type="line"/>
      <point x="182" y="294" type="line" smooth="yes"/>
      <point x="181" y="340"/>
      <point x="202" y="362"/>
      <point x="234" y="362" type="curve"/>
      <point x="257" y="362"/>
      <point x="272" y="350"/>
      <point x="275" y="328" type="curve"/>
      <point x="328" y="335" type="line"/>
      <point x="322" y="386"/>
      <point x="288" y="413"/>
    </contour>
  </outline>
</glyph>
<glyph name="Uhorn" format="1">
  <advance width="407"/>
  <unicode hex="01AF"/>
  <outline>
    <contour>
      <point x="448" y="446" type="curve"/>
      <point x="396" y="450" type="line"/>
      <point x="394" y="402"/>
      <point x="384" y="391"/>
      <point x="346" y="391" type="curve"/>
      <point x="302" y="391" type="line"/>
      <point x="302" y="187" type="line" smooth="yes"/>
      <point x="303" y="95"/>
      <point x="271" y="53"/>
      <point x="203" y="53" type="curve"/>
      <point x="138" y="53"/>
      <point x="106" y="88"/>
      <point x="106" y="170" type="curve"/>
      <point x="106" y="391" type="line"/>
      <point x="39" y="391" type="line"/>
      <point x="39" y="166" type="line" smooth="yes"/>
      <point x="39" y="50"/>
      <point x="95" y="-5"/>
      <point x="204" y="-5" type="curve"/>
      <point x="309" y="-4"/>
      <point x="369" y="65"/>
      <point x="368" y="184" type="curve"/>
      <point x="368" y="361" type="line"/>
      <point x="335" y="343" type="line"/>
      <point x="361" y="343" type="line" smooth="yes"/>
      <point x="418" y="343"/>
      <point x="452" y="387"/>
    </contour>
    <contour>
      <point x="204" y="0" type="move" name="bottom"/>
    </contour>
    <contour>
      <point x="204" y="391" type="move" name="top"/>
    </contour>
  </outline>
</glyph>
<glyph name="uhorn" format="1">
  <advance width="322"/>
  <unicode hex="01B0"/>
  <outline>
    <contour>
      <point x="344" y="332" type="curve"/>
      <point x="291" y="336" type="line"/>
      <point x="290" y="290"/>
      <point x="279" y="276"/>
      <point x="246" y="276" type="curve"/>
      <point x="225" y="276" type="line"/>
      <point x="224" y="104"/>
      <point x="189" y="51"/>
      <point x="140" y="51" type="curve"/>
      <point x="109" y="51"/>
      <point x="95" y="76"/>
      <point x="95" y="116" type="curve"/>
      <point x="97" y="276" type="line"/>
      <point x="34" y="276" type="line"/>
      <point x="33" y="111" type="line" smooth="yes"/>
      <point x="32" y="38"/>
      <point x="64" y="-5"/>
      <point x="124" y="-5" type="curve"/>
      <point x="184" y="-5"/>
      <point x="230" y="41"/>
      <point x="244" y="129" type="curve"/>
      <point x="230" y="121" type="line"/>
      <point x="225" y="0" type="line"/>
      <point x="286" y="0" type="line"/>
      <point x="286" y="252" type="line"/>
      <point x="251" y="232" type="line"/>
      <point x="309" y="232"/>
      <point x="347" y="273"/>
    </contour>
    <contour>
      <point x="161" y="0" type="move" name="bottom"/>
    </contour>
    <contour>
      <point x="161" y="276" type="move" name="top"/>
    </contour>
  </outline>
</glyph>
<glyph name="gravecomb" format="1">
  <advance width="353"/>
  <unicode hex="0300"/>
  <outline>
    <contour>
      <point x="83" y="396" type="line"/>
      <point x="156" y="315" type="line"/>
      <point x="212" y="315" type="line"/>
      <point x="147" y="413" type="line"/>
    </contour>
    <contour>
      <point x="184" y="276" type="move" name="_top"/>
    </contour>
    <contour>
      <point x="184" y="412" type="move" name="top"/>
    </contour>
  </outline>
</glyph>
<glyph name="acutecomb" format="1">
  <advance width="353"/>
  <unicode hex="0301"/>
  <outline>
    <contour>
      <point x="155" y="315" type="line"/>
      <point x="211" y="315" type="line"/>
      <point x="285" y="396" type="line"/>
      <point x="220" y="413" type="line"/>
    </contour>
    <contour>
      <point x="184" y="276" type="move" name="_top"/>
    </contour>
    <contour>
      <point x="184" y="412" type="move" name="top"/>
    </contour>
  </outline>
</glyph>
<glyph name="hookabovecomb" format="1">
  <advance width="347"/>
  <unicode hex="0309"/>
  <outline>
    <contour>
      <point x="190" y="413" type="curve"/>
      <point x="162" y="413"/>
      <point x="138" y="402"/>
      <point x="122" y="381" type="curve"/>
      <point x="147" y="360" type="line"/>
      <point x="157" y="375"/>
      <point x="170" y="381"/>
      <point x="184" y="381" type="curve"/>
      <point x="193" y="381"/>
      <point x="199" y="378"/>
      <point x="199" y="371" type="curve"/>
      <point x="199" y="357"/>
      <point x="167" y="355"/>
      <point x="167" y="323" type="curve"/>
      <point x="167" y="315" type="line"/>
      <point x="202" y="315" type="line"/>
      <point x="202" y="342"/>
      <point x="247" y="338"/>
      <point x="247" y="376" type="curve"/>
      <point x="247" y="399"/>
      <point x="223" y="413"/>
    </contour>
    <contour>
      <point x="184" y="276" type="move" name="_top"/>
    </contour>
    <contour>
      <point x="184" y="412" type="move" name="top"/>
    </contour>
  </outline>
</glyph>
<glyph name="dotbelowcomb" format="1">
  <advance width="357"/>
  <unicode hex="0323"/>
  <outline>
    <contour>
      <point x="178" y="-116" type="curve"/>
      <point x="205" y="-116"/>
      <point x="221" y="-99"/>
      <point x="221" y="-78" type="curve"/>
      <point x="221" y="-58"/>
      <point x="205" y="-41"/>
      <point x="178" y="-41" type="curve"/>
      <point x="153" y="-41"/>
      <point x="136" y="-58"/>
      <point x="136" y="-78" type="curve"/>
      <point x="136" y="-99"/>
      <point x="152" y="-116"/>
    </contour>
    <contour>
      <point x="178" y="0" type="move" name="_bottom"/>
    </contour>
    <contour>
      <point x="178" y="-121" type="move" name="bottom"/>
    </contour>
  </outline>
</glyph>
<glyph name="pi" format="1">
  <advance width="359"/>
  <unicode hex="03C0"/>
  <outline>
    <contour>
      <point x="40" y="0" type="curve"/>
      <point x="106" y="0" type="line"/>
      <point x="125" y="73"/>
      <point x="135" y="150"/>
      <point x="136" y="254" type="curve"/>
      <point x="74" y="254" type="line"/>
      <point x="74" y="157"/>
      <point x="62" y="77"/>
    </contour>
    <contour>
      <point x="12" y="276" type="line"/>
      <point x="12" y="226" type="line"/>
      <point x="330" y="226" type="line"/>
      <point x="330" y="276" type="line"/>
    </contour>
    <contour>
      <point x="299" y="-5" type="curve"/>
      <point x="327" y="-5"/>
      <point x="351" y="2"/>
      <point x="366" y="15" type="curve"/>
      <point x="347" y="60" type="line"/>
      <point x="334" y="51"/>
      <point x="323" y="47"/>
      <point x="308" y="47" type="curve"/>
      <point x="282" y="47"/>
      <point x="267" y="64"/>
      <point x="267" y="93" type="curve"/>
      <point x="267" y="254" type="line"/>
      <point x="206" y="254" type="line"/>
      <point x="206" y="87" type="line" smooth="yes"/>
      <point x="206" y="29"/>
      <point x="241" y="-5"/>
    </contour>
  </outline>
</glyph>
<glyph name="endash" format="1">
  <advance width="275"/>
  <unicode hex="2013"/>
  <outline>
    <contour>
      <point x="11" y="167" type="line"/>
      <point x="11" y="117" type="line"/>
      <point x="264" y="117" type="line"/>
      <point x="264" y="167" type="line"/>
    </contour>
  </outline>
</glyph>
<glyph name="emdash" format="1">
  <advance width="550"/>
  <unicode hex="2014"/>
  <outline>
    <contour>
      <point x="11" y="167" type="line"/>
      <point x="11" y="117" type="line"/>
      <point x="539" y="117" type="line"/>
      <point x="539" y="167" type="line"/>
    </contour>
  </outline>
</glyph>
<glyph name="quoteleft" format="1">
  <advance width="130"/>
  <unicode hex="2018"/>
  <outline>
    <contour>
      <point x="107" y="413" type="curve"/>
      <point x="75" y="413" type="line"/>
      <point x="45" y="381"/>
      <point x="23" y="334"/>
      <point x="23" y="302" type="curve"/>
      <point x="23" y="273"/>
      <point x="38" y="257"/>
      <point x="64" y="257" type="curve"/>
      <point x="89" y="257"/>
      <point x="106" y="273"/>
      <point x="106" y="293" type="curve"/>
      <point x="106" y="317"/>
      <point x="92" y="329"/>
      <point x="92" y="356" type="curve"/>
      <point x="92" y="372"/>
      <point x="97" y="391"/>
    </contour>
  </outline>
</glyph>
<glyph name="quoteright" format="1">
  <advance width="130"/>
  <unicode hex="2019"/>
  <outline>
    <contour>
      <point x="23" y="257" type="curve"/>
      <point x="55" y="257" type="line"/>
      <point x="84" y="288"/>
      <point x="107" y="336"/>
      <point x="107" y="367" type="curve"/>
      <point x="107" y="396"/>
      <point x="92" y="413"/>
      <point x="65" y="413" type="curve"/>
      <point x="41" y="413"/>
      <point x="24" y="397"/>
      <point x="24" y="376" type="curve"/>
      <point x="24" y="352"/>
      <point x="38" y="340"/>
      <point x="38" y="313" type="curve"/>
      <point x="38" y="297"/>
      <point x="32" y="279"/>
    </contour>
  </outline>
</glyph>
<glyph name="dagger" format="1">
  <advance width="230"/>
  <unicode hex="2020"/>
  <outline>
    <contour>
      <point x="142" y="327" type="line"/>
      <point x="142" y="407" type="line"/>
      <point x="88" y="407" type="line"/>
      <point x="88" y="327" type="line"/>
      <point x="14" y="327" type="line"/>
      <point x="14" y="281" type="line"/>
      <point x="88" y="281" type="line"/>
      <point x="88" y="113" type="line"/>
      <point x="142" y="113" type="line"/>
      <point x="142" y="281" type="line"/>
      <point x="216" y="281" type="line"/>
      <point x="216" y="327" type="line"/>
    </contour>
  </outline>
</glyph>
<glyph name="daggerdbl" format="1">
  <advance width="230"/>
  <unicode hex="2021"/>
  <outline>
    <contour>
      <point x="142" y="281" type="line"/>
      <point x="216" y="281" type="line"/>
      <point x="216" y="327" type="line"/>
      <point x="142" y="327" type="line"/>
      <point x="142" y="407" type="line"/>
      <point x="88" y="407" type="line"/>
      <point x="88" y="327" type="line"/>
      <point x="14" y="327" type="line"/>
      <point x="14" y="281" type="line"/>
      <point x="88" y="281" type="line"/>
      <point x="88" y="183" type="line"/>
      <point x="14" y="183" type="line"/>
      <point x="14" y="137" type="line"/>
      <point x="88" y="137" type="line"/>
      <point x="88" y="57" type="line"/>
      <point x="142" y="57" type="line"/>
      <point x="142" y="137" type="line"/>
      <point x="216" y="137" type="line"/>
      <point x="216" y="183" type="line"/>
      <point x="142" y="183" type="line"/>
    </contour>
  </outline>
</glyph>
<glyph name="bullet" format="1">
  <advance width="245"/>
  <unicode hex="2022"/>
  <outline>
    <contour>
      <point x="122" y="50" type="curve"/>
      <point x="175" y="50"/>
      <point x="216" y="90"/>
      <point x="216" y="144" type="curve"/>
      <point x="216" y="198"/>
      <point x="175" y="238"/>
      <point x="122" y="238" type="curve"/>
      <point x="70" y="238"/>
      <point x="29" y="198"/>
      <point x="29" y="144" type="curve"/>
      <point x="29" y="90"/>
      <point x="70" y="50"/>
    </contour>
  </outline>
</glyph>
<glyph name="perthousand" format="1">
  <advance width="640"/>
  <unicode hex="2030"/>
  <outline>
    <contour>
      <point x="520" y="-4" type="curve"/>
      <point x="576" y="-4"/>
      <point x="617" y="35"/>
      <point x="617" y="88" type="curve"/>
      <point x="617" y="137"/>
      <point x="582" y="170"/>
      <point x="528" y="170" type="curve"/>
      <point x="471" y="170"/>
      <point x="430" y="132"/>
      <point x="430" y="79" type="curve"/>
      <point x="430" y="29"/>
      <point x="466" y="-4"/>
    </contour>
    <contour>
      <point x="522" y="34" type="curve"/>
      <point x="493" y="34"/>
      <point x="476" y="51"/>
      <point x="476" y="79" type="curve"/>
      <point x="476" y="110"/>
      <point x="496" y="132"/>
      <point x="526" y="132" type="curve"/>
      <point x="554" y="132"/>
      <point x="571" y="115"/>
      <point x="571" y="87" type="curve"/>
      <point x="571" y="56"/>
      <point x="551" y="34"/>
    </contour>
    <component base="percent"/>
  </outline>
</glyph>
<glyph name="guilsinglleft" format="1">
  <advance width="159"/>
  <unicode hex="2039"/>
  <outline>
    <contour>
      <point x="18" y="127" type="line"/>
      <point x="83" y="39" type="line"/>
      <point x="151" y="39" type="line"/>
      <point x="65" y="154" type="line"/>
      <point x="65" y="124" type="line"/>
      <point x="151" y="240" type="line"/>
      <point x="83" y="240" type="line"/>
      <point x="18" y="151" type="line"/>
    </contour>
  </outline>
</glyph>
<glyph name="guilsinglright" format="1">
  <advance width="159"/>
  <unicode hex="203A"/>
  <outline>
    <contour>
      <point x="8" y="39" type="line"/>
      <point x="75" y="39" type="line"/>
      <point x="140" y="127" type="line"/>
      <point x="140" y="151" type="line"/>
      <point x="75" y="240" type="line"/>
      <point x="8" y="240" type="line"/>
      <point x="94" y="124" type="line"/>
      <point x="94" y="154" type="line"/>
    </contour>
  </outline>
</glyph>
<glyph name="colonmonetary" format="1">
  <advance width="330"/>
  <unicode hex="20A1"/>
  <outline>
    <contour>
      <point x="189" y="-5" type="curve"/>
      <point x="240" y="-5"/>
      <point x="289" y="22"/>
      <point x="315" y="76" type="curve"/>
      <point x="267" y="105" type="line"/>
      <point x="250" y="71"/>
      <point x="222" y="50"/>
      <point x="190" y="50" type="curve"/>
      <point x="134" y="50"/>
      <point x="97" y="90"/>
      <point x="97" y="189" type="curve"/>
      <point x="97" y="290"/>
      <point x="140" y="341"/>
      <point x="196" y="341" type="curve"/>
      <point x="226" y="341"/>
      <point x="251" y="323"/>
      <point x="266" y="291" type="curve"/>
      <point x="316" y="319" type="line"/>
      <point x="289" y="372"/>
      <point x="247" y="396"/>
      <point x="196" y="396" type="curve"/>
      <point x="105" y="396"/>
      <point x="33" y="322"/>
      <point x="33" y="188" type="curve"/>
      <point x="33" y="57"/>
      <point x="97" y="-5"/>
    </contour>
    <contour>
      <point x="107" y="29" type="line"/>
      <point x="97" y="-66" type="line"/>
      <point x="141" y="-66" type="line"/>
      <point x="151" y="29" type="line"/>
    </contour>
    <contour>
      <point x="186" y="18" type="line"/>
      <point x="178" y="-66" type="line"/>
      <point x="222" y="-66" type="line"/>
      <point x="231" y="18" type="line"/>
    </contour>
    <contour>
      <point x="152" y="457" type="line"/>
      <point x="143" y="369" type="line"/>
      <point x="187" y="369" type="line"/>
      <point x="196" y="457" type="line"/>
    </contour>
    <contour>
      <point x="233" y="457" type="line"/>
      <point x="222" y="358" type="line"/>
      <point x="266" y="358" type="line"/>
      <point x="277" y="457" type="line"/>
    </contour>
  </outline>
</glyph>
<glyph name="franc" format="1">
  <advance width="330"/>
  <unicode hex="20A3"/>
  <outline>
    <contour>
      <point x="128" y="336" type="line"/>
      <point x="299" y="336" type="line"/>
      <point x="299" y="391" type="line"/>
      <point x="63" y="391" type="line"/>
      <point x="63" y="0" type="line"/>
      <point x="128" y="0" type="line"/>
      <point x="128" y="164" type="line"/>
      <point x="290" y="164" type="line"/>
      <point x="290" y="219" type="line"/>
      <point x="128" y="219" type="line"/>
    </contour>
    <contour>
      <point x="19" y="108" type="line"/>
      <point x="19" y="66" type="line"/>
      <point x="215" y="66" type="line"/>
      <point x="215" y="108" type="line"/>
    </contour>
  </outline>
</glyph>
<glyph name="dong" format="1">
  <advance width="329"/>
  <unicode hex="20AB"/>
  <outline>
    <contour>
      <point x="283" y="0" type="line"/>
      <point x="283" y="407" type="line"/>
      <point x="220" y="407" type="line"/>
      <point x="220" y="281" type="line"/>
      <point x="222" y="232" type="line"/>
      <point x="230" y="234" type="line"/>
      <point x="218" y="263"/>
      <point x="195" y="281"/>
      <point x="161" y="281" type="curve"/>
      <point x="89" y="281"/>
      <point x="36" y="220"/>
      <point x="36" y="126" type="curve"/>
      <point x="36" y="48"/>
      <point x="72" y="-5"/>
      <point x="138" y="-5" type="curve"/>
      <point x="187" y="-5"/>
      <point x="219" y="30"/>
      <point x="233" y="88" type="curve"/>
      <point x="225" y="98" type="line"/>
      <point x="221" y="0" type="line"/>
    </contour>
    <contour>
      <point x="166" y="228" type="curve"/>
      <point x="200" y="228"/>
      <point x="221" y="200"/>
      <point x="221" y="154" type="curve"/>
      <point x="221" y="92"/>
      <point x="191" y="48"/>
      <point x="152" y="48" type="curve"/>
      <point x="120" y="48"/>
      <point x="100" y="76"/>
      <point x="100" y="129" type="curve"/>
      <point x="100" y="190"/>
      <point x="126" y="228"/>
    </contour>
    <contour>
      <point x="135" y="366" type="line"/>
      <point x="135" y="324" type="line"/>
      <point x="323" y="324" type="line"/>
      <point x="323" y="366" type="line"/>
    </contour>
    <contour>
      <point x="47" y="-33" type="line"/>
      <point x="47" y="-75" type="line"/>
      <point x="283" y="-75" type="line"/>
      <point x="283" y="-33" type="line"/>
    </contour>
  </outline>
</glyph>
<glyph name="Euro" format="1">
  <advance width="330"/>
  <unicode hex="20AC"/>
  <outline>
    <contour>
      <point x="315" y="76" type="curve"/>
      <point x="267" y="105" type="line"/>
      <point x="251" y="71"/>
      <point x="225" y="50"/>
      <point x="195" y="50" type="curve"/>
      <point x="142" y="50"/>
      <point x="108" y="90"/>
      <point x="108" y="189" type="curve"/>
      <point x="108" y="290"/>
      <point x="148" y="341"/>
      <point x="200" y="341" type="curve"/>
      <point x="228" y="341"/>
      <point x="252" y="323"/>
      <point x="266" y="291" type="curve"/>
      <point x="316" y="319" type="line"/>
      <point x="290" y="372"/>
      <point x="250" y="396"/>
      <point x="200" y="396" type="curve"/>
      <point x="113" y="396"/>
      <point x="44" y="322"/>
      <point x="44" y="188" type="curve"/>
      <point x="44" y="57"/>
      <point x="105" y="-5"/>
      <point x="194" y="-5" type="curve"/>
      <point x="243" y="-5"/>
      <point x="290" y="22"/>
    </contour>
    <contour>
      <point x="8" y="260" type="line"/>
      <point x="8" y="218" type="line"/>
      <point x="208" y="218" type="line"/>
      <point x="208" y="260" type="line"/>
    </contour>
    <contour>
      <point x="8" y="174" type="line"/>
      <point x="8" y="132" type="line"/>
      <point x="208" y="132" type="line"/>
      <point x="208" y="174" type="line"/>
    </contour>
  </outline>
</glyph>
<glyph name="partialdiff" format="1">
  <advance width="330"/>
  <unicode hex="2202"/>
  <outline>
    <contour>
      <point x="158" y="-5" type="curve"/>
      <point x="249" y="-5"/>
      <point x="305" y="65"/>
      <point x="305" y="173" type="curve"/>
      <point x="305" y="321"/>
      <point x="218" y="410"/>
      <point x="83" y="410" type="curve"/>
      <point x="74" y="356" type="line"/>
      <point x="177" y="356"/>
      <point x="239" y="295"/>
      <point x="242" y="189" type="curve"/>
      <point x="259" y="180" type="line"/>
      <point x="247" y="230"/>
      <point x="212" y="259"/>
      <point x="158" y="259" type="curve"/>
      <point x="82" y="259"/>
      <point x="25" y="200"/>
      <point x="25" y="121" type="curve"/>
      <point x="25" y="43"/>
      <point x="76" y="-5"/>
    </contour>
    <contour>
      <point x="161" y="48" type="curve"/>
      <point x="116" y="48"/>
      <point x="89" y="75"/>
      <point x="89" y="121" type="curve"/>
      <point x="89" y="172"/>
      <point x="121" y="208"/>
      <point x="168" y="208" type="curve"/>
      <point x="211" y="208"/>
      <point x="237" y="179"/>
      <point x="237" y="134" type="curve"/>
      <point x="237" y="84"/>
      <point x="205" y="48"/>
    </contour>
  </outline>
</glyph>
<glyph name="emptyset" format="1">
  <advance width="330"/>
  <unicode hex="2205"/>
  <outline>
    <contour>
      <point x="7" y="-17" type="line"/>
      <point x="40" y="-44" type="line"/>
      <point x="323" y="292" type="line"/>
      <point x="290" y="319" type="line"/>
    </contour>
    <contour>
      <point x="165" y="-3" type="curve"/>
      <point x="246" y="-3"/>
      <point x="305" y="59"/>
      <point x="305" y="138" type="curve"/>
      <point x="305" y="215"/>
      <point x="246" y="278"/>
      <point x="165" y="278" type="curve"/>
      <point x="84" y="278"/>
      <point x="25" y="215"/>
      <point x="25" y="138" type="curve"/>
      <point x="25" y="59"/>
      <point x="84" y="-3"/>
    </contour>
    <contour>
      <point x="165" y="46" type="curve"/>
      <point x="111" y="46"/>
      <point x="77" y="87"/>
      <point x="77" y="138" type="curve"/>
      <point x="77" y="187"/>
      <point x="111" y="229"/>
      <point x="165" y="229" type="curve"/>
      <point x="219" y="229"/>
      <point x="253" y="187"/>
      <point x="253" y="138" type="curve"/>
      <point x="253" y="87"/>
      <point x="219" y="46"/>
    </contour>
  </outline>
</glyph>
<glyph name="product" format="1">
  <advance width="330"/>
  <unicode hex="220F"/>
  <outline>
    <contour>
      <point x="225" y="391" type="line"/>
      <point x="225" y="0" type="line"/>
      <point x="288" y="0" type="line"/>
      <point x="288" y="391" type="line"/>
    </contour>
    <contour>
      <point x="42" y="391" type="line"/>
      <point x="42" y="0" type="line"/>
      <point x="105" y="0" type="line"/>
      <point x="105" y="391" type="line"/>
    </contour>
    <contour>
      <point x="76" y="391" type="line"/>
      <point x="76" y="338" type="line"/>
      <point x="256" y="338" type="line"/>
      <point x="256" y="391" type="line"/>
    </contour>
  </outline>
</glyph>
<glyph name="summation" format="1">
  <advance width="330"/>
  <unicode hex="2211"/>
  <outline>
    <contour>
      <point x="307" y="-110" type="line"/>
      <point x="307" y="-55" type="line"/>
      <point x="95" y="-55" type="line"/>
      <point x="95" y="-69" type="line"/>
      <point x="243" y="140" type="line"/>
      <point x="94" y="351" type="line"/>
      <point x="94" y="335" type="line"/>
      <point x="307" y="335" type="line"/>
      <point x="307" y="391" type="line"/>
      <point x="22" y="391" type="line"/>
      <point x="22" y="347" type="line"/>
      <point x="174" y="132" type="line"/>
      <point x="175" y="150" type="line"/>
      <point x="22" y="-66" type="line"/>
      <point x="22" y="-110" type="line"/>
    </contour>
  </outline>
</glyph>
<glyph name="minus" format="1">
  <advance width="330"/>
  <unicode hex="2212"/>
  <outline>
    <contour>
      <point x="302" y="111" type="line"/>
      <point x="302" y="166" type="line"/>
      <point x="28" y="166" type="line"/>
      <point x="28" y="111" type="line"/>
    </contour>
  </outline>
</glyph>
<glyph name="radical" format="1">
  <advance width="330"/>
  <unicode hex="221A"/>
  <outline>
    <contour>
      <point x="319" y="391" type="line"/>
      <point x="258" y="391" type="line"/>
      <point x="151" y="16" type="line"/>
      <point x="171" y="16" type="line"/>
      <point x="120" y="277" type="line"/>
      <point x="8" y="277" type="line"/>
      <point x="8" y="227" type="line"/>
      <point x="64" y="227" type="line"/>
      <point x="114" y="0" type="line"/>
      <point x="203" y="0" type="line"/>
    </contour>
  </outline>
</glyph>
<glyph name="infinity" format="1">
  <advance width="491"/>
  <unicode hex="221E"/>
  <outline>
    <contour>
      <point x="139" y="21" type="curve"/>
      <point x="193" y="21"/>
      <point x="241" y="63"/>
      <point x="259" y="112" type="curve"/>
      <point x="238" y="138" type="line"/>
      <point x="211" y="97"/>
      <point x="180" y="73"/>
      <point x="146" y="73" type="curve"/>
      <point x="107" y="73"/>
      <point x="83" y="99"/>
      <point x="83" y="137" type="curve"/>
      <point x="83" y="178"/>
      <point x="103" y="204"/>
      <point x="136" y="204" type="curve"/>
      <point x="217" y="204"/>
      <point x="233" y="21"/>
      <point x="354" y="21" type="curve"/>
      <point x="422" y="21"/>
      <point x="467" y="70"/>
      <point x="467" y="141" type="curve"/>
      <point x="467" y="206"/>
      <point x="419" y="255"/>
      <point x="352" y="255" type="curve"/>
      <point x="298" y="255"/>
      <point x="249" y="213"/>
      <point x="233" y="165" type="curve"/>
      <point x="253" y="138" type="line"/>
      <point x="280" y="179"/>
      <point x="311" y="203"/>
      <point x="345" y="203" type="curve"/>
      <point x="385" y="203"/>
      <point x="409" y="178"/>
      <point x="409" y="139" type="curve"/>
      <point x="409" y="99"/>
      <point x="388" y="73"/>
      <point x="355" y="73" type="curve"/>
      <point x="273" y="73"/>
      <point x="258" y="255"/>
      <point x="138" y="255" type="curve"/>
      <point x="69" y="255"/>
      <point x="24" y="207"/>
      <point x="24" y="135" type="curve"/>
      <point x="24" y="69"/>
      <point x="72" y="21"/>
    </contour>
  </outline>
</glyph>
<glyph name="integral" format="1">
  <advance width="330"/>
  <unicode hex="222B"/>
  <outline>
    <contour>
      <point x="232" y="412" type="curve"/>
      <point x="153" y="412"/>
      <point x="107" y="358"/>
      <point x="118" y="277" type="curve"/>
      <point x="150" y="23" type="line" smooth="yes"/>
      <point x="158" y="-35"/>
      <point x="139" y="-61"/>
      <point x="96" y="-61" type="curve"/>
      <point x="81" y="-61"/>
      <point x="64" y="-58"/>
      <point x="50" y="-53" type="curve"/>
      <point x="39" y="-103" type="line"/>
      <point x="54" y="-109"/>
      <point x="74" y="-113"/>
      <point x="98" y="-113" type="curve"/>
      <point x="176" y="-113"/>
      <point x="223" y="-59"/>
      <point x="212" y="22" type="curve"/>
      <point x="180" y="276" type="line" smooth="yes"/>
      <point x="172" y="335"/>
      <point x="191" y="360"/>
      <point x="234" y="360" type="curve"/>
      <point x="249" y="360"/>
      <point x="266" y="357"/>
      <point x="280" y="352" type="curve"/>
      <point x="291" y="402" type="line"/>
      <point x="276" y="408"/>
      <point x="256" y="412"/>
    </contour>
  </outline>
</glyph>
<glyph name="approxequal" format="1">
  <advance width="330"/>
  <unicode hex="2248"/>
  <outline>
    <contour>
      <point x="223" y="157" type="curve"/>
      <point x="257" y="157"/>
      <point x="284" y="177"/>
      <point x="300" y="211" type="curve"/>
      <point x="268" y="233" type="line"/>
      <point x="257" y="215"/>
      <point x="244" y="206"/>
      <point x="223" y="206" type="curve"/>
      <point x="196" y="206"/>
      <point x="139" y="237"/>
      <point x="107" y="237" type="curve"/>
      <point x="73" y="237"/>
      <point x="46" y="217"/>
      <point x="30" y="183" type="curve"/>
      <point x="62" y="161" type="line"/>
      <point x="73" y="179"/>
      <point x="86" y="187"/>
      <point x="107" y="187" type="curve"/>
      <point x="134" y="187"/>
      <point x="191" y="157"/>
    </contour>
    <contour>
      <point x="223" y="41" type="curve"/>
      <point x="257" y="41"/>
      <point x="284" y="60"/>
      <point x="300" y="94" type="curve"/>
      <point x="268" y="117" type="line"/>
      <point x="257" y="99"/>
      <point x="244" y="90"/>
      <point x="223" y="90" type="curve"/>
      <point x="196" y="90"/>
      <point x="139" y="120"/>
      <point x="107" y="120" type="curve"/>
      <point x="73" y="120"/>
      <point x="46" y="101"/>
      <point x="30" y="67" type="curve"/>
      <point x="62" y="44" type="line"/>
      <point x="73" y="62"/>
      <point x="86" y="71"/>
      <point x="107" y="71" type="curve"/>
      <point x="134" y="71"/>
      <point x="191" y="41"/>
    </contour>
  </outline>
</glyph>
<glyph name="notequal" format="1">
  <advance width="330"/>
  <unicode hex="2260"/>
  <outline>
    <contour>
      <point x="241" y="266" type="line"/>
      <point x="207" y="282" type="line"/>
      <point x="89" y="9" type="line"/>
      <point x="123" y="-6" type="line"/>
    </contour>
    <contour>
      <point x="302" y="54" type="line"/>
      <point x="302" y="104" type="line"/>
      <point x="28" y="104" type="line"/>
      <point x="28" y="54" type="line"/>
    </contour>
    <contour>
      <point x="302" y="173" type="line"/>
      <point x="302" y="223" type="line"/>
      <point x="28" y="223" type="line"/>
      <point x="28" y="173" type="line"/>
    </contour>
  </outline>
</glyph>
<glyph name="lessequal" format="1">
  <advance width="330"/>
  <unicode hex="2264"/>
  <outline>
    <contour>
      <point x="31" y="155" type="line"/>
      <point x="299" y="75" type="line"/>
      <point x="299" y="122" type="line"/>
      <point x="72" y="188" type="line"/>
      <point x="72" y="166" type="line"/>
      <point x="299" y="233" type="line"/>
      <point x="299" y="280" type="line"/>
      <point x="31" y="200" type="line"/>
    </contour>
    <contour>
      <point x="31" y="50" type="line"/>
      <point x="31" y="0" type="line"/>
      <point x="299" y="0" type="line"/>
      <point x="299" y="50" type="line"/>
    </contour>
  </outline>
</glyph>
<glyph name="greaterequal" format="1">
  <advance width="330"/>
  <unicode hex="2265"/>
  <outline>
    <contour>
      <point x="31" y="122" type="line"/>
      <point x="31" y="75" type="line"/>
      <point x="299" y="155" type="line"/>
      <point x="299" y="200" type="line"/>
      <point x="31" y="280" type="line"/>
      <point x="31" y="233" type="line"/>
      <point x="258" y="166" type="line"/>
      <point x="258" y="188" type="line"/>
    </contour>
    <contour>
      <point x="31" y="0" type="line"/>
      <point x="299" y="0" type="line"/>
      <point x="299" y="50" type="line"/>
      <point x="31" y="50" type="line"/>
    </contour>
  </outline>
</glyph>
<glyph name="lozenge" format="1">
  <advance width="330"/>
  <unicode hex="25CA"/>
  <outline>
    <contour>
      <point x="188" y="0" type="line"/>
      <point x="286" y="195" type="line"/>
      <point x="188" y="391" type="line"/>
      <point x="142" y="391" type="line"/>
      <point x="44" y="195" type="line"/>
      <point x="142" y="0" type="line"/>
    </contour>
    <contour>
      <point x="234" y="179" type="line"/>
      <point x="234" y="212" type="line"/>
      <point x="150" y="39" type="line"/>
      <point x="180" y="39" type="line"/>
      <point x="96" y="212" type="line"/>
      <point x="96" y="179" type="line"/>
      <point x="180" y="352" type="line"/>
      <point x="150" y="352" type="line"/>
    </contour>
  </outline>
</glyph>
<glyph name="I_J.loclNLD" format="1">
  <advance width="363"/>
  <outline>
    <contour>
      <point x="179" y="-5" type="curve"/>
      <point x="274" y="-5"/>
      <point x="324" y="54"/>
      <point x="324" y="147" type="curve"/>
      <point x="324" y="391" type="line"/>
      <point x="257" y="391" type="line"/>
      <point x="257" y="142" type="line" smooth="yes"/>
      <point x="257" y="86"/>
      <point x="232" y="51"/>
      <point x="180" y="51" type="curve"/>
      <point x="136" y="51"/>
      <point x="109" y="69"/>
      <point x="93" y="107" type="curve"/>
      <point x="38" y="83" type="line"/>
      <point x="55" y="28"/>
      <point x="107" y="-5"/>
    </contour>
    <contour>
      <point x="41" y="391" type="line"/>
      <point x="41" y="171" type="line"/>
      <point x="107" y="171" type="line"/>
      <point x="107" y="391" type="line"/>
    </contour>
    <contour>
      <point x="74" y="391" type="move" name="top_1"/>
    </contour>
    <contour>
      <point x="291" y="391" type="move" name="top_2"/>
    </contour>
  </outline>
</glyph>
<glyph name="acutecomb.case" format="1">
  <advance width="353"/>
  <outline>
    <contour>
      <point x="155" y="429" type="line"/>
      <point x="211" y="429" type="line"/>
      <point x="285" y="510" type="line"/>
      <point x="220" y="527" type="line"/>
    </contour>
    <contour>
      <point x="184" y="391" type="move" name="_top"/>
    </contour>
    <contour>
      <point x="184" y="526" type="move" name="top"/>
    </contour>
  </outline>
</glyph>
<glyph name="eight.lf" format="1">
  <advance width="322"/>
  <outline>
    <contour>
      <point x="161" y="-5" type="curve"/>
      <point x="248" y="-5"/>
      <point x="303" y="37"/>
      <point x="303" y="102" type="curve"/>
      <point x="303" y="154"/>
      <point x="263" y="196"/>
      <point x="207" y="204" type="curve"/>
      <point x="210" y="193" type="line"/>
      <point x="261" y="204"/>
      <point x="293" y="240"/>
      <point x="293" y="288" type="curve"/>
      <point x="293" y="350"/>
      <point x="238" y="396"/>
      <point x="161" y="396" type="curve"/>
      <point x="84" y="396"/>
      <point x="29" y="350"/>
      <point x="29" y="288" type="curve"/>
      <point x="29" y="240"/>
      <point x="61" y="204"/>
      <point x="112" y="193" type="curve"/>
      <point x="115" y="204" type="line"/>
      <point x="59" y="196"/>
      <point x="19" y="154"/>
      <point x="19" y="102" type="curve"/>
      <point x="19" y="37"/>
      <point x="74" y="-5"/>
    </contour>
    <contour>
      <point x="161" y="46" type="curve"/>
      <point x="113" y="46"/>
      <point x="84" y="70"/>
      <point x="84" y="108" type="curve"/>
      <point x="84" y="147"/>
      <point x="114" y="173"/>
      <point x="161" y="173" type="curve"/>
      <point x="207" y="173"/>
      <point x="238" y="147"/>
      <point x="238" y="108" type="curve"/>
      <point x="238" y="70"/>
      <point x="209" y="46"/>
    </contour>
    <contour>
      <point x="161" y="222" type="curve"/>
      <point x="120" y="222"/>
      <point x="93" y="245"/>
      <point x="93" y="282" type="curve"/>
      <point x="93" y="320"/>
      <point x="121" y="345"/>
      <point x="161" y="345" type="curve"/>
      <point x="201" y="345"/>
      <point x="229" y="320"/>
      <point x="229" y="282" type="curve"/>
      <point x="229" y="245"/>
      <point x="202" y="222"/>
    </contour>
  </outline>
</glyph>
<glyph name="f.ss01" format="1">
  <advance width="197"/>
  <outline>
    <contour>
      <point x="50" y="291" type="curve"/>
      <point x="50" y="0" type="line"/>
      <point x="113" y="0" type="line"/>
      <point x="113" y="241" type="line"/>
      <point x="112" y="268" type="line"/>
      <point x="112" y="297" type="line" smooth="yes"/>
      <point x="112" y="340"/>
      <point x="131" y="362"/>
      <point x="163" y="362" type="curve"/>
      <point x="174" y="362"/>
      <point x="185" y="359"/>
      <point x="192" y="354" type="curve"/>
      <point x="218" y="398" type="line"/>
      <point x="206" y="407"/>
      <point x="186" y="413"/>
      <point x="163" y="413" type="curve"/>
      <point x="97" y="413"/>
      <point x="50" y="366"/>
    </contour>
    <contour>
      <point x="-3" y="276" type="line"/>
      <point x="-3" y="226" type="line"/>
      <point x="196" y="226" type="line"/>
      <point x="196" y="276" type="line"/>
    </contour>
  </outline>
</glyph>
<glyph name="f_f" format="1">
  <advance width="385"/>
  <outline>
    <contour>
      <point x="50" y="291" type="curve"/>
      <point x="50" y="0" type="line"/>
      <point x="113" y="0" type="line"/>
      <point x="113" y="241" type="line"/>
      <point x="112" y="268" type="line"/>
      <point x="112" y="297" type="line" smooth="yes"/>
      <point x="112" y="340"/>
      <point x="131" y="362"/>
      <point x="163" y="362" type="curve"/>
      <point x="174" y="362"/>
      <point x="185" y="359"/>
      <point x="192" y="354" type="curve"/>
      <point x="218" y="398" type="line"/>
      <point x="206" y="407"/>
      <point x="186" y="413"/>
      <point x="163" y="413" type="curve"/>
      <point x="97" y="413"/>
      <point x="50" y="366"/>
    </contour>
    <contour>
      <point x="238" y="291" type="curve"/>
      <point x="238" y="0" type="line"/>
      <point x="301" y="0" type="line"/>
      <point x="301" y="241" type="line"/>
      <point x="300" y="268" type="line"/>
      <point x="300" y="297" type="line" smooth="yes"/>
      <point x="300" y="340"/>
      <point x="319" y="362"/>
      <point x="351" y="362" type="curve"/>
      <point x="374" y="362"/>
      <point x="390" y="349"/>
      <point x="392" y="328" type="curve"/>
      <point x="445" y="335" type="line"/>
      <point x="439" y="386"/>
      <point x="407" y="413"/>
      <point x="352" y="413" type="curve"/>
      <point x="285" y="413"/>
      <point x="238" y="366"/>
    </contour>
    <contour>
      <point x="384" y="226" type="line"/>
      <point x="384" y="276" type="line"/>
      <point x="-3" y="276" type="line"/>
      <point x="-3" y="226" type="line"/>
    </contour>
  </outline>
</glyph>
<glyph name="f_f.ss01" format="1">
  <advance width="385"/>
  <outline>
    <contour>
      <point x="50" y="291" type="curve"/>
      <point x="50" y="0" type="line"/>
      <point x="113" y="0" type="line"/>
      <point x="113" y="241" type="line"/>
      <point x="112" y="268" type="line"/>
      <point x="112" y="297" type="line" smooth="yes"/>
      <point x="112" y="340"/>
      <point x="131" y="362"/>
      <point x="163" y="362" type="curve"/>
      <point x="174" y="362"/>
      <point x="185" y="359"/>
      <point x="192" y="354" type="curve"/>
      <point x="218" y="398" type="line"/>
      <point x="206" y="407"/>
      <point x="186" y="413"/>
      <point x="163" y="413" type="curve"/>
      <point x="97" y="413"/>
      <point x="50" y="366"/>
    </contour>
    <contour>
      <point x="384" y="226" type="line"/>
      <point x="384" y="276" type="line"/>
      <point x="-3" y="276" type="line"/>
      <point x="-3" y="226" type="line"/>
    </contour>
    <contour>
      <point x="238" y="291" type="curve"/>
      <point x="238" y="0" type="line"/>
      <point x="301" y="0" type="line"/>
      <point x="301" y="241" type="line"/>
      <point x="300" y="268" type="line"/>
      <point x="300" y="297" type="line" smooth="yes"/>
      <point x="300" y="340"/>
      <point x="319" y="362"/>
      <point x="351" y="362" type="curve"/>
      <point x="362" y="362"/>
      <point x="373" y="359"/>
      <point x="381" y="354" type="curve"/>
      <point x="406" y="398" type="line"/>
      <point x="394" y="407"/>
      <point x="374" y="413"/>
      <point x="351" y="413" type="curve"/>
      <point x="285" y="413"/>
      <point x="238" y="366"/>
    </contour>
  </outline>
</glyph>
<glyph name="f_i" format="1">
  <advance width="343"/>
  <outline>
    <contour>
      <point x="50" y="291" type="curve"/>
      <point x="50" y="0" type="line"/>
      <point x="113" y="0" type="line"/>
      <point x="113" y="241" type="line"/>
      <point x="112" y="268" type="line"/>
      <point x="112" y="297" type="line" smooth="yes"/>
      <point x="112" y="340"/>
      <point x="131" y="362"/>
      <point x="163" y="362" type="curve"/>
      <point x="174" y="362"/>
      <point x="185" y="359"/>
      <point x="192" y="354" type="curve"/>
      <point x="218" y="398" type="line"/>
      <point x="206" y="407"/>
      <point x="186" y="413"/>
      <point x="163" y="413" type="curve"/>
      <point x="97" y="413"/>
      <point x="50" y="366"/>
    </contour>
    <contour>
      <point x="276" y="325" type="curve"/>
      <point x="302" y="325"/>
      <point x="318" y="342"/>
      <point x="318" y="363" type="curve"/>
      <point x="318" y="384"/>
      <point x="302" y="401"/>
      <point x="276" y="401" type="curve"/>
      <point x="250" y="401"/>
      <point x="233" y="384"/>
      <point x="233" y="363" type="curve"/>
      <point x="233" y="342"/>
      <point x="250" y="325"/>
    </contour>
    <contour>
      <point x="307" y="0" type="line"/>
      <point x="307" y="276" type="line"/>
      <point x="-3" y="276" type="line"/>
      <point x="-3" y="226" type="line"/>
      <point x="244" y="226" type="line"/>
      <point x="244" y="0" type="line"/>
    </contour>
  </outline>
</glyph>
<glyph name="five.lf" format="1">
  <advance width="288"/>
  <outline>
    <contour>
      <point x="122" y="-5" type="curve"/>
      <point x="214" y="-5"/>
      <point x="272" y="42"/>
      <point x="272" y="114" type="curve"/>
      <point x="272" y="182"/>
      <point x="220" y="224"/>
      <point x="111" y="227" type="curve"/>
      <point x="77" y="229" type="line"/>
      <point x="102" y="211" type="line"/>
      <point x="113" y="359" type="line"/>
      <point x="82" y="341" type="line"/>
      <point x="253" y="341" type="line"/>
      <point x="253" y="392" type="line"/>
      <point x="53" y="392" type="line"/>
      <point x="38" y="178" type="line"/>
      <point x="97" y="176" type="line" smooth="yes"/>
      <point x="182" y="173"/>
      <point x="208" y="150"/>
      <point x="208" y="112" type="curve"/>
      <point x="208" y="72"/>
      <point x="178" y="50"/>
      <point x="126" y="50" type="curve"/>
      <point x="87" y="50"/>
      <point x="55" y="60"/>
      <point x="31" y="75" type="curve"/>
      <point x="14" y="22" type="line"/>
      <point x="39" y="5"/>
      <point x="83" y="-5"/>
    </contour>
  </outline>
</glyph>
<glyph name="four.lf" format="1">
  <advance width="319"/>
  <outline>
    <contour>
      <point x="194" y="312" type="line"/>
      <point x="194" y="0" type="line"/>
      <point x="256" y="0" type="line"/>
      <point x="256" y="392" type="line"/>
      <point x="212" y="392" type="line"/>
      <point x="18" y="147" type="line"/>
      <point x="18" y="104" type="line"/>
      <point x="311" y="104" type="line"/>
      <point x="311" y="154" type="line"/>
      <point x="67" y="154" type="line"/>
      <point x="72" y="138" type="line"/>
      <point x="207" y="313" type="line"/>
    </contour>
  </outline>
</glyph>
<glyph name="gravecomb.case" format="1">
  <advance width="353"/>
  <outline>
    <contour>
      <point x="83" y="510" type="line"/>
      <point x="156" y="429" type="line"/>
      <point x="212" y="429" type="line"/>
      <point x="147" y="527" type="line"/>
    </contour>
    <contour>
      <point x="184" y="391" type="move" name="_top"/>
    </contour>
    <contour>
      <point x="184" y="526" type="move" name="top"/>
    </contour>
  </outline>
</glyph>
<glyph name="hookabovecomb.case" format="1">
  <advance width="347"/>
  <outline>
    <contour>
      <point x="190" y="527" type="curve"/>
      <point x="162" y="527"/>
      <point x="138" y="516"/>
      <point x="122" y="495" type="curve"/>
      <point x="147" y="474" type="line"/>
      <point x="157" y="489"/>
      <point x="170" y="496"/>
      <point x="184" y="496" type="curve"/>
      <point x="193" y="496"/>
      <point x="199" y="492"/>
      <point x="199" y="485" type="curve"/>
      <point x="199" y="471"/>
      <point x="167" y="469"/>
      <point x="167" y="437" type="curve"/>
      <point x="167" y="429" type="line"/>
      <point x="202" y="429" type="line"/>
      <point x="202" y="456"/>
      <point x="247" y="452"/>
      <point x="247" y="490" type="curve"/>
      <point x="247" y="513"/>
      <point x="223" y="527"/>
    </contour>
    <contour>
      <point x="184" y="391" type="move" name="_top"/>
    </contour>
    <contour>
      <point x="184" y="526" type="move" name="top"/>
    </contour>
  </outline>
</glyph>
<glyph name="l.ss01" format="1">
  <advance width="136"/>
  <outline>
    <contour>
      <point x="37" y="407" type="line"/>
      <point x="37" y="0" type="line"/>
      <point x="99" y="0" type="line"/>
      <point x="99" y="407" type="line"/>
    </contour>
  </outline>
</glyph>
<glyph name="one.lf" format="1">
  <advance width="199"/>
  <outline>
    <contour>
      <point x="95" y="334" type="line"/>
      <point x="95" y="0" type="line"/>
      <point x="159" y="0" type="line"/>
      <point x="159" y="391" type="line"/>
      <point x="122" y="391" type="line"/>
      <point x="-3" y="306" type="line"/>
      <point x="27" y="262" type="line"/>
      <point x="132" y="334" type="line"/>
    </contour>
  </outline>
</glyph>
<glyph name="periodcentered.loclCAT" format="1">
  <advance width="29"/>
  <outline>
    <contour>
      <point x="4" y="194" type="curve"/>
      <point x="30" y="194"/>
      <point x="46" y="211"/>
      <point x="46" y="232" type="curve"/>
      <point x="46" y="253"/>
      <point x="30" y="270"/>
      <point x="4" y="270" type="curve"/>
      <point x="-22" y="270"/>
      <point x="-39" y="253"/>
      <point x="-39" y="232" type="curve"/>
      <point x="-39" y="211"/>
      <point x="-22" y="194"/>
    </contour>
    <contour>
      <point x="4" y="232" type="move" name="_dotacc"/>
    </contour>
  </outline>
</glyph>
<glyph name="seven.lf" format="1">
  <advance width="282"/>
  <outline>
    <contour>
      <point x="39" y="0" type="line"/>
      <point x="107" y="0" type="line"/>
      <point x="270" y="342" type="line"/>
      <point x="270" y="391" type="line"/>
      <point x="15" y="391" type="line"/>
      <point x="15" y="340" type="line"/>
      <point x="222" y="340" type="line"/>
      <point x="213" y="359" type="line"/>
    </contour>
  </outline>
</glyph>
<glyph name="six.lf" format="1">
  <advance width="319"/>
  <outline>
    <contour>
      <point x="170" y="-5" type="curve"/>
      <point x="249" y="-5"/>
      <point x="304" y="52"/>
      <point x="304" y="128" type="curve"/>
      <point x="304" y="202"/>
      <point x="252" y="247"/>
      <point x="186" y="247" type="curve"/>
      <point x="133" y="247"/>
      <point x="91" y="215"/>
      <point x="76" y="164" type="curve"/>
      <point x="90" y="152" type="line"/>
      <point x="90" y="194" type="line" smooth="yes"/>
      <point x="90" y="292"/>
      <point x="128" y="341"/>
      <point x="182" y="341" type="curve"/>
      <point x="216" y="341"/>
      <point x="238" y="325"/>
      <point x="252" y="286" type="curve"/>
      <point x="306" y="310" type="line"/>
      <point x="285" y="367"/>
      <point x="244" y="396"/>
      <point x="185" y="396" type="curve"/>
      <point x="90" y="396"/>
      <point x="26" y="313"/>
      <point x="26" y="183" type="curve"/>
      <point x="26" y="58"/>
      <point x="78" y="-5"/>
    </contour>
    <contour>
      <point x="169" y="46" type="curve"/>
      <point x="127" y="46"/>
      <point x="99" y="73"/>
      <point x="99" y="119" type="curve"/>
      <point x="99" y="164"/>
      <point x="130" y="196"/>
      <point x="172" y="196" type="curve"/>
      <point x="214" y="196"/>
      <point x="240" y="167"/>
      <point x="240" y="123" type="curve"/>
      <point x="240" y="79"/>
      <point x="212" y="46"/>
    </contour>
  </outline>
</glyph>
<glyph name="three.lf" format="1">
  <advance width="292"/>
  <outline>
    <contour>
      <point x="122" y="-5" type="curve"/>
      <point x="214" y="-5"/>
      <point x="272" y="41"/>
      <point x="272" y="110" type="curve"/>
      <point x="272" y="161"/>
      <point x="243" y="193"/>
      <point x="192" y="204" type="curve"/>
      <point x="193" y="199" type="line"/>
      <point x="238" y="212"/>
      <point x="264" y="249"/>
      <point x="264" y="293" type="curve"/>
      <point x="264" y="353"/>
      <point x="218" y="396"/>
      <point x="145" y="396" type="curve"/>
      <point x="77" y="396"/>
      <point x="27" y="356"/>
      <point x="10" y="298" type="curve"/>
      <point x="58" y="275" type="line"/>
      <point x="71" y="317"/>
      <point x="98" y="341"/>
      <point x="139" y="341" type="curve"/>
      <point x="178" y="341"/>
      <point x="200" y="319"/>
      <point x="200" y="287" type="curve"/>
      <point x="200" y="248"/>
      <point x="174" y="223"/>
      <point x="122" y="223" type="curve"/>
      <point x="105" y="223" type="line"/>
      <point x="105" y="173" type="line"/>
      <point x="128" y="173" type="line" smooth="yes"/>
      <point x="177" y="173"/>
      <point x="207" y="153"/>
      <point x="207" y="113" type="curve"/>
      <point x="207" y="72"/>
      <point x="177" y="50"/>
      <point x="126" y="50" type="curve"/>
      <point x="87" y="50"/>
      <point x="55" y="60"/>
      <point x="31" y="75" type="curve"/>
      <point x="14" y="22" type="line"/>
      <point x="39" y="5"/>
      <point x="83" y="-5"/>
    </contour>
  </outline>
</glyph>
<glyph name="tildecomb.case" format="1">
  <advance width="349"/>
  <outline>
    <contour>
      <point x="290" y="482" type="curve"/>
      <point x="265" y="501" type="line"/>
      <point x="259" y="482"/>
      <point x="246" y="472"/>
      <point x="232" y="472" type="curve"/>
      <point x="209" y="472"/>
      <point x="170" y="504"/>
      <point x="141" y="504" type="curve"/>
      <point x="110" y="504"/>
      <point x="87" y="484"/>
      <point x="79" y="448" type="curve"/>
      <point x="104" y="429" type="line"/>
      <point x="111" y="448"/>
      <point x="124" y="458"/>
      <point x="137" y="458" type="curve"/>
      <point x="159" y="458"/>
      <point x="198" y="426"/>
      <point x="228" y="426" type="curve"/>
      <point x="259" y="426"/>
      <point x="282" y="446"/>
    </contour>
    <contour>
      <point x="184" y="391" type="move" name="_top"/>
    </contour>
    <contour>
      <point x="184" y="526" type="move" name="top"/>
    </contour>
  </outline>
</glyph>
<glyph name="two.lf" format="1">
  <advance width="289"/>
  <outline>
    <contour>
      <point x="24" y="42" type="curve"/>
      <point x="24" y="0" type="line"/>
      <point x="274" y="0" type="line"/>
      <point x="274" y="50" type="line"/>
      <point x="78" y="50" type="line"/>
      <point x="82" y="33" type="line"/>
      <point x="215" y="129"/>
      <point x="265" y="207"/>
      <point x="265" y="284" type="curve"/>
      <point x="264" y="354"/>
      <point x="216" y="396"/>
      <point x="146" y="396" type="curve"/>
      <point x="78" y="396"/>
      <point x="28" y="356"/>
      <point x="11" y="298" type="curve"/>
      <point x="58" y="275" type="line"/>
      <point x="72" y="317"/>
      <point x="99" y="341"/>
      <point x="140" y="341" type="curve"/>
      <point x="177" y="341"/>
      <point x="200" y="317"/>
      <point x="200" y="278" type="curve"/>
      <point x="200" y="221"/>
      <point x="156" y="146"/>
    </contour>
  </outline>
</glyph>
<glyph name="uni00B5" format="1">
  <advance width="322"/>
  <outline>
    <contour>
      <point x="285" y="276" type="line"/>
      <point x="225" y="276" type="line"/>
      <point x="224" y="104"/>
      <point x="189" y="51"/>
      <point x="140" y="51" type="curve"/>
      <point x="109" y="51"/>
      <point x="94" y="74"/>
      <point x="95" y="114" type="curve"/>
      <point x="96" y="276" type="line"/>
      <point x="33" y="276" type="line"/>
      <point x="33" y="-110" type="line"/>
      <point x="95" y="-110" type="line"/>
      <point x="91" y="27" type="line"/>
      <point x="81" y="22" type="line"/>
      <point x="93" y="0"/>
      <point x="110" y="-5"/>
      <point x="136" y="-5" type="curve"/>
      <point x="186" y="-5"/>
      <point x="228" y="41"/>
      <point x="242" y="127" type="curve"/>
      <point x="228" y="94" type="line"/>
      <point x="224" y="0" type="line"/>
      <point x="285" y="0" type="line"/>
    </contour>
  </outline>
</glyph>
<glyph name="uni018F" format="1">
  <advance width="421"/>
  <outline>
    <contour>
      <point x="207" y="396" type="curve"/>
      <point x="136" y="396"/>
      <point x="78" y="367"/>
      <point x="43" y="316" type="curve"/>
      <point x="93" y="279" type="line"/>
      <point x="120" y="319"/>
      <point x="159" y="338"/>
      <point x="208" y="338" type="curve"/>
      <point x="282" y="338"/>
      <point x="328" y="291"/>
      <point x="328" y="205" type="curve"/>
      <point x="328" y="191" type="line" smooth="yes"/>
      <point x="328" y="99"/>
      <point x="280" y="51"/>
      <point x="209" y="51" type="curve"/>
      <point x="133" y="51"/>
      <point x="94" y="97"/>
      <point x="98" y="174" type="curve"/>
      <point x="84" y="164" type="line"/>
      <point x="359" y="164" type="line"/>
      <point x="359" y="216" type="line"/>
      <point x="28" y="216" type="line"/>
      <point x="11" y="83"/>
      <point x="81" y="-5"/>
      <point x="207" y="-5" type="curve"/>
      <point x="317" y="-5"/>
      <point x="395" y="74"/>
      <point x="395" y="201" type="curve"/>
      <point x="395" y="322"/>
      <point x="324" y="396"/>
    </contour>
  </outline>
</glyph>
<glyph name="uni01EA" format="1">
  <advance width="426"/>
  <outline>
    <contour>
      <point x="228" y="-123" type="curve"/>
      <point x="253" y="-123"/>
      <point x="277" y="-112"/>
      <point x="288" y="-95" type="curve"/>
      <point x="266" y="-65" type="line"/>
      <point x="257" y="-78"/>
      <point x="245" y="-84"/>
      <point x="234" y="-84" type="curve"/>
      <point x="217" y="-84"/>
      <point x="208" y="-75"/>
      <point x="208" y="-59" type="curve"/>
      <point x="208" y="-38"/>
      <point x="224" y="-15"/>
      <point x="282" y="7" type="curve"/>
      <point x="353" y="34"/>
      <point x="400" y="104"/>
      <point x="400" y="203" type="curve"/>
      <point x="400" y="319"/>
      <point x="329" y="396"/>
      <point x="221" y="396" type="curve"/>
      <point x="103" y="396"/>
      <point x="26" y="310"/>
      <point x="26" y="188" type="curve"/>
      <point x="26" y="66"/>
      <point x="96" y="-5"/>
      <point x="213" y="-5" type="curve"/>
      <point x="228" y="-5" type="line"/>
      <point x="212" y="6" type="line"/>
      <point x="174" y="-11"/>
      <point x="155" y="-37"/>
      <point x="155" y="-66" type="curve"/>
      <point x="155" y="-100"/>
      <point x="184" y="-123"/>
    </contour>
    <contour>
      <point x="211" y="53" type="curve"/>
      <point x="138" y="53"/>
      <point x="93" y="102"/>
      <point x="93" y="189" type="curve"/>
      <point x="93" y="279"/>
      <point x="146" y="339"/>
      <point x="221" y="339" type="curve"/>
      <point x="289" y="339"/>
      <point x="333" y="286"/>
      <point x="333" y="203" type="curve"/>
      <point x="333" y="108"/>
      <point x="283" y="53"/>
    </contour>
    <contour>
      <point x="213" y="391" type="move" name="top"/>
    </contour>
  </outline>
</glyph>
<glyph name="uni01EB" format="1">
  <advance width="320"/>
  <outline>
    <contour>
      <point x="222" y="11" type="curve"/>
      <point x="267" y="34"/>
      <point x="296" y="83"/>
      <point x="296" y="144" type="curve"/>
      <point x="296" y="228"/>
      <point x="246" y="281"/>
      <point x="165" y="281" type="curve"/>
      <point x="79" y="281"/>
      <point x="24" y="217"/>
      <point x="24" y="132" type="curve"/>
      <point x="24" y="48"/>
      <point x="73" y="-5"/>
      <point x="155" y="-5" type="curve"/>
      <point x="166" y="-5" type="line"/>
      <point x="155" y="6" type="line"/>
      <point x="121" y="-11"/>
      <point x="101" y="-37"/>
      <point x="101" y="-66" type="curve"/>
      <point x="101" y="-100"/>
      <point x="130" y="-123"/>
      <point x="175" y="-123" type="curve"/>
      <point x="200" y="-123"/>
      <point x="223" y="-112"/>
      <point x="235" y="-95" type="curve"/>
      <point x="213" y="-65" type="line"/>
      <point x="203" y="-78"/>
      <point x="191" y="-84"/>
      <point x="181" y="-84" type="curve"/>
      <point x="164" y="-84"/>
      <point x="154" y="-75"/>
      <point x="154" y="-59" type="curve"/>
      <point x="154" y="-38"/>
      <point x="169" y="-17"/>
    </contour>
    <contour>
      <point x="88" y="132" type="curve"/>
      <point x="88" y="189"/>
      <point x="118" y="228"/>
      <point x="164" y="228" type="curve"/>
      <point x="206" y="228"/>
      <point x="232" y="198"/>
      <point x="232" y="144" type="curve"/>
      <point x="232" y="86"/>
      <point x="202" y="48"/>
      <point x="157" y="48" type="curve"/>
      <point x="113" y="48"/>
      <point x="88" y="79"/>
    </contour>
    <contour>
      <point x="160" y="276" type="move" name="top"/>
    </contour>
  </outline>
</glyph>
<glyph name="uni0237" format="1">
  <advance width="143"/>
  <outline>
    <contour>
      <point x="-11" y="-113" type="curve"/>
      <point x="59" y="-113"/>
      <point x="106" y="-70"/>
      <point x="106" y="6" type="curve"/>
      <point x="106" y="276" type="line"/>
      <point x="44" y="276" type="line"/>
      <point x="44" y="7" type="line" smooth="yes"/>
      <point x="44" y="-37"/>
      <point x="27" y="-61"/>
      <point x="-13" y="-61" type="curve"/>
      <point x="-29" y="-61"/>
      <point x="-46" y="-58"/>
      <point x="-59" y="-53" type="curve"/>
      <point x="-69" y="-103" type="line"/>
      <point x="-54" y="-110"/>
      <point x="-33" y="-113"/>
    </contour>
    <contour>
      <point x="75" y="-110" type="move" name="bottom"/>
    </contour>
    <contour>
      <point x="75" y="276" type="move" name="top"/>
    </contour>
  </outline>
</glyph>
<glyph name="uni0259" format="1">
  <advance width="298"/>
  <outline>
    <contour>
      <point x="137" y="281" type="curve"/>
      <point x="90" y="281"/>
      <point x="48" y="263"/>
      <point x="21" y="230" type="curve"/>
      <point x="58" y="195" type="line"/>
      <point x="76" y="218"/>
      <point x="106" y="228"/>
      <point x="133" y="228" type="curve"/>
      <point x="184" y="228"/>
      <point x="211" y="198"/>
      <point x="211" y="151" type="curve"/>
      <point x="211" y="132" type="line" smooth="yes"/>
      <point x="211" y="80"/>
      <point x="185" y="41"/>
      <point x="142" y="41" type="curve"/>
      <point x="101" y="41"/>
      <point x="72" y="64"/>
      <point x="77" y="121" type="curve"/>
      <point x="62" y="113" type="line"/>
      <point x="228" y="113" type="line"/>
      <point x="228" y="157" type="line"/>
      <point x="23" y="157" type="line"/>
      <point x="10" y="54"/>
      <point x="56" y="-5"/>
      <point x="143" y="-5" type="curve"/>
      <point x="218" y="-5"/>
      <point x="274" y="55"/>
      <point x="274" y="142" type="curve"/>
      <point x="274" y="228"/>
      <point x="225" y="281"/>
    </contour>
  </outline>
</glyph>
<glyph name="uni02B9" format="1">
  <advance width="353"/>
  <outline>
    <contour>
      <point x="153" y="315" type="line"/>
      <point x="209" y="315" type="line"/>
      <point x="283" y="396" type="line"/>
      <point x="218" y="413" type="line"/>
    </contour>
    <contour>
      <point x="182" y="276" type="move" name="_top"/>
    </contour>
    <contour>
      <point x="182" y="412" type="move" name="top"/>
    </contour>
  </outline>
</glyph>
<glyph name="uni02BB" format="1">
  <advance width="351"/>
  <outline>
    <contour>
      <point x="214" y="413" type="curve"/>
      <point x="184" y="413" type="line"/>
      <point x="159" y="395"/>
      <point x="144" y="365"/>
      <point x="144" y="344" type="curve"/>
      <point x="144" y="324"/>
      <point x="157" y="312"/>
      <point x="178" y="312" type="curve"/>
      <point x="199" y="312"/>
      <point x="211" y="324"/>
      <point x="211" y="339" type="curve"/>
      <point x="211" y="352"/>
      <point x="202" y="359"/>
      <point x="202" y="376" type="curve"/>
      <point x="202" y="387"/>
      <point x="206" y="399"/>
    </contour>
    <contour>
      <point x="178" y="276" type="move" name="_top"/>
    </contour>
    <contour>
      <point x="178" y="398" type="move" name="top"/>
    </contour>
  </outline>
</glyph>
<glyph name="uni02BC" format="1">
  <advance width="130"/>
  <outline>
    <contour>
      <point x="23" y="239" type="curve"/>
      <point x="54" y="239" type="line"/>
      <point x="83" y="270"/>
      <point x="106" y="318"/>
      <point x="106" y="350" type="curve"/>
      <point x="106" y="378"/>
      <point x="90" y="395"/>
      <point x="65" y="395" type="curve"/>
      <point x="40" y="395"/>
      <point x="24" y="379"/>
      <point x="24" y="356" type="curve"/>
      <point x="24" y="335"/>
      <point x="37" y="323"/>
      <point x="37" y="296" type="curve"/>
      <point x="37" y="280"/>
      <point x="32" y="261"/>
    </contour>
  </outline>
</glyph>
<glyph name="uni02BE" format="1">
  <advance width="337"/>
  <outline>
    <contour>
      <point x="165" y="342" type="curve"/>
      <point x="165" y="312" type="line"/>
      <point x="203" y="312"/>
      <point x="231" y="336"/>
      <point x="231" y="371" type="curve"/>
      <point x="231" y="406"/>
      <point x="203" y="429"/>
      <point x="165" y="429" type="curve"/>
      <point x="165" y="401" type="line"/>
      <point x="183" y="401"/>
      <point x="197" y="389"/>
      <point x="197" y="372" type="curve"/>
      <point x="197" y="354"/>
      <point x="184" y="342"/>
    </contour>
    <contour>
      <point x="165" y="276" type="move" name="_top"/>
    </contour>
    <contour>
      <point x="165" y="398" type="move" name="top"/>
    </contour>
  </outline>
</glyph>
<glyph name="uni02BF" format="1">
  <advance width="337"/>
  <outline>
    <contour>
      <point x="172" y="312" type="curve"/>
      <point x="172" y="342" type="line"/>
      <point x="153" y="342"/>
      <point x="140" y="354"/>
      <point x="140" y="372" type="curve"/>
      <point x="140" y="389"/>
      <point x="154" y="401"/>
      <point x="172" y="401" type="curve"/>
      <point x="172" y="429" type="line"/>
      <point x="134" y="429"/>
      <point x="106" y="406"/>
      <point x="106" y="371" type="curve"/>
      <point x="106" y="336"/>
      <point x="134" y="312"/>
    </contour>
    <contour>
      <point x="172" y="276" type="move" name="_top"/>
    </contour>
    <contour>
      <point x="172" y="398" type="move" name="top"/>
    </contour>
  </outline>
</glyph>
<glyph name="uni02C8" format="1">
  <advance width="340"/>
  <outline>
    <contour>
      <point x="143" y="413" type="line"/>
      <point x="143" y="315" type="line"/>
      <point x="197" y="315" type="line"/>
      <point x="197" y="413" type="line"/>
    </contour>
    <contour>
      <point x="170" y="276" type="move" name="_top"/>
    </contour>
    <contour>
      <point x="170" y="412" type="move" name="top"/>
    </contour>
  </outline>
</glyph>
<glyph name="uni02C9" format="1">
  <advance width="344"/>
  <outline>
    <contour>
      <point x="261" y="372" type="line"/>
      <point x="82" y="372" type="line"/>
      <point x="82" y="328" type="line"/>
      <point x="261" y="328" type="line"/>
    </contour>
    <contour>
      <point x="172" y="276" type="move" name="_top"/>
    </contour>
    <contour>
      <point x="172" y="412" type="move" name="top"/>
    </contour>
  </outline>
</glyph>
<glyph name="uni02CB" format="1">
  <advance width="353"/>
  <outline>
    <contour>
      <point x="81" y="396" type="line"/>
      <point x="155" y="315" type="line"/>
      <point x="210" y="315" type="line"/>
      <point x="145" y="413" type="line"/>
    </contour>
    <contour>
      <point x="182" y="276" type="move" name="_top"/>
    </contour>
    <contour>
      <point x="182" y="412" type="move" name="top"/>
    </contour>
  </outline>
</glyph>
<glyph name="uni02CC" format="1">
  <advance width="340"/>
  <outline>
    <contour>
      <point x="143" y="-41" type="line"/>
      <point x="143" y="-129" type="line"/>
      <point x="197" y="-129" type="line"/>
      <point x="197" y="-41" type="line"/>
    </contour>
    <contour>
      <point x="170" y="0" type="move" name="_bottom"/>
    </contour>
    <contour>
      <point x="170" y="-121" type="move" name="bottom"/>
    </contour>
  </outline>
</glyph>
<glyph name="uni03010307.case" format="1">
  <advance width="362"/>
  <outline>
    <contour>
      <point x="166" y="429" type="line"/>
      <point x="222" y="429" type="line"/>
      <point x="296" y="510" type="line"/>
      <point x="231" y="527" type="line"/>
    </contour>
    <contour>
      <point x="174" y="516" type="curve"/>
      <point x="200" y="516"/>
      <point x="216" y="533"/>
      <point x="216" y="554" type="curve"/>
      <point x="216" y="575"/>
      <point x="200" y="592"/>
      <point x="174" y="592" type="curve"/>
      <point x="148" y="592"/>
      <point x="131" y="575"/>
      <point x="131" y="554" type="curve"/>
      <point x="131" y="533"/>
      <point x="148" y="516"/>
    </contour>
    <contour>
      <point x="184" y="391" type="move" name="_top"/>
    </contour>
  </outline>
</glyph>
<glyph name="uni03010307" format="1">
  <advance width="362"/>
  <outline>
    <contour>
      <point x="166" y="315" type="line"/>
      <point x="222" y="315" type="line"/>
      <point x="296" y="396" type="line"/>
      <point x="231" y="413" type="line"/>
    </contour>
    <contour>
      <point x="174" y="402" type="curve"/>
      <point x="200" y="402"/>
      <point x="216" y="419"/>
      <point x="216" y="440" type="curve"/>
      <point x="216" y="460"/>
      <point x="200" y="477"/>
      <point x="174" y="477" type="curve"/>
      <point x="148" y="477"/>
      <point x="131" y="460"/>
      <point x="131" y="440" type="curve"/>
      <point x="131" y="419"/>
      <point x="148" y="402"/>
    </contour>
    <contour>
      <point x="184" y="276" type="move" name="_top"/>
    </contour>
  </outline>
</glyph>
<glyph name="uni0302.case" format="1">
  <advance width="355"/>
  <outline>
    <contour>
      <point x="216" y="429" type="line"/>
      <point x="275" y="429" type="line"/>
      <point x="204" y="521" type="line"/>
      <point x="151" y="521" type="line"/>
      <point x="79" y="429" type="line"/>
      <point x="139" y="429" type="line"/>
      <point x="183" y="491" type="line"/>
      <point x="172" y="491" type="line"/>
    </contour>
    <contour>
      <point x="177" y="391" type="move" name="_top"/>
    </contour>
    <contour>
      <point x="177" y="526" type="move" name="top"/>
    </contour>
  </outline>
</glyph>
<glyph name="uni0302" format="1">
  <advance width="355"/>
  <outline>
    <contour>
      <point x="216" y="315" type="line"/>
      <point x="275" y="315" type="line"/>
      <point x="204" y="407" type="line"/>
      <point x="151" y="407" type="line"/>
      <point x="79" y="315" type="line"/>
      <point x="139" y="315" type="line"/>
      <point x="183" y="376" type="line"/>
      <point x="172" y="376" type="line"/>
    </contour>
    <contour>
      <point x="177" y="276" type="move" name="_top"/>
    </contour>
    <contour>
      <point x="177" y="412" type="move" name="top"/>
    </contour>
  </outline>
</glyph>
<glyph name="uni03020300.case" format="1">
  <advance width="368"/>
  <outline>
    <contour>
      <point x="158" y="521" type="line"/>
      <point x="86" y="429" type="line"/>
      <point x="146" y="429" type="line"/>
      <point x="190" y="491" type="line"/>
      <point x="178" y="491" type="line"/>
      <point x="223" y="429" type="line"/>
      <point x="282" y="429" type="line"/>
      <point x="211" y="521" type="line"/>
    </contour>
    <contour>
      <point x="71" y="505" type="line"/>
      <point x="126" y="505" type="line"/>
      <point x="62" y="602" type="line"/>
      <point x="-3" y="586" type="line"/>
    </contour>
    <contour>
      <point x="184" y="391" type="move" name="_top"/>
    </contour>
  </outline>
</glyph>
<glyph name="uni03020300" format="1">
  <advance width="368"/>
  <outline>
    <contour>
      <point x="158" y="407" type="line"/>
      <point x="86" y="315" type="line"/>
      <point x="146" y="315" type="line"/>
      <point x="190" y="376" type="line"/>
      <point x="178" y="376" type="line"/>
      <point x="223" y="315" type="line"/>
      <point x="282" y="315" type="line"/>
      <point x="211" y="407" type="line"/>
    </contour>
    <contour>
      <point x="71" y="391" type="line"/>
      <point x="126" y="391" type="line"/>
      <point x="62" y="488" type="line"/>
      <point x="-3" y="472" type="line"/>
    </contour>
    <contour>
      <point x="184" y="276" type="move" name="_top"/>
    </contour>
  </outline>
</glyph>
<glyph name="uni03020301.case" format="1">
  <advance width="372"/>
  <outline>
    <contour>
      <point x="223" y="429" type="line"/>
      <point x="282" y="429" type="line"/>
      <point x="211" y="521" type="line"/>
      <point x="158" y="521" type="line"/>
      <point x="86" y="429" type="line"/>
      <point x="146" y="429" type="line"/>
      <point x="190" y="491" type="line"/>
      <point x="178" y="491" type="line"/>
    </contour>
    <contour>
      <point x="307" y="602" type="line"/>
      <point x="242" y="505" type="line"/>
      <point x="298" y="505" type="line"/>
      <point x="372" y="586" type="line"/>
    </contour>
    <contour>
      <point x="184" y="391" type="move" name="_top"/>
    </contour>
  </outline>
</glyph>
<glyph name="uni03020301" format="1">
  <advance width="372"/>
  <outline>
    <contour>
      <point x="223" y="315" type="line"/>
      <point x="282" y="315" type="line"/>
      <point x="211" y="407" type="line"/>
      <point x="158" y="407" type="line"/>
      <point x="86" y="315" type="line"/>
      <point x="146" y="315" type="line"/>
      <point x="190" y="376" type="line"/>
      <point x="178" y="376" type="line"/>
    </contour>
    <contour>
      <point x="307" y="488" type="line"/>
      <point x="242" y="391" type="line"/>
      <point x="298" y="391" type="line"/>
      <point x="372" y="472" type="line"/>
    </contour>
    <contour>
      <point x="184" y="276" type="move" name="_top"/>
    </contour>
  </outline>
</glyph>
<glyph name="uni03020303.case" format="1">
  <advance width="347"/>
  <outline>
    <contour>
      <point x="158" y="518" type="line"/>
      <point x="86" y="429" type="line"/>
      <point x="146" y="429" type="line"/>
      <point x="190" y="488" type="line"/>
      <point x="178" y="488" type="line"/>
      <point x="223" y="429" type="line"/>
      <point x="282" y="429" type="line"/>
      <point x="211" y="518" type="line"/>
    </contour>
    <contour>
      <point x="288" y="582" type="curve"/>
      <point x="262" y="604" type="line"/>
      <point x="256" y="586"/>
      <point x="244" y="577"/>
      <point x="231" y="577" type="curve"/>
      <point x="209" y="577"/>
      <point x="170" y="606"/>
      <point x="142" y="606" type="curve"/>
      <point x="111" y="606"/>
      <point x="89" y="588"/>
      <point x="81" y="556" type="curve"/>
      <point x="106" y="535" type="line"/>
      <point x="113" y="551"/>
      <point x="125" y="561"/>
      <point x="138" y="561" type="curve"/>
      <point x="160" y="561"/>
      <point x="198" y="532"/>
      <point x="227" y="532" type="curve"/>
      <point x="257" y="532"/>
      <point x="279" y="550"/>
    </contour>
    <contour>
      <point x="184" y="391" type="move" name="_top"/>
    </contour>
  </outline>
</glyph>
